%TF.GenerationSoftware,KiCad,Pcbnew,6.0.5-a6ca702e91~116~ubuntu22.04.1*%
%TF.CreationDate,2022-06-10T16:35:41-05:00*%
%TF.ProjectId,panel,70616e65-6c2e-46b6-9963-61645f706362,rev?*%
%TF.SameCoordinates,Original*%
%TF.FileFunction,Paste,Top*%
%TF.FilePolarity,Positive*%
%FSLAX46Y46*%
G04 Gerber Fmt 4.6, Leading zero omitted, Abs format (unit mm)*
G04 Created by KiCad (PCBNEW 6.0.5-a6ca702e91~116~ubuntu22.04.1) date 2022-06-10 16:35:41*
%MOMM*%
%LPD*%
G01*
G04 APERTURE LIST*
G04 Aperture macros list*
%AMRoundRect*
0 Rectangle with rounded corners*
0 $1 Rounding radius*
0 $2 $3 $4 $5 $6 $7 $8 $9 X,Y pos of 4 corners*
0 Add a 4 corners polygon primitive as box body*
4,1,4,$2,$3,$4,$5,$6,$7,$8,$9,$2,$3,0*
0 Add four circle primitives for the rounded corners*
1,1,$1+$1,$2,$3*
1,1,$1+$1,$4,$5*
1,1,$1+$1,$6,$7*
1,1,$1+$1,$8,$9*
0 Add four rect primitives between the rounded corners*
20,1,$1+$1,$2,$3,$4,$5,0*
20,1,$1+$1,$4,$5,$6,$7,0*
20,1,$1+$1,$6,$7,$8,$9,0*
20,1,$1+$1,$8,$9,$2,$3,0*%
G04 Aperture macros list end*
%ADD10RoundRect,1.000000X-1.000000X-2.000000X1.000000X-2.000000X1.000000X2.000000X-1.000000X2.000000X0*%
%ADD11R,0.600000X1.450000*%
%ADD12R,0.300000X1.450000*%
%ADD13RoundRect,0.250000X0.400000X1.450000X-0.400000X1.450000X-0.400000X-1.450000X0.400000X-1.450000X0*%
G04 APERTURE END LIST*
D10*
%TO.C,J7*%
X57022328Y-22572000D03*
%TD*%
%TO.C,J7*%
X57022328Y-71244000D03*
%TD*%
%TO.C,J6*%
X31876328Y-71244000D03*
%TD*%
%TO.C,J6*%
X31876328Y-55020000D03*
%TD*%
D11*
%TO.C,J1*%
X47572328Y-42079000D03*
X46772328Y-42079000D03*
D12*
X45572328Y-42079000D03*
X44572328Y-42079000D03*
X44072328Y-42079000D03*
X43072328Y-42079000D03*
D11*
X41872328Y-42079000D03*
X41072328Y-42079000D03*
X41072328Y-42079000D03*
X41872328Y-42079000D03*
D12*
X42572328Y-42079000D03*
X43572328Y-42079000D03*
X45072328Y-42079000D03*
X46072328Y-42079000D03*
D11*
X46772328Y-42079000D03*
X47572328Y-42079000D03*
%TD*%
D10*
%TO.C,J6*%
X31876328Y-38796000D03*
%TD*%
%TO.C,J7*%
X57022328Y-55020000D03*
%TD*%
D13*
%TO.C,F1*%
X38866328Y-78356000D03*
X34416328Y-78356000D03*
%TD*%
%TO.C,F1*%
X38866328Y-62132000D03*
X34416328Y-62132000D03*
%TD*%
D10*
%TO.C,J7*%
X57022328Y-38796000D03*
%TD*%
D13*
%TO.C,F1*%
X38866328Y-45908000D03*
X34416328Y-45908000D03*
%TD*%
D11*
%TO.C,J1*%
X47572328Y-58303000D03*
X46772328Y-58303000D03*
D12*
X45572328Y-58303000D03*
X44572328Y-58303000D03*
X44072328Y-58303000D03*
X43072328Y-58303000D03*
D11*
X41872328Y-58303000D03*
X41072328Y-58303000D03*
X41072328Y-58303000D03*
X41872328Y-58303000D03*
D12*
X42572328Y-58303000D03*
X43572328Y-58303000D03*
X45072328Y-58303000D03*
X46072328Y-58303000D03*
D11*
X46772328Y-58303000D03*
X47572328Y-58303000D03*
%TD*%
D10*
%TO.C,J6*%
X31876328Y-22572000D03*
%TD*%
D11*
%TO.C,J1*%
X47572328Y-25855000D03*
X46772328Y-25855000D03*
D12*
X45572328Y-25855000D03*
X44572328Y-25855000D03*
X44072328Y-25855000D03*
X43072328Y-25855000D03*
D11*
X41872328Y-25855000D03*
X41072328Y-25855000D03*
X41072328Y-25855000D03*
X41872328Y-25855000D03*
D12*
X42572328Y-25855000D03*
X43572328Y-25855000D03*
X45072328Y-25855000D03*
X46072328Y-25855000D03*
D11*
X46772328Y-25855000D03*
X47572328Y-25855000D03*
%TD*%
D10*
%TO.C,J7*%
X57022328Y-87468000D03*
%TD*%
D11*
%TO.C,J1*%
X47572328Y-74527000D03*
X46772328Y-74527000D03*
D12*
X45572328Y-74527000D03*
X44572328Y-74527000D03*
X44072328Y-74527000D03*
X43072328Y-74527000D03*
D11*
X41872328Y-74527000D03*
X41072328Y-74527000D03*
X41072328Y-74527000D03*
X41872328Y-74527000D03*
D12*
X42572328Y-74527000D03*
X43572328Y-74527000D03*
X45072328Y-74527000D03*
X46072328Y-74527000D03*
D11*
X46772328Y-74527000D03*
X47572328Y-74527000D03*
%TD*%
%TO.C,J1*%
X47572328Y-90751000D03*
X46772328Y-90751000D03*
D12*
X45572328Y-90751000D03*
X44572328Y-90751000D03*
X44072328Y-90751000D03*
X43072328Y-90751000D03*
D11*
X41872328Y-90751000D03*
X41072328Y-90751000D03*
X41072328Y-90751000D03*
X41872328Y-90751000D03*
D12*
X42572328Y-90751000D03*
X43572328Y-90751000D03*
X45072328Y-90751000D03*
X46072328Y-90751000D03*
D11*
X46772328Y-90751000D03*
X47572328Y-90751000D03*
%TD*%
D13*
%TO.C,F1*%
X38866328Y-94580000D03*
X34416328Y-94580000D03*
%TD*%
D10*
%TO.C,J6*%
X31876328Y-87468000D03*
%TD*%
D13*
%TO.C,F1*%
X38866328Y-29684000D03*
X34416328Y-29684000D03*
%TD*%
M02*
