%TF.GenerationSoftware,KiCad,Pcbnew,6.0.5-a6ca702e91~116~ubuntu22.04.1*%
%TF.CreationDate,2022-06-10T16:35:41-05:00*%
%TF.ProjectId,panel,70616e65-6c2e-46b6-9963-61645f706362,rev?*%
%TF.SameCoordinates,Original*%
%TF.FileFunction,Profile,NP*%
%FSLAX46Y46*%
G04 Gerber Fmt 4.6, Leading zero omitted, Abs format (unit mm)*
G04 Created by KiCad (PCBNEW 6.0.5-a6ca702e91~116~ubuntu22.04.1) date 2022-06-10 16:35:41*
%MOMM*%
%LPD*%
G01*
G04 APERTURE LIST*
%TA.AperFunction,Profile*%
%ADD10C,0.100000*%
%TD*%
G04 APERTURE END LIST*
D10*
X19435425Y-32147980D02*
X19532612Y-32173185D01*
X16000705Y-84812372D02*
X16003639Y-84711084D01*
X16583973Y-66577543D02*
X16637386Y-66492539D01*
X16114429Y-96086699D02*
X16091563Y-95987981D01*
X16230146Y-64025046D02*
X16197410Y-63929148D01*
X16118462Y-67689773D02*
X16143978Y-67592678D01*
X18000691Y-36147623D02*
X18000212Y-39837000D01*
X71782510Y-33368996D02*
X71855309Y-33441794D01*
X69377353Y-50489592D02*
X69276015Y-50471430D01*
X16197410Y-31481148D02*
X16167392Y-31385339D01*
X72481312Y-97063232D02*
X72428780Y-97153808D01*
X18896953Y-34546583D02*
X18814347Y-34603635D01*
X69954452Y-50703322D02*
X69863199Y-50655656D01*
X72927361Y-51718116D02*
X72945524Y-51819454D01*
X70242516Y-80444786D02*
X70323705Y-80375719D01*
X70510119Y-34932405D02*
X70441101Y-34856013D01*
X19443155Y-18074017D02*
X19347258Y-18103723D01*
X72315706Y-32436287D02*
X72255159Y-32524014D01*
X37700131Y-16001275D02*
X37700131Y-18001275D01*
X70212120Y-50873138D02*
X70129137Y-50812203D01*
X18000287Y-62740401D02*
X18005332Y-62840677D01*
X70725555Y-63657463D02*
X70776601Y-63563888D01*
X16583973Y-34129543D02*
X16637386Y-34044539D01*
X70929917Y-30718819D02*
X70955004Y-30615220D01*
X18030613Y-63039818D02*
X18050784Y-63138173D01*
X16751104Y-17653943D02*
X16811376Y-17572485D01*
X19830071Y-97114875D02*
X19930342Y-97120000D01*
X19540433Y-34273207D02*
X19443155Y-34298017D01*
X72652992Y-34619642D02*
X72692952Y-34712761D01*
X18890177Y-96793192D02*
X18975362Y-96846335D01*
X19638843Y-50477355D02*
X19540433Y-50497207D01*
X70401169Y-31630497D02*
X70474694Y-31553322D01*
X16000327Y-20023950D02*
X16000705Y-19916372D01*
X19443155Y-50522017D02*
X19347258Y-50551723D01*
X73000328Y-95087940D02*
X72996536Y-95250832D01*
X16074633Y-51662661D02*
X16095198Y-51564398D01*
X19630951Y-80865434D02*
X19730189Y-80880677D01*
X72565382Y-83107116D02*
X72610008Y-83198092D01*
X18890177Y-80569192D02*
X18975362Y-80622335D01*
X18890177Y-48121192D02*
X18975362Y-48174335D01*
X18286326Y-16378708D02*
X18378556Y-16336735D01*
X72315706Y-97332287D02*
X72255159Y-97420014D01*
X19532612Y-48397185D02*
X19630951Y-48417434D01*
X16741603Y-48781136D02*
X16684280Y-48698707D01*
X71000328Y-95088000D02*
X71000212Y-91507000D01*
X70907137Y-51871690D02*
X70873838Y-51774271D01*
X16202608Y-34951679D02*
X16235730Y-34855914D01*
X18000212Y-23612000D02*
X16000212Y-23612000D01*
X72580077Y-64428455D02*
X72532357Y-64521656D01*
X16202608Y-83623679D02*
X16235730Y-83527914D01*
X70907137Y-19423690D02*
X70873838Y-19326271D01*
X18000287Y-78964401D02*
X18005332Y-79064677D01*
X72960869Y-19471617D02*
X72973876Y-19573744D01*
X72532357Y-32073656D02*
X72481312Y-32167232D01*
X30100065Y-80895170D02*
X37700131Y-80894550D01*
X17285663Y-33275336D02*
X17342656Y-33224219D01*
X70636115Y-83767177D02*
X70575180Y-83684195D01*
X72428780Y-48481808D02*
X72372907Y-48572584D01*
X16139556Y-79959906D02*
X16114429Y-79862699D01*
X71000115Y-56060000D02*
X71000000Y-52482000D01*
X40700131Y-80894305D02*
X48300196Y-80893685D01*
X71372226Y-98322604D02*
X71287395Y-98383983D01*
X72846437Y-47514616D02*
X72815962Y-47616759D01*
X16483213Y-34304281D02*
X16532252Y-34216681D01*
X69769648Y-66836673D02*
X69674041Y-66798483D01*
X69276015Y-18023430D02*
X69173888Y-18010424D01*
X71000115Y-23612000D02*
X71000000Y-20032000D01*
X18388475Y-51250428D02*
X18330825Y-51332617D01*
X70153946Y-98940338D02*
X70051683Y-98970411D01*
X72652992Y-83291642D02*
X72692952Y-83384761D01*
X70474694Y-64001322D02*
X70544080Y-63920404D01*
X19063128Y-48223095D02*
X19153252Y-48267347D01*
X71994141Y-17367630D02*
X72060146Y-17444516D01*
X18030613Y-46815818D02*
X18050784Y-46914173D01*
X16992344Y-97769022D02*
X16926975Y-97692815D01*
X16056395Y-67986338D02*
X16074633Y-67886661D01*
X18052785Y-68198096D02*
X18032220Y-68296360D01*
X18052785Y-51974096D02*
X18032220Y-52072360D01*
X72187232Y-17604435D02*
X72248168Y-17687418D01*
X71057757Y-16584000D02*
X71143751Y-16637600D01*
X69885089Y-32003904D02*
X69978864Y-31953227D01*
X18016658Y-84619539D02*
X18006140Y-84719378D01*
X72945524Y-68043454D02*
X72960869Y-68143617D01*
X71624242Y-49446926D02*
X71709066Y-49523182D01*
X72128392Y-97589042D02*
X72062337Y-97670285D01*
X48300196Y-99121157D02*
X40700131Y-99120847D01*
X19153252Y-64491347D02*
X19245501Y-64530978D01*
X30100065Y-66672000D02*
X30100065Y-64672000D01*
X18183835Y-35371194D02*
X18143910Y-35463306D01*
X70323705Y-47927719D02*
X70401169Y-47854497D01*
X18585313Y-67246815D02*
X18515882Y-67319328D01*
X16002814Y-95288895D02*
X16000296Y-95194374D01*
X18450213Y-18723263D02*
X18388475Y-18802428D01*
X69173170Y-80885264D02*
X69278878Y-80871559D01*
X16027666Y-68185989D02*
X16040833Y-68085517D01*
X71709066Y-81971182D02*
X71782510Y-82040996D01*
X16342087Y-80529610D02*
X16302530Y-80437329D01*
X37700131Y-66672000D02*
X30100065Y-66672000D01*
X16003639Y-52263084D02*
X16009087Y-52162839D01*
X16053555Y-95789877D02*
X16038391Y-95690627D01*
X16017148Y-68285829D02*
X16027666Y-68185989D01*
X70822679Y-79691769D02*
X70863664Y-79593371D01*
X18108702Y-68005322D02*
X18078301Y-68101001D01*
X16230146Y-31577046D02*
X16197410Y-31481148D01*
X72996536Y-79026832D02*
X72990850Y-79131385D01*
X16000115Y-26612000D02*
X18000115Y-26612000D01*
X18140762Y-47201355D02*
X18180319Y-47293636D01*
X72996536Y-95250832D02*
X72990850Y-95355385D01*
X71697562Y-33157169D02*
X71624242Y-33222926D01*
X18050784Y-63138173D02*
X18075911Y-63235379D01*
X69528679Y-16039454D02*
X69628842Y-16054797D01*
X71782510Y-49592996D02*
X71855309Y-49665794D01*
X72428780Y-97153808D02*
X72372907Y-97244584D01*
X69885089Y-96899904D02*
X69978864Y-96849227D01*
X18510381Y-31570884D02*
X18579525Y-31643682D01*
X70899443Y-95716962D02*
X70929917Y-95614819D01*
X72187232Y-82500435D02*
X72248168Y-82583418D01*
X16139556Y-31287906D02*
X16114429Y-31190699D01*
X16000705Y-52364372D02*
X16003639Y-52263084D01*
X72991945Y-52225211D02*
X72997247Y-52333625D01*
X69173170Y-48437264D02*
X69278878Y-48423559D01*
X16532252Y-50440681D02*
X16583973Y-50353543D01*
X40700131Y-34222846D02*
X40700131Y-33223000D01*
X72991945Y-36001211D02*
X72997188Y-36106991D01*
X71697562Y-65605169D02*
X71624242Y-65670926D01*
X71992952Y-49079203D02*
X71922736Y-49156878D01*
X72668931Y-80460765D02*
X72626155Y-80556336D01*
X69173888Y-66682424D02*
X69071232Y-66674607D01*
X70451967Y-98835461D02*
X70354140Y-98872793D01*
X72747632Y-80264687D02*
X72709916Y-80362366D01*
X18890177Y-31897192D02*
X18975362Y-31950335D01*
X71143751Y-16637600D02*
X71229714Y-16694254D01*
X70792664Y-84033114D02*
X70744997Y-83941861D01*
X16118462Y-19017773D02*
X16143978Y-18920678D01*
X70320905Y-16233980D02*
X70415929Y-16269173D01*
X17071306Y-33488143D02*
X17140737Y-33415630D01*
X19245501Y-64530978D02*
X19339640Y-64565885D01*
X18330825Y-35108617D02*
X18277413Y-35193622D01*
X70955004Y-95511220D02*
X70974635Y-95406451D01*
X71287395Y-98383983D02*
X71199431Y-98444185D01*
X16637386Y-17820539D02*
X16693454Y-17736133D01*
X71475997Y-16875101D02*
X71555787Y-16940161D01*
X72125206Y-49972305D02*
X72187232Y-50052435D01*
X17060245Y-49172238D02*
X16992344Y-49097022D01*
X18734737Y-34664797D02*
X18658327Y-34729913D01*
X18006140Y-84719378D02*
X18000691Y-84819623D01*
X70510119Y-83604405D02*
X70441101Y-83528013D01*
X69788790Y-48273605D02*
X69885089Y-48227904D01*
X16575477Y-80976849D02*
X16524107Y-80889504D01*
X71000212Y-91507000D02*
X73000212Y-91507000D01*
X70157823Y-31837509D02*
X70242516Y-31772786D01*
X16475417Y-80801698D02*
X16428537Y-80711863D01*
X70636115Y-67543177D02*
X70575180Y-67460195D01*
X68968231Y-16000000D02*
X69121883Y-16003248D01*
X18326264Y-80004828D02*
X18383587Y-80087257D01*
X72766336Y-51127392D02*
X72799635Y-51224810D01*
X16000115Y-75284000D02*
X18000115Y-75284000D01*
X16873114Y-66165321D02*
X16937434Y-66087021D01*
X72692952Y-67160761D02*
X72731143Y-67256368D01*
X17273756Y-33161920D02*
X17201013Y-33092717D01*
X40700131Y-50450306D02*
X40700131Y-48449694D01*
X71624242Y-81894926D02*
X71709066Y-81971182D01*
X72799635Y-67448810D02*
X72829970Y-67545495D01*
X70126802Y-16170348D02*
X70223486Y-16200682D01*
X16230146Y-80249046D02*
X16197410Y-80153148D01*
X16684280Y-97370707D02*
X16628552Y-97286075D01*
X72906963Y-19170859D02*
X72927361Y-19270116D01*
X19227576Y-99048334D02*
X19129238Y-99028085D01*
X18896953Y-50770583D02*
X18814347Y-50827635D01*
X69121883Y-16003248D02*
X69223084Y-16008380D01*
X69690231Y-48314203D02*
X69788790Y-48273605D01*
X69477641Y-18064864D02*
X69377353Y-18041592D01*
X71994141Y-82263630D02*
X72060146Y-82340516D01*
X19339640Y-80789885D02*
X19435425Y-80819980D01*
X19626946Y-99104533D02*
X19527064Y-99094336D01*
X16628552Y-48614075D02*
X16575477Y-48528849D01*
X19030538Y-99005140D02*
X18933351Y-98979935D01*
X19930261Y-99120000D02*
X19828253Y-99117392D01*
X18658327Y-83401913D02*
X18585313Y-83470815D01*
X72468538Y-34255265D02*
X72517715Y-34343863D01*
X16000115Y-59060000D02*
X18000115Y-59060000D01*
X72982279Y-95461632D02*
X72971129Y-95565745D01*
X72984127Y-35898556D02*
X72991945Y-36001211D01*
X18108702Y-19333322D02*
X18078301Y-19429001D01*
X69576622Y-18093185D02*
X69477641Y-18064864D01*
X18728423Y-48002314D02*
X18807794Y-48063802D01*
X72692952Y-50936761D02*
X72731143Y-51032368D01*
X70441101Y-67304013D02*
X70368302Y-67231215D01*
X71849210Y-81682053D02*
X71775026Y-81755947D01*
X70692769Y-18957140D02*
X70636115Y-18871177D01*
X17003103Y-66011085D02*
X17071306Y-65936143D01*
X18078301Y-84325001D02*
X18052785Y-84422096D01*
X70958732Y-52070958D02*
X70935459Y-51970670D01*
X69278878Y-48423559D02*
X69383724Y-48404340D01*
X70575180Y-18788195D02*
X70510119Y-18708405D01*
X18224499Y-31159795D02*
X18273189Y-31247601D01*
X17273756Y-98057920D02*
X17201013Y-97988717D01*
X72960869Y-35695617D02*
X72973876Y-35797744D01*
X69383724Y-97076340D02*
X69487420Y-97051660D01*
X72873736Y-31189529D02*
X72846437Y-31290616D01*
X72990850Y-46683385D02*
X72982279Y-46789632D01*
X40700131Y-32223152D02*
X48300196Y-32222842D01*
X19638843Y-18029355D02*
X19540433Y-18049207D01*
X19245501Y-80754978D02*
X19339640Y-80789885D01*
X16428537Y-64487863D02*
X16384357Y-64397704D01*
X70863664Y-30921371D02*
X70899443Y-30820962D01*
X18228374Y-35281222D02*
X18183835Y-35371194D01*
X27100065Y-80895415D02*
X27100065Y-82892584D01*
X72565382Y-66883116D02*
X72610008Y-66974092D01*
X61900262Y-16000288D02*
X68968231Y-16000000D01*
X18896953Y-83218583D02*
X18814347Y-83275635D01*
X70835648Y-35454664D02*
X70792664Y-35361114D01*
X58900262Y-50448821D02*
X51300196Y-50449441D01*
X16007859Y-30493170D02*
X16002814Y-30392895D01*
X72372907Y-48572584D02*
X72315706Y-48660287D01*
X18277413Y-18969622D02*
X18228374Y-19057222D01*
X18948885Y-16136055D02*
X19046163Y-16111245D01*
X72481312Y-32167232D02*
X72428780Y-32257808D01*
X16040833Y-51861517D02*
X16056395Y-51762338D01*
X16862971Y-65166256D02*
X16801546Y-65086836D01*
X16801546Y-97534836D02*
X16741603Y-97453136D01*
X18515882Y-67319328D02*
X18450213Y-67395263D01*
X19838046Y-50452720D02*
X19738133Y-50462513D01*
X72532357Y-96969656D02*
X72481312Y-97063232D01*
X72731143Y-67256368D02*
X72766336Y-67351392D01*
X18515882Y-34871328D02*
X18450213Y-34947263D01*
X16926975Y-81468815D02*
X16862971Y-81390256D01*
X16435971Y-83065926D02*
X16483213Y-82976281D01*
X17273756Y-49385920D02*
X17201013Y-49316717D01*
X69071232Y-66674607D02*
X68968313Y-66672000D01*
X27100065Y-99120292D02*
X19930261Y-99120000D01*
X51300196Y-18000720D02*
X51300196Y-16000720D01*
X16071391Y-30993626D02*
X16053555Y-30893877D01*
X19738133Y-34238513D02*
X19638843Y-34253355D01*
X19443155Y-34298017D02*
X19347258Y-34327723D01*
X72125206Y-66196305D02*
X72187232Y-66276435D01*
X16017148Y-19613829D02*
X16027666Y-19513989D01*
X51300196Y-66672000D02*
X51300196Y-64672000D01*
X18363809Y-98776949D02*
X18271749Y-98734605D01*
X72610008Y-66974092D02*
X72652992Y-67067642D01*
X71992952Y-81527203D02*
X71922736Y-81604878D01*
X71619611Y-98123079D02*
X71538422Y-98192146D01*
X19784704Y-16005431D02*
X19939918Y-16002000D01*
X16015512Y-95490212D02*
X16007859Y-95389170D01*
X72999545Y-84889358D02*
X73000115Y-88507000D01*
X70401169Y-96526497D02*
X70474694Y-96449322D01*
X72960869Y-51919617D02*
X72973876Y-52021744D01*
X16172207Y-18823358D02*
X16202608Y-18727679D01*
X70291910Y-18490197D02*
X70212120Y-18425138D01*
X72815962Y-47616759D02*
X72783410Y-47716278D01*
X19153252Y-48267347D02*
X19245501Y-48306978D01*
X72193447Y-81280604D02*
X72128392Y-81365042D01*
X70863664Y-79593371D02*
X70899443Y-79492962D01*
X69769648Y-34388673D02*
X69674041Y-34350483D01*
X70929917Y-63166819D02*
X70955004Y-63063220D01*
X72060146Y-66116516D02*
X72125206Y-66196305D01*
X72766336Y-18679392D02*
X72799635Y-18776810D01*
X18277413Y-51417622D02*
X18228374Y-51505222D01*
X19730189Y-80880677D02*
X19830071Y-80890875D01*
X16532252Y-66664681D02*
X16583973Y-66577543D01*
X30100065Y-64672000D02*
X37700131Y-64672000D01*
X72255159Y-32524014D02*
X72193447Y-32608604D01*
X18383587Y-47639257D02*
X18445012Y-47718677D01*
X72990850Y-30459385D02*
X72982279Y-30565632D01*
X70609135Y-31387966D02*
X70669682Y-31300239D01*
X16811376Y-82468485D02*
X16873114Y-82389321D01*
X72125206Y-82420305D02*
X72187232Y-82500435D01*
X72920794Y-47207554D02*
X72898823Y-47309931D01*
X69173888Y-18010424D02*
X69071232Y-18002607D01*
X70880436Y-16482597D02*
X70969035Y-16531773D01*
X19730189Y-64656677D02*
X19830071Y-64666875D01*
X69690231Y-96986203D02*
X69788790Y-96945605D01*
X17212648Y-17120239D02*
X17285663Y-17051336D01*
X51300196Y-50449441D02*
X51300196Y-48450559D01*
X72481312Y-64615232D02*
X72428780Y-64705808D01*
X19540433Y-50497207D02*
X19443155Y-50522017D01*
X70997719Y-84825079D02*
X70989902Y-84722424D01*
X71624242Y-33222926D02*
X71709066Y-33299182D01*
X72709916Y-64138366D02*
X72668931Y-64236765D01*
X19160590Y-50625503D02*
X19070297Y-50669387D01*
X72990850Y-95355385D02*
X72982279Y-95461632D01*
X19347258Y-34327723D02*
X19252989Y-34362248D01*
X72766336Y-83575392D02*
X72799635Y-83672810D01*
X16053555Y-63341877D02*
X16038391Y-63242627D01*
X69829437Y-16093357D02*
X69929725Y-16116628D01*
X17273756Y-65609920D02*
X17201013Y-65540717D01*
X72996536Y-46578832D02*
X72990850Y-46683385D01*
X16391433Y-34483898D02*
X16435971Y-34393926D01*
X71994141Y-66039630D02*
X72060146Y-66116516D01*
X70051683Y-98970411D02*
X69950490Y-98997313D01*
X72815962Y-31392759D02*
X72783410Y-31492278D01*
X72315706Y-81108287D02*
X72255159Y-81196014D01*
X16197410Y-96377148D02*
X16167392Y-96281339D01*
X72255159Y-97420014D02*
X72193447Y-97504604D01*
X72960869Y-84367617D02*
X72973876Y-84469744D01*
X16003639Y-36039084D02*
X16009087Y-35938839D01*
X72945524Y-51819454D02*
X72960869Y-51919617D01*
X70609135Y-96283966D02*
X70669682Y-96196239D01*
X72996536Y-62802832D02*
X72990850Y-62907385D01*
X16302530Y-80437329D02*
X16264979Y-80343212D01*
X16025629Y-63142102D02*
X16015512Y-63042212D01*
X18456059Y-98816580D02*
X18363809Y-98776949D01*
X70441101Y-34856013D02*
X70368302Y-34783215D01*
X72971129Y-79341745D02*
X72957008Y-79447398D01*
X16435971Y-50617926D02*
X16483213Y-50528281D01*
X16000705Y-68588372D02*
X16003639Y-68487084D01*
X19738133Y-82910513D02*
X19638843Y-82925355D01*
X19070297Y-83117387D02*
X18982343Y-83165789D01*
X16751104Y-33877943D02*
X16811376Y-33796485D01*
X19435425Y-64595980D02*
X19532612Y-64621185D01*
X51300196Y-97121279D02*
X58900262Y-97121589D01*
X16025629Y-30694102D02*
X16015512Y-30594212D01*
X16197410Y-80153148D02*
X16167392Y-80057339D01*
X69885089Y-80675904D02*
X69978864Y-80625227D01*
X16139556Y-96183906D02*
X16114429Y-96086699D01*
X70323705Y-96599719D02*
X70401169Y-96526497D01*
X72906963Y-84066859D02*
X72927361Y-84166116D01*
X70725555Y-31209463D02*
X70776601Y-31115888D01*
X16000212Y-56060000D02*
X16000705Y-52364372D01*
X16027666Y-84409989D02*
X16040833Y-84309517D01*
X16000296Y-62746253D02*
X16000115Y-59060000D01*
X70646264Y-98752463D02*
X70550526Y-98794864D01*
X18734737Y-18440797D02*
X18658327Y-18505913D01*
X72898823Y-47309931D02*
X72873736Y-47413529D01*
X58900262Y-16000410D02*
X58900262Y-18000410D01*
X18000691Y-19923623D02*
X18000212Y-23612000D01*
X71555787Y-16940161D02*
X71632673Y-17006165D01*
X72927361Y-19270116D02*
X72945524Y-19371454D01*
X70354140Y-98872793D02*
X70253592Y-98908177D01*
X16095198Y-35340398D02*
X16118462Y-35241773D01*
X69487420Y-48379660D02*
X69589683Y-48349586D01*
X70212120Y-34649138D02*
X70129137Y-34588203D01*
X69769648Y-50612673D02*
X69674041Y-50574483D01*
X72652992Y-50843642D02*
X72692952Y-50936761D01*
X16428537Y-32039863D02*
X16384357Y-31949704D01*
X72248168Y-50135418D02*
X72306055Y-50218587D01*
X16040833Y-35637517D02*
X16056395Y-35538338D01*
X18445012Y-31494677D02*
X18510381Y-31570884D01*
X70368302Y-51007215D02*
X70291910Y-50938197D01*
X18585313Y-34798815D02*
X18515882Y-34871328D01*
X16575477Y-64752849D02*
X16524107Y-64665504D01*
X72580077Y-80652455D02*
X72532357Y-80745656D01*
X40700131Y-99120847D02*
X40700131Y-97120847D01*
X61900262Y-48451424D02*
X68960000Y-48452000D01*
X18000115Y-26612000D02*
X18000287Y-30292401D01*
X27100065Y-16001707D02*
X27100065Y-18001707D01*
X16139556Y-63735906D02*
X16114429Y-63638699D01*
X72873736Y-47413529D02*
X72846437Y-47514616D01*
X19063128Y-96895095D02*
X19153252Y-96939347D01*
X69383724Y-64628340D02*
X69487420Y-64603660D01*
X18565193Y-16260234D02*
X18659462Y-16225709D01*
X18659462Y-16225709D02*
X18755465Y-16193283D01*
X18005332Y-95288677D02*
X18015449Y-95388567D01*
X18005332Y-62840677D02*
X18015449Y-62940567D01*
X72731143Y-83480368D02*
X72766336Y-83575392D01*
X16483213Y-82976281D02*
X16532252Y-82888681D01*
X69377353Y-82937592D02*
X69276015Y-82919430D01*
X18091828Y-98643401D02*
X18004061Y-98594641D01*
X61900262Y-66672000D02*
X61900262Y-64672000D01*
X70776601Y-96011888D02*
X70822679Y-95915769D01*
X16202608Y-51175679D02*
X16235730Y-51079914D01*
X70510119Y-18708405D02*
X70441101Y-18632013D01*
X71782510Y-65816996D02*
X71855309Y-65889794D01*
X16091563Y-31091981D02*
X16071391Y-30993626D01*
X48300196Y-34223156D02*
X40700131Y-34222846D01*
X72940425Y-79550784D02*
X72920794Y-79655554D01*
X16475417Y-32129698D02*
X16428537Y-32039863D01*
X16302530Y-64213329D02*
X16264979Y-64119212D01*
X18982343Y-83165789D02*
X18896953Y-83218583D01*
X30100065Y-50451171D02*
X30100065Y-48448829D01*
X70725555Y-47433463D02*
X70776601Y-47339888D01*
X16873114Y-33717321D02*
X16937434Y-33639021D01*
X70368302Y-83455215D02*
X70291910Y-83386197D01*
X70223486Y-16200682D02*
X70320905Y-16233980D01*
X70822679Y-95915769D02*
X70863664Y-95817371D01*
X17361098Y-16983679D02*
X17437508Y-16918563D01*
X72920794Y-79655554D02*
X72898823Y-79757931D01*
X19245501Y-32082978D02*
X19339640Y-32117885D01*
X18326264Y-63780828D02*
X18383587Y-63863257D01*
X69276015Y-34247430D02*
X69173888Y-34234424D01*
X18807794Y-64287802D02*
X18890177Y-64345192D01*
X72532357Y-48297656D02*
X72481312Y-48391232D01*
X70157823Y-48061509D02*
X70242516Y-47996786D01*
X18740155Y-98921926D02*
X18644284Y-98889113D01*
X18032220Y-19624360D02*
X18016658Y-19723539D01*
X16937434Y-33639021D02*
X17003103Y-33563085D01*
X70669682Y-63748239D02*
X70725555Y-63657463D01*
X19435425Y-97043980D02*
X19532612Y-97069185D01*
X70997328Y-30298550D02*
X71000328Y-30192000D01*
X18896953Y-66994583D02*
X18814347Y-67051635D01*
X17201013Y-65540717D02*
X17129389Y-65469036D01*
X72306055Y-66442587D02*
X72362710Y-66528549D01*
X70792664Y-35361114D02*
X70744997Y-35269861D01*
X70989902Y-52274424D02*
X70976895Y-52172296D01*
X70955004Y-30615220D02*
X70974635Y-30510451D01*
X48300196Y-32222842D02*
X48300196Y-34223156D01*
X17503580Y-98255377D02*
X17425072Y-98191310D01*
X16741603Y-65005136D02*
X16684280Y-64922707D01*
X72927361Y-84166116D02*
X72945524Y-84267454D01*
X58900262Y-32222410D02*
X58900262Y-34223589D01*
X16475417Y-97025698D02*
X16428537Y-96935863D01*
X17060245Y-97844238D02*
X16992344Y-97769022D01*
X70989902Y-68498424D02*
X70976895Y-68396296D01*
X16056395Y-84210338D02*
X16074633Y-84110661D01*
X16040833Y-19413517D02*
X16056395Y-19314338D01*
X18006140Y-19823378D02*
X18000691Y-19923623D01*
X16524107Y-48441504D02*
X16475417Y-48353698D01*
X18078301Y-19429001D02*
X18052785Y-19526096D01*
X71020509Y-98556557D02*
X70929727Y-98608732D01*
X73000212Y-91507000D02*
X73000328Y-95087940D01*
X72971129Y-63117745D02*
X72957008Y-63223398D01*
X16384357Y-48173704D02*
X16342087Y-48081610D01*
X70027821Y-16142027D02*
X70126802Y-16170348D01*
X70907137Y-35647690D02*
X70873838Y-35550271D01*
X16000212Y-72284000D02*
X16000705Y-68588372D01*
X70544080Y-63920404D02*
X70609135Y-63835966D01*
X18052785Y-84422096D02*
X18032220Y-84520360D01*
X61900262Y-18000288D02*
X61900262Y-16000288D01*
X18180319Y-95965636D02*
X18224499Y-96055795D01*
X69788790Y-64497605D02*
X69885089Y-64451904D01*
X72060146Y-82340516D02*
X72125206Y-82420305D01*
X69978864Y-96849227D02*
X70069858Y-96793711D01*
X69278878Y-80871559D02*
X69383724Y-80852340D01*
X70929917Y-46942819D02*
X70955004Y-46839220D01*
X68960000Y-97122000D02*
X69066890Y-97117419D01*
X73000212Y-75284000D02*
X72999536Y-78920281D01*
X69674041Y-34350483D02*
X69576622Y-34317185D01*
X71855309Y-82113794D02*
X71925123Y-82187238D01*
X19532612Y-32173185D02*
X19630951Y-32193434D01*
X16114429Y-47414699D02*
X16091563Y-47315981D01*
X16007859Y-62941170D02*
X16002814Y-62840895D01*
X16342087Y-31857610D02*
X16302530Y-31765329D01*
X17212648Y-49568239D02*
X17285663Y-49499336D01*
X68968313Y-50448000D02*
X61900262Y-50448576D01*
X70989902Y-19826424D02*
X70976895Y-19724296D01*
X18652268Y-64160885D02*
X18728423Y-64226314D01*
X16091563Y-79763981D02*
X16071391Y-79665626D01*
X72468538Y-18031265D02*
X72517715Y-18119863D01*
X72883691Y-35294571D02*
X72906963Y-35394859D01*
X72062337Y-81446285D02*
X71992952Y-81527203D01*
X16937434Y-49863021D02*
X17003103Y-49787085D01*
X16118462Y-35241773D02*
X16143978Y-35144678D01*
X17129389Y-33021036D02*
X17060245Y-32948238D01*
X16025629Y-79366102D02*
X16015512Y-79266212D01*
X16348792Y-18351821D02*
X16391433Y-18259898D01*
X16056395Y-51762338D02*
X16074633Y-51662661D01*
X18143910Y-67911306D02*
X18108702Y-68005322D01*
X72982279Y-79237632D02*
X72971129Y-79341745D01*
X16015512Y-30594212D02*
X16007859Y-30493170D01*
X18807794Y-31839802D02*
X18890177Y-31897192D01*
X72362710Y-66528549D02*
X72416311Y-66614543D01*
X72883691Y-83966571D02*
X72906963Y-84066859D01*
X18105929Y-63331189D02*
X18140762Y-63425355D01*
X18183835Y-67819194D02*
X18143910Y-67911306D01*
X18658327Y-18505913D02*
X18585313Y-18574815D01*
X27100065Y-34222292D02*
X19940000Y-34222000D01*
X72416311Y-50390543D02*
X72468538Y-50479265D01*
X72416311Y-82838543D02*
X72468538Y-82927265D01*
X19129238Y-99028085D02*
X19030538Y-99005140D01*
X69487420Y-64603660D02*
X69589683Y-64573586D01*
X71000212Y-59060000D02*
X73000212Y-59060000D01*
X16114429Y-79862699D02*
X16091563Y-79763981D01*
X16007859Y-95389170D02*
X16002814Y-95288895D01*
X72984127Y-19674556D02*
X72991945Y-19777211D01*
X16693454Y-66408133D02*
X16751104Y-66325943D01*
X70692769Y-51405140D02*
X70636115Y-51319177D01*
X70789183Y-16434931D02*
X70880436Y-16482597D01*
X70792664Y-19137114D02*
X70744997Y-19045861D01*
X70043174Y-34531549D02*
X69954452Y-34479322D01*
X69576622Y-66765185D02*
X69477641Y-66736864D01*
X18030613Y-30591818D02*
X18050784Y-30690173D01*
X16992344Y-81545022D02*
X16926975Y-81468815D01*
X58900262Y-99121589D02*
X51300196Y-99121279D01*
X72799635Y-18776810D02*
X72829970Y-18873495D01*
X70935459Y-84418670D02*
X70907137Y-84319690D01*
X72973876Y-52021744D02*
X72984127Y-52122556D01*
X51300196Y-34223279D02*
X51300196Y-32222720D01*
X16270938Y-50985898D02*
X16308867Y-50891933D01*
X18579525Y-31643682D02*
X18652268Y-31712885D01*
X16348792Y-50799821D02*
X16391433Y-50707898D01*
X17342656Y-65672219D02*
X17273756Y-65609920D01*
X18814347Y-67051635D02*
X18734737Y-67112797D01*
X18326264Y-96228828D02*
X18383587Y-96311257D01*
X69978864Y-31953227D02*
X70069858Y-31897711D01*
X19252989Y-18138248D02*
X19160590Y-18177503D01*
X18006140Y-52271378D02*
X18000691Y-52371623D01*
X72187232Y-50052435D02*
X72248168Y-50135418D01*
X72960869Y-68143617D02*
X72973876Y-68245744D01*
X70069858Y-64345711D02*
X70157823Y-64285509D01*
X19638843Y-34253355D02*
X19540433Y-34273207D01*
X71925123Y-49739238D02*
X71994141Y-49815630D01*
X16483213Y-50528281D02*
X16532252Y-50440681D01*
X72652992Y-18395642D02*
X72692952Y-18488761D01*
X48300196Y-48450314D02*
X48300196Y-50449686D01*
X16926975Y-32796815D02*
X16862971Y-32718256D01*
X16202608Y-18727679D02*
X16235730Y-18631914D01*
X72709916Y-31690366D02*
X72668931Y-31788765D01*
X16270938Y-67209898D02*
X16308867Y-67115933D01*
X72565382Y-50659116D02*
X72610008Y-50750092D01*
X18196034Y-16422592D02*
X18286326Y-16378708D01*
X72731143Y-18584368D02*
X72766336Y-18679392D01*
X18728423Y-64226314D02*
X18807794Y-64287802D01*
X16025629Y-95590102D02*
X16015512Y-95490212D01*
X70899443Y-30820962D02*
X70929917Y-30718819D01*
X16167392Y-47609339D02*
X16139556Y-47511906D01*
X72610008Y-18302092D02*
X72652992Y-18395642D01*
X71925123Y-82187238D02*
X71994141Y-82263630D01*
X18652268Y-47936885D02*
X18728423Y-48002314D01*
X70636115Y-18871177D02*
X70575180Y-18788195D01*
X70609135Y-63835966D02*
X70669682Y-63748239D01*
X19347258Y-66775723D02*
X19252989Y-66810248D01*
X72799635Y-51224810D02*
X72829970Y-51321495D01*
X69788790Y-32049605D02*
X69885089Y-32003904D01*
X71697562Y-49381169D02*
X71624242Y-49446926D01*
X18728423Y-96674314D02*
X18807794Y-96735802D01*
X71709066Y-49523182D02*
X71782510Y-49592996D01*
X61900262Y-34223711D02*
X61900262Y-32222287D01*
X70822679Y-63467769D02*
X70863664Y-63369371D01*
X18585313Y-83470815D02*
X18515882Y-83543328D01*
X68968313Y-34224000D02*
X61900262Y-34223711D01*
X72315706Y-48660287D02*
X72255159Y-48748014D01*
X69788790Y-96945605D02*
X69885089Y-96899904D01*
X71855309Y-65889794D02*
X71925123Y-65963238D01*
X18273189Y-96143601D02*
X18326264Y-96228828D01*
X70609135Y-47611966D02*
X70669682Y-47524239D01*
X30100065Y-82892828D02*
X30100065Y-80895170D01*
X72920794Y-95879554D02*
X72898823Y-95981931D01*
X16435971Y-66841926D02*
X16483213Y-66752281D01*
X72957008Y-30775398D02*
X72940425Y-30878784D01*
X71229714Y-16694254D02*
X71312883Y-16752141D01*
X69769648Y-83060673D02*
X69674041Y-83022483D01*
X70692769Y-67629140D02*
X70636115Y-67543177D01*
X70929917Y-95614819D02*
X70955004Y-95511220D01*
X72971129Y-46893745D02*
X72957008Y-46999398D01*
X72815962Y-63840759D02*
X72783410Y-63940278D01*
X30100065Y-32223585D02*
X37700131Y-32223275D01*
X69430327Y-99092663D02*
X69326172Y-99103403D01*
X16435971Y-18169926D02*
X16483213Y-18080281D01*
X69885089Y-64451904D02*
X69978864Y-64401227D01*
X70974635Y-30510451D02*
X70988756Y-30404797D01*
X18579525Y-47867682D02*
X18652268Y-47936885D01*
X16862971Y-81390256D02*
X16801546Y-81310836D01*
X18277413Y-83865622D02*
X18228374Y-83953222D01*
X16007859Y-46717170D02*
X16002814Y-46616895D01*
X19532612Y-97069185D02*
X19630951Y-97089434D01*
X16071391Y-79665626D02*
X16053555Y-79565877D01*
X19435425Y-80819980D02*
X19532612Y-80845185D01*
X16342087Y-64305610D02*
X16302530Y-64213329D01*
X69487420Y-97051660D02*
X69589683Y-97021586D01*
X16056395Y-35538338D02*
X16074633Y-35438661D01*
X70069858Y-48121711D02*
X70157823Y-48061509D01*
X16002814Y-62840895D02*
X16000296Y-62746253D01*
X70958732Y-68294958D02*
X70935459Y-68194670D01*
X70415929Y-16269173D02*
X70511537Y-16307362D01*
X16074633Y-35438661D02*
X16095198Y-35340398D01*
X70935459Y-51970670D02*
X70907137Y-51871690D01*
X16235730Y-51079914D02*
X16270938Y-50985898D01*
X48300196Y-18000843D02*
X40700131Y-18001153D01*
X18015449Y-30492567D02*
X18030613Y-30591818D01*
X70822679Y-31019769D02*
X70863664Y-30921371D01*
X72125206Y-33748305D02*
X72187232Y-33828435D01*
X16167392Y-31385339D02*
X16139556Y-31287906D01*
X16003639Y-84711084D02*
X16009087Y-84610839D01*
X69639486Y-99062781D02*
X69536035Y-99078957D01*
X69576622Y-82989185D02*
X69477641Y-82960864D01*
X70129137Y-34588203D02*
X70043174Y-34531549D01*
X71992952Y-65303203D02*
X71922736Y-65380878D01*
X18383587Y-80087257D02*
X18445012Y-80166677D01*
X19642938Y-16014259D02*
X19784704Y-16005431D01*
X70242516Y-96668786D02*
X70323705Y-96599719D01*
X40700131Y-16001153D02*
X48300196Y-16000843D01*
X69576622Y-50541185D02*
X69477641Y-50512864D01*
X51300196Y-64672000D02*
X58900262Y-64672000D01*
X72315706Y-64884287D02*
X72255159Y-64972014D01*
X70323705Y-64151719D02*
X70401169Y-64078497D01*
X17348918Y-98125881D02*
X17273756Y-98057920D01*
X69863199Y-18207656D02*
X69769648Y-18164673D01*
X70863664Y-95817371D02*
X70899443Y-95716962D01*
X16873114Y-49941321D02*
X16937434Y-49863021D01*
X71709066Y-17075182D02*
X71782510Y-17144996D01*
X70776601Y-79787888D02*
X70822679Y-79691769D01*
X19160590Y-18177503D02*
X19070297Y-18221387D01*
X72692952Y-18488761D02*
X72731143Y-18584368D01*
X16167392Y-80057339D02*
X16139556Y-79959906D01*
X69576622Y-34317185D02*
X69477641Y-34288864D01*
X70997719Y-52377079D02*
X70989902Y-52274424D01*
X70043174Y-83203549D02*
X69954452Y-83151322D01*
X19252989Y-34362248D02*
X19160590Y-34401503D01*
X16027666Y-19513989D02*
X16040833Y-19413517D01*
X70129137Y-18364203D02*
X70043174Y-18307549D01*
X40700131Y-82893693D02*
X40700131Y-80894305D01*
X37700131Y-80894550D02*
X37700131Y-82893448D01*
X71994141Y-49815630D02*
X72060146Y-49892516D01*
X72747632Y-64040687D02*
X72709916Y-64138366D01*
X70242516Y-47996786D02*
X70323705Y-47927719D01*
X18515882Y-51095328D02*
X18450213Y-51171263D01*
X72532357Y-80745656D02*
X72481312Y-80839232D01*
X70744997Y-67717861D02*
X70692769Y-67629140D01*
X69477641Y-82960864D02*
X69377353Y-82937592D01*
X70510119Y-67380405D02*
X70441101Y-67304013D01*
X18032220Y-68296360D02*
X18016658Y-68395539D01*
X18183835Y-84043194D02*
X18143910Y-84135306D01*
X72846437Y-63738616D02*
X72815962Y-63840759D01*
X17285663Y-65723336D02*
X17342656Y-65672219D01*
X70988756Y-95300797D02*
X70997328Y-95194550D01*
X18273189Y-47471601D02*
X18326264Y-47556828D01*
X70129137Y-67036203D02*
X70043174Y-66979549D01*
X17831573Y-98490058D02*
X17746986Y-98434263D01*
X69589683Y-64573586D02*
X69690231Y-64538203D01*
X70776601Y-47339888D02*
X70822679Y-47243769D01*
X16532252Y-34216681D02*
X16583973Y-34129543D01*
X18658327Y-34729913D02*
X18585313Y-34798815D01*
X72971129Y-30669745D02*
X72957008Y-30775398D01*
X16235730Y-34855914D02*
X16270938Y-34761898D01*
X69477641Y-34288864D02*
X69377353Y-34265592D01*
X72731143Y-51032368D02*
X72766336Y-51127392D01*
X70511537Y-16307362D02*
X70604656Y-16347323D01*
X19730189Y-97104677D02*
X19830071Y-97114875D01*
X18450213Y-83619263D02*
X18388475Y-83698428D01*
X16684280Y-81146707D02*
X16628552Y-81062075D01*
X27100065Y-97120292D02*
X27100065Y-99120292D01*
X72858292Y-35196475D02*
X72883691Y-35294571D01*
X72957008Y-63223398D02*
X72940425Y-63326784D01*
X16684280Y-64922707D02*
X16628552Y-64838075D01*
X72766336Y-34903392D02*
X72799635Y-35000810D01*
X72565382Y-34435116D02*
X72610008Y-34526092D01*
X17285663Y-81947336D02*
X17342656Y-81896219D01*
X70474694Y-96449322D02*
X70544080Y-96368404D01*
X69589683Y-32125586D02*
X69690231Y-32090203D01*
X16114429Y-63638699D02*
X16091563Y-63539981D01*
X58900262Y-66672000D02*
X51300196Y-66672000D01*
X72306055Y-82666587D02*
X72362710Y-82752549D01*
X17342656Y-49448219D02*
X17273756Y-49385920D01*
X72481312Y-48391232D02*
X72428780Y-48481808D01*
X18330825Y-51332617D02*
X18277413Y-51417622D01*
X18814347Y-18379635D02*
X18734737Y-18440797D01*
X70401169Y-47854497D02*
X70474694Y-47777322D01*
X19940000Y-66672000D02*
X19838046Y-66676720D01*
X70636115Y-35095177D02*
X70575180Y-35012195D01*
X69954452Y-34479322D02*
X69863199Y-34431656D01*
X69223084Y-16008380D02*
X69325740Y-16016197D01*
X72973876Y-19573744D02*
X72984127Y-19674556D01*
X18143910Y-51687306D02*
X18108702Y-51781322D01*
X70899443Y-79492962D02*
X70929917Y-79390819D01*
X17845194Y-16621466D02*
X17930583Y-16568671D01*
X18896953Y-18322583D02*
X18814347Y-18379635D01*
X72306055Y-17770587D02*
X72362710Y-17856549D01*
X19543025Y-16024053D02*
X19642938Y-16014259D01*
X17129389Y-65469036D02*
X17060245Y-65396238D01*
X19063128Y-80671095D02*
X19153252Y-80715347D01*
X18273189Y-63695601D02*
X18326264Y-63780828D01*
X16000212Y-88507000D02*
X16000705Y-84812372D01*
X69744332Y-99043561D02*
X69639486Y-99062781D01*
X18445012Y-63942677D02*
X18510381Y-64018884D01*
X18016658Y-19723539D02*
X18006140Y-19823378D01*
X16197410Y-47705148D02*
X16167392Y-47609339D01*
X61900262Y-82895423D02*
X61900262Y-80892575D01*
X16038391Y-30794627D02*
X16025629Y-30694102D01*
X19940000Y-34222000D02*
X19838046Y-34228720D01*
X19830071Y-80890875D02*
X19930342Y-80896000D01*
X71782510Y-17144996D02*
X71855309Y-17217794D01*
X18183835Y-51595194D02*
X18143910Y-51687306D01*
X16172207Y-35047358D02*
X16202608Y-34951679D01*
X16524107Y-97113504D02*
X16475417Y-97025698D01*
X72999489Y-68656824D02*
X73000115Y-72284000D01*
X16524107Y-32217504D02*
X16475417Y-32129698D01*
X19160590Y-34401503D02*
X19070297Y-34445387D01*
X69477641Y-66736864D02*
X69377353Y-66713592D01*
X17930583Y-16568671D02*
X18018094Y-16517584D01*
X72799635Y-35000810D02*
X72829970Y-35097495D01*
X51300196Y-16000720D02*
X58900262Y-16000410D01*
X71000328Y-46416000D02*
X71000212Y-42837000D01*
X70043174Y-18307549D02*
X69954452Y-18255322D01*
X16302530Y-31765329D02*
X16264979Y-31671212D01*
X70835648Y-67902664D02*
X70792664Y-67809114D01*
X16118462Y-51465773D02*
X16143978Y-51368678D01*
X70835648Y-19230664D02*
X70792664Y-19137114D01*
X16308867Y-34667933D02*
X16348792Y-34575821D01*
X69071232Y-50450607D02*
X68968313Y-50448000D01*
X72999527Y-52438546D02*
X73000115Y-56060000D01*
X72783410Y-31492278D02*
X72747632Y-31592687D01*
X70129137Y-83260203D02*
X70043174Y-83203549D01*
X19063128Y-31999095D02*
X19153252Y-32043347D01*
X72940425Y-95774784D02*
X72920794Y-95879554D01*
X71925123Y-33515238D02*
X71994141Y-33591630D01*
X16873114Y-82389321D02*
X16937434Y-82311021D01*
X16027666Y-51961989D02*
X16040833Y-51861517D01*
X72668931Y-48012765D02*
X72626155Y-48108336D01*
X19532612Y-64621185D02*
X19630951Y-64641434D01*
X72416311Y-17942543D02*
X72468538Y-18031265D01*
X16308867Y-83339933D02*
X16348792Y-83247821D01*
X16483213Y-18080281D02*
X16532252Y-17992681D01*
X18140762Y-95873355D02*
X18180319Y-95965636D01*
X70776601Y-63563888D02*
X70822679Y-63467769D01*
X72898823Y-95981931D02*
X72873736Y-96085529D01*
X30100065Y-18001585D02*
X30100065Y-16001585D01*
X72128392Y-48917042D02*
X72062337Y-48998285D01*
X17342656Y-33224219D02*
X17273756Y-33161920D01*
X72873736Y-63637529D02*
X72846437Y-63738616D01*
X70242516Y-31772786D02*
X70323705Y-31703719D01*
X19940000Y-18002000D02*
X19838046Y-18004720D01*
X19070297Y-18221387D02*
X18982343Y-18269789D01*
X72783410Y-80164278D02*
X72747632Y-80264687D01*
X73000115Y-23612000D02*
X71000115Y-23612000D01*
X27100065Y-32223707D02*
X27100065Y-34222292D01*
X70873838Y-67998271D02*
X70835648Y-67902664D01*
X18510381Y-96466884D02*
X18579525Y-96539682D01*
X16937434Y-17415021D02*
X17003103Y-17339085D01*
X16091563Y-95987981D02*
X16071391Y-95889626D01*
X72532357Y-64521656D02*
X72481312Y-64615232D01*
X18143910Y-35463306D02*
X18108702Y-35557322D01*
X18652268Y-31712885D02*
X18728423Y-31778314D01*
X18030613Y-79263818D02*
X18050784Y-79362173D01*
X72372907Y-32348584D02*
X72315706Y-32436287D01*
X18006140Y-36047378D02*
X18000691Y-36147623D01*
X19243364Y-16068846D02*
X19343170Y-16051331D01*
X72957008Y-46999398D02*
X72940425Y-47102784D01*
X72999536Y-78920281D02*
X72996536Y-79026832D01*
X71925123Y-17291238D02*
X71994141Y-17367630D01*
X72668931Y-64236765D02*
X72626155Y-64332336D01*
X72060146Y-17444516D02*
X72125206Y-17524305D01*
X16348792Y-67023821D02*
X16391433Y-66931898D01*
X70212120Y-83321138D02*
X70129137Y-83260203D01*
X73000212Y-42837000D02*
X72999536Y-46472281D01*
X72898823Y-31085931D02*
X72873736Y-31189529D01*
X70129137Y-50812203D02*
X70043174Y-50755549D01*
X70744997Y-83941861D02*
X70692769Y-83853140D01*
X70929727Y-98608732D02*
X70835952Y-98659410D01*
X16811376Y-66244485D02*
X16873114Y-66165321D01*
X71849210Y-49234053D02*
X71775026Y-49307947D01*
X16308867Y-18443933D02*
X16348792Y-18351821D01*
X16017148Y-52061829D02*
X16027666Y-51961989D01*
X70974635Y-62958451D02*
X70988756Y-62852797D01*
X19442459Y-16036490D02*
X19543025Y-16024053D01*
X18510381Y-64018884D02*
X18579525Y-64091682D01*
X71855309Y-17217794D02*
X71925123Y-17291238D01*
X72999536Y-30248281D02*
X72996536Y-30354832D01*
X16811376Y-50020485D02*
X16873114Y-49941321D01*
X70242516Y-64220786D02*
X70323705Y-64151719D01*
X70544080Y-47696404D02*
X70609135Y-47611966D01*
X72248168Y-17687418D02*
X72306055Y-17770587D01*
X16428537Y-96935863D02*
X16384357Y-96845704D01*
X48300196Y-16000843D02*
X48300196Y-18000843D01*
X69173170Y-32213264D02*
X69278878Y-32199559D01*
X18000287Y-30292401D02*
X18005332Y-30392677D01*
X16038391Y-63242627D02*
X16025629Y-63142102D01*
X18075911Y-95683379D02*
X18105929Y-95779189D01*
X16074633Y-19214661D02*
X16095198Y-19116398D01*
X18579525Y-64091682D02*
X18652268Y-64160885D01*
X18050784Y-95586173D02*
X18075911Y-95683379D01*
X18000115Y-75284000D02*
X18000287Y-78964401D01*
X70043174Y-66979549D02*
X69954452Y-66927322D01*
X16000212Y-23612000D02*
X16000327Y-20023950D01*
X69066890Y-64669419D02*
X69173170Y-64661264D01*
X16000212Y-39837000D02*
X16000705Y-36140372D01*
X73000115Y-39837000D02*
X71000115Y-39837000D01*
X30100065Y-99120414D02*
X30100065Y-97120414D01*
X40700131Y-97120847D02*
X48300196Y-97121157D01*
X51300196Y-48450559D02*
X58900262Y-48451179D01*
X16095198Y-51564398D02*
X16118462Y-51465773D01*
X61900262Y-99121712D02*
X61900262Y-97121712D01*
X16270938Y-18537898D02*
X16308867Y-18443933D01*
X40700131Y-18001153D02*
X40700131Y-16001153D01*
X16074633Y-67886661D02*
X16095198Y-67788398D01*
X27100065Y-48448584D02*
X27100065Y-50451415D01*
X72858292Y-67644475D02*
X72883691Y-67742571D01*
X19638843Y-66701355D02*
X19540433Y-66721207D01*
X70997328Y-95194550D02*
X71000328Y-95088000D01*
X72248168Y-66359418D02*
X72306055Y-66442587D01*
X16000115Y-42837000D02*
X18000115Y-42837000D01*
X18728423Y-80450314D02*
X18807794Y-80511802D01*
X71000212Y-26612000D02*
X73000212Y-26612000D01*
X16524107Y-64665504D02*
X16475417Y-64577698D01*
X72668931Y-96684765D02*
X72626155Y-96780336D01*
X18015449Y-62940567D02*
X18030613Y-63039818D01*
X72060146Y-33668516D02*
X72125206Y-33748305D01*
X18050784Y-79362173D02*
X18075911Y-79459379D01*
X69487420Y-32155660D02*
X69589683Y-32125586D01*
X72906963Y-35394859D02*
X72927361Y-35494116D01*
X16637386Y-82716539D02*
X16693454Y-82632133D01*
X69066890Y-97117419D02*
X69173170Y-97109264D01*
X70822679Y-47243769D02*
X70863664Y-47145371D01*
X16270938Y-83433898D02*
X16308867Y-83339933D01*
X16801546Y-32638836D02*
X16741603Y-32557136D01*
X70974635Y-79182451D02*
X70988756Y-79076797D01*
X16202608Y-67399679D02*
X16235730Y-67303914D01*
X18585313Y-51022815D02*
X18515882Y-51095328D01*
X18814347Y-83275635D02*
X18734737Y-83336797D01*
X18000115Y-59060000D02*
X18000287Y-62740401D01*
X16000115Y-91507000D02*
X18000115Y-91507000D01*
X72580077Y-96876455D02*
X72532357Y-96969656D01*
X16751104Y-66325943D02*
X16811376Y-66244485D01*
X70692769Y-35181140D02*
X70636115Y-35095177D01*
X16693454Y-33960133D02*
X16751104Y-33877943D01*
X70692769Y-83853140D02*
X70636115Y-83767177D01*
X17285663Y-17051336D02*
X17361098Y-16983679D01*
X72996536Y-30354832D02*
X72990850Y-30459385D01*
X48300196Y-64672000D02*
X48300196Y-66672000D01*
X18510381Y-80242884D02*
X18579525Y-80315682D01*
X70698207Y-16390306D02*
X70789183Y-16434931D01*
X30100065Y-34222414D02*
X30100065Y-32223585D01*
X18975362Y-96846335D02*
X19063128Y-96895095D01*
X16391433Y-50707898D02*
X16435971Y-50617926D01*
X72945524Y-35595454D02*
X72960869Y-35695617D01*
X16801546Y-48862836D02*
X16741603Y-48781136D01*
X16027666Y-35737989D02*
X16040833Y-35637517D01*
X18933351Y-98979935D02*
X18835941Y-98952021D01*
X71000212Y-75284000D02*
X73000212Y-75284000D01*
X16002814Y-46616895D02*
X16000295Y-46521916D01*
X72187232Y-33828435D02*
X72248168Y-33911418D01*
X69954452Y-83151322D02*
X69863199Y-83103656D01*
X30100065Y-48448829D02*
X37700131Y-48449449D01*
X16017148Y-35837829D02*
X16027666Y-35737989D01*
X70291910Y-50938197D02*
X70212120Y-50873138D01*
X69846794Y-99021993D02*
X69744332Y-99043561D01*
X16684280Y-32474707D02*
X16628552Y-32390075D01*
X18982343Y-66941789D02*
X18896953Y-66994583D01*
X17129389Y-97917036D02*
X17060245Y-97844238D01*
X61900262Y-64672000D02*
X68960000Y-64672000D01*
X72999468Y-36205911D02*
X73000115Y-39837000D01*
X40700131Y-64672000D02*
X48300196Y-64672000D01*
X18388475Y-67474428D02*
X18330825Y-67556617D01*
X18000287Y-95188401D02*
X18005332Y-95288677D01*
X58900262Y-49450000D02*
X58900262Y-50448821D01*
X16143978Y-83816678D02*
X16172207Y-83719358D01*
X71775026Y-49307947D02*
X71697562Y-49381169D01*
X72709916Y-96586366D02*
X72668931Y-96684765D01*
X70609135Y-80059966D02*
X70669682Y-79972239D01*
X16000296Y-95194374D02*
X16000115Y-91507000D01*
X69589683Y-97021586D02*
X69690231Y-96986203D01*
X72957008Y-79447398D02*
X72940425Y-79550784D01*
X16583973Y-50353543D02*
X16637386Y-50268539D01*
X70636115Y-51319177D02*
X70575180Y-51236195D01*
X70742563Y-98706763D02*
X70646264Y-98752463D01*
X19730189Y-48432677D02*
X19830071Y-48442875D01*
X70976895Y-52172296D02*
X70958732Y-52070958D01*
X70157823Y-96733509D02*
X70242516Y-96668786D01*
X18644284Y-98889113D02*
X18550145Y-98854206D01*
X18975362Y-64398335D02*
X19063128Y-64447095D01*
X30100065Y-16001585D02*
X37700131Y-16001275D01*
X37700131Y-97120724D02*
X37700131Y-99120724D01*
X70873838Y-51774271D02*
X70835648Y-51678664D01*
X37700131Y-82893448D02*
X30100065Y-82892828D01*
X72766336Y-67351392D02*
X72799635Y-67448810D01*
X72858292Y-51420475D02*
X72883691Y-51518571D01*
X19245501Y-96978978D02*
X19339640Y-97013885D01*
X69863199Y-34431656D02*
X69769648Y-34388673D01*
X72997265Y-84782438D02*
X72999545Y-84889358D01*
X19339640Y-48341885D02*
X19435425Y-48371980D01*
X71855309Y-33441794D02*
X71925123Y-33515238D01*
X72829970Y-18873495D02*
X72858292Y-18972475D01*
X70988756Y-30404797D02*
X70997328Y-30298550D01*
X68959918Y-99121999D02*
X61900262Y-99121712D01*
X72906963Y-51618859D02*
X72927361Y-51718116D01*
X16009087Y-84610839D02*
X16017148Y-84509829D01*
X72255159Y-81196014D02*
X72193447Y-81280604D01*
X72692952Y-34712761D02*
X72731143Y-34808368D01*
X18180319Y-63517636D02*
X18224499Y-63607795D01*
X72846437Y-79962616D02*
X72815962Y-80064759D01*
X48300196Y-50449686D02*
X40700131Y-50450306D01*
X16637386Y-34044539D02*
X16693454Y-33960133D01*
X17201013Y-49316717D02*
X17129389Y-49245036D01*
X69477641Y-50512864D02*
X69377353Y-50489592D01*
X18181625Y-98690353D02*
X18091828Y-98643401D01*
X70157823Y-80509509D02*
X70242516Y-80444786D01*
X69628842Y-16054797D02*
X69730180Y-16072960D01*
X69589683Y-80797586D02*
X69690231Y-80762203D01*
X18445012Y-47718677D02*
X18510381Y-47794884D01*
X70474694Y-47777322D02*
X70544080Y-47696404D01*
X17071306Y-17264143D02*
X17140737Y-17191630D01*
X70989902Y-84722424D02*
X70976895Y-84620296D01*
X71709066Y-65747182D02*
X71782510Y-65816996D01*
X71855309Y-49665794D02*
X71925123Y-49739238D01*
X18006140Y-68495378D02*
X18000691Y-68595623D01*
X16532252Y-17992681D02*
X16583973Y-17905543D01*
X68968313Y-18000000D02*
X61900262Y-18000288D01*
X19426549Y-99081494D02*
X19327311Y-99066251D01*
X19347258Y-18103723D02*
X19252989Y-18138248D01*
X72626155Y-48108336D02*
X72580077Y-48204455D01*
X71922736Y-65380878D02*
X71849210Y-65458053D01*
X16040833Y-68085517D02*
X16056395Y-67986338D01*
X40700131Y-66672000D02*
X40700131Y-64672000D01*
X18388475Y-83698428D02*
X18330825Y-83780617D01*
X18000212Y-56060000D02*
X16000212Y-56060000D01*
X37700131Y-32223275D02*
X37700131Y-34222724D01*
X16693454Y-17736133D02*
X16751104Y-17653943D01*
X17129389Y-81693036D02*
X17060245Y-81620238D01*
X19830071Y-32218875D02*
X19930342Y-32224000D01*
X18032220Y-84520360D02*
X18016658Y-84619539D01*
X18388475Y-35026428D02*
X18330825Y-35108617D01*
X19347258Y-50551723D02*
X19252989Y-50586248D01*
X18180319Y-31069636D02*
X18224499Y-31159795D01*
X69954452Y-66927322D02*
X69863199Y-66879656D01*
X69863199Y-83103656D02*
X69769648Y-83060673D01*
X72920794Y-63431554D02*
X72898823Y-63533931D01*
X27100065Y-66672000D02*
X19940000Y-66672000D01*
X72999536Y-62696281D02*
X72996536Y-62802832D01*
X16143978Y-51368678D02*
X16172207Y-51271358D01*
X16009087Y-19714839D02*
X16017148Y-19613829D01*
X72481312Y-80839232D02*
X72428780Y-80929808D01*
X18224499Y-96055795D02*
X18273189Y-96143601D01*
X69978864Y-80625227D02*
X70069858Y-80569711D01*
X18658327Y-67177913D02*
X18585313Y-67246815D01*
X48300196Y-97121157D02*
X48300196Y-99121157D01*
X17060245Y-81620238D02*
X16992344Y-81545022D01*
X18016658Y-52171539D02*
X18006140Y-52271378D01*
X16637386Y-50268539D02*
X16693454Y-50184133D01*
X72306055Y-33994587D02*
X72362710Y-34080549D01*
X70976895Y-19724296D02*
X70958732Y-19622958D01*
X58900262Y-18000410D02*
X51300196Y-18000720D01*
X17664603Y-98376874D02*
X17582951Y-98316865D01*
X16038391Y-95690627D02*
X16025629Y-95590102D01*
X69383724Y-48404340D02*
X69487420Y-48379660D01*
X16862971Y-97614256D02*
X16801546Y-97534836D01*
X70989902Y-36050424D02*
X70976895Y-35948296D01*
X72517715Y-83015863D02*
X72565382Y-83107116D01*
X72898823Y-63533931D02*
X72873736Y-63637529D01*
X72991945Y-19777211D02*
X72997229Y-19884781D01*
X72940425Y-47102784D02*
X72920794Y-47207554D01*
X71922736Y-32932878D02*
X71849210Y-33010053D01*
X69326172Y-99103403D02*
X69152523Y-99115584D01*
X70988756Y-62852797D02*
X70997328Y-62746550D01*
X16025629Y-46918102D02*
X16015512Y-46818212D01*
X18851362Y-16163577D02*
X18948885Y-16136055D01*
X51300196Y-32222720D02*
X58900262Y-32222410D01*
X71775026Y-97979947D02*
X71697562Y-98053169D01*
X72416311Y-66614543D02*
X72468538Y-66703265D01*
X18383587Y-96311257D02*
X18445012Y-96390677D01*
X70069858Y-31897711D02*
X70157823Y-31837509D01*
X18273189Y-31247601D02*
X18326264Y-31332828D01*
X70974635Y-46734451D02*
X70988756Y-46628797D01*
X17201013Y-97988717D02*
X17129389Y-97917036D01*
X72248168Y-33911418D02*
X72306055Y-33994587D01*
X16628552Y-64838075D02*
X16575477Y-64752849D01*
X18450213Y-34947263D02*
X18388475Y-35026428D01*
X16197410Y-63929148D02*
X16167392Y-63833339D01*
X18105929Y-47107189D02*
X18140762Y-47201355D01*
X70935459Y-35746670D02*
X70907137Y-35647690D01*
X72428780Y-64705808D02*
X72372907Y-64796584D01*
X72815962Y-80064759D02*
X72783410Y-80164278D01*
X72062337Y-48998285D02*
X71992952Y-49079203D01*
X18982343Y-50717789D02*
X18896953Y-50770583D01*
X16071391Y-95889626D02*
X16053555Y-95789877D01*
X16693454Y-82632133D02*
X16751104Y-82549943D01*
X18550145Y-98854206D02*
X18456059Y-98816580D01*
X69674041Y-66798483D02*
X69576622Y-66765185D01*
X17071306Y-49712143D02*
X17140737Y-49639630D01*
X18078301Y-35653001D02*
X18052785Y-35750096D01*
X73000115Y-56060000D02*
X71000115Y-56060000D01*
X16475417Y-48353698D02*
X16428537Y-48263863D01*
X70368302Y-67231215D02*
X70291910Y-67162197D01*
X17003103Y-33563085D02*
X17071306Y-33488143D01*
X18330825Y-18884617D02*
X18277413Y-18969622D01*
X69377353Y-66713592D02*
X69276015Y-66695430D01*
X18652268Y-96608885D02*
X18728423Y-96674314D01*
X72193447Y-97504604D02*
X72128392Y-97589042D01*
X70069858Y-80569711D02*
X70157823Y-80509509D01*
X16095198Y-84012398D02*
X16118462Y-83913773D01*
X72984127Y-68346556D02*
X72991945Y-68449211D01*
X16009087Y-68386839D02*
X16017148Y-68285829D01*
X48300196Y-80893685D02*
X48300196Y-82894313D01*
X18388475Y-18802428D02*
X18330825Y-18884617D01*
X16053555Y-30893877D02*
X16038391Y-30794627D01*
X16428537Y-80711863D02*
X16384357Y-80621704D01*
X19730189Y-32208677D02*
X19830071Y-32218875D01*
X70323705Y-80375719D02*
X70401169Y-80302497D01*
X16348792Y-34575821D02*
X16391433Y-34483898D01*
X16143978Y-35144678D02*
X16172207Y-35047358D01*
X72062337Y-65222285D02*
X71992952Y-65303203D01*
X17437508Y-16918563D02*
X17516274Y-16854813D01*
X16003639Y-68487084D02*
X16009087Y-68386839D01*
X37700131Y-99120724D02*
X30100065Y-99120414D01*
X17285663Y-49499336D02*
X17342656Y-49448219D01*
X17060245Y-65396238D02*
X16992344Y-65321022D01*
X16575477Y-48528849D02*
X16524107Y-48441504D01*
X72999536Y-46472281D02*
X72996536Y-46578832D01*
X16992344Y-65321022D02*
X16926975Y-65244815D01*
X72062337Y-32774285D02*
X71992952Y-32855203D01*
X16811376Y-17572485D02*
X16873114Y-17493321D01*
X18005332Y-79064677D02*
X18015449Y-79164567D01*
X18982343Y-18269789D02*
X18896953Y-18322583D01*
X72187232Y-66276435D02*
X72248168Y-66359418D01*
X71709066Y-33299182D02*
X71782510Y-33368996D01*
X19540433Y-66721207D02*
X19443155Y-66746017D01*
X70997719Y-36153079D02*
X70989902Y-36050424D01*
X70575180Y-35012195D02*
X70510119Y-34932405D01*
X72255159Y-48748014D02*
X72193447Y-48832604D01*
X19930342Y-48448000D02*
X27100065Y-48448584D01*
X19738133Y-66686513D02*
X19638843Y-66701355D01*
X72940425Y-30878784D02*
X72920794Y-30983554D01*
X16992344Y-49097022D02*
X16926975Y-49020815D01*
X70401169Y-80302497D02*
X70474694Y-80225322D01*
X17595884Y-16793650D02*
X17677777Y-16733972D01*
X71111504Y-98501041D02*
X71020509Y-98556557D01*
X70069858Y-96793711D02*
X70157823Y-96733509D01*
X18383587Y-63863257D02*
X18445012Y-63942677D01*
X18075911Y-30787379D02*
X18105929Y-30883189D01*
X18016658Y-68395539D02*
X18006140Y-68495378D01*
X18000212Y-72284000D02*
X16000212Y-72284000D01*
X18835941Y-98952021D02*
X18740155Y-98921926D01*
X69674041Y-83022483D02*
X69576622Y-82989185D01*
X17140737Y-65863630D02*
X17212648Y-65792239D01*
X18108702Y-35557322D02*
X18078301Y-35653001D01*
X19830071Y-64666875D02*
X19930342Y-64672000D01*
X69383724Y-80852340D02*
X69487420Y-80827660D01*
X72517715Y-34343863D02*
X72565382Y-34435116D01*
X70863664Y-47145371D02*
X70899443Y-47044962D01*
X18075911Y-79459379D02*
X18105929Y-79555189D01*
X18183835Y-19147194D02*
X18143910Y-19239306D01*
X18016658Y-35947539D02*
X18006140Y-36047378D01*
X72468538Y-66703265D02*
X72517715Y-66791863D01*
X72128392Y-65141042D02*
X72062337Y-65222285D01*
X17425072Y-98191310D02*
X17348918Y-98125881D01*
X17201013Y-33092717D02*
X17129389Y-33021036D01*
X70744997Y-19045861D02*
X70692769Y-18957140D01*
X17071306Y-82160143D02*
X17140737Y-82087630D01*
X16235730Y-18631914D02*
X16270938Y-18537898D01*
X16801546Y-81310836D02*
X16741603Y-81229136D01*
X19252989Y-83034248D02*
X19160590Y-83073503D01*
X72997188Y-36106991D02*
X72999468Y-36205911D01*
X17003103Y-17339085D02*
X17071306Y-17264143D01*
X18140762Y-63425355D02*
X18180319Y-63517636D01*
X16017148Y-84509829D02*
X16027666Y-84409989D01*
X18140762Y-30977355D02*
X18180319Y-31069636D01*
X72517715Y-50567863D02*
X72565382Y-50659116D01*
X18814347Y-34603635D02*
X18734737Y-34664797D01*
X18228374Y-83953222D02*
X18183835Y-84043194D01*
X72990850Y-62907385D02*
X72982279Y-63013632D01*
X18228374Y-19057222D02*
X18183835Y-19147194D01*
X16095198Y-19116398D02*
X16118462Y-19017773D01*
X72999509Y-19987702D02*
X73000115Y-23612000D01*
X70474694Y-80225322D02*
X70544080Y-80144404D01*
X16074633Y-84110661D02*
X16095198Y-84012398D01*
X69173170Y-97109264D02*
X69278878Y-97095559D01*
X16167392Y-96281339D02*
X16139556Y-96183906D01*
X18734737Y-50888797D02*
X18658327Y-50953913D01*
X18652268Y-80384885D02*
X18728423Y-80450314D01*
X72783410Y-63940278D02*
X72747632Y-64040687D01*
X18326264Y-31332828D02*
X18383587Y-31415257D01*
X18032220Y-35848360D02*
X18016658Y-35947539D01*
X70835648Y-84126664D02*
X70792664Y-84033114D01*
X16009087Y-35938839D02*
X16017148Y-35837829D01*
X19339640Y-32117885D02*
X19435425Y-32147980D01*
X72783410Y-96388278D02*
X72747632Y-96488687D01*
X18075911Y-47011379D02*
X18105929Y-47107189D01*
X58900262Y-34223589D02*
X51300196Y-34223279D01*
X71849210Y-97906053D02*
X71775026Y-97979947D01*
X16693454Y-50184133D02*
X16751104Y-50101943D01*
X70669682Y-79972239D02*
X70725555Y-79881463D01*
X19532612Y-80845185D02*
X19630951Y-80865434D01*
X70899443Y-63268962D02*
X70929917Y-63166819D01*
X69730180Y-16072960D02*
X69829437Y-16093357D01*
X19327311Y-99066251D02*
X19227576Y-99048334D01*
X70835648Y-51678664D02*
X70792664Y-51585114D01*
X71925123Y-65963238D02*
X71994141Y-66039630D01*
X51300196Y-80893440D02*
X58900262Y-80892820D01*
X72372907Y-64796584D02*
X72315706Y-64884287D01*
X19940000Y-82892000D02*
X19738133Y-82910513D01*
X16575477Y-32304849D02*
X16524107Y-32217504D01*
X70669682Y-31300239D02*
X70725555Y-31209463D01*
X16751104Y-50101943D02*
X16811376Y-50020485D01*
X70976895Y-35948296D02*
X70958732Y-35846958D01*
X16015512Y-46818212D02*
X16007859Y-46717170D01*
X69954452Y-18255322D02*
X69863199Y-18207656D01*
X18015449Y-95388567D02*
X18030613Y-95487818D01*
X72940425Y-63326784D02*
X72920794Y-63431554D01*
X18075911Y-63235379D02*
X18105929Y-63331189D01*
X16053555Y-47117877D02*
X16038391Y-47018627D01*
X70157823Y-64285509D02*
X70242516Y-64220786D01*
X16143978Y-18920678D02*
X16172207Y-18823358D01*
X69152523Y-99115584D02*
X69045633Y-99120165D01*
X15000000Y-100122000D02*
X74000328Y-100122000D01*
X18975362Y-80622335D02*
X19063128Y-80671095D01*
X16167392Y-63833339D02*
X16139556Y-63735906D01*
X18032220Y-52072360D02*
X18016658Y-52171539D01*
X70368302Y-34783215D02*
X70291910Y-34714197D01*
X18975362Y-31950335D02*
X19063128Y-31999095D01*
X51300196Y-82894558D02*
X51300196Y-80893440D01*
X18515882Y-18647328D02*
X18450213Y-18723263D01*
X18015449Y-79164567D02*
X18030613Y-79263818D01*
X16264979Y-80343212D02*
X16230146Y-80249046D01*
X73000115Y-88507000D02*
X71000115Y-88507000D01*
X17140737Y-33415630D02*
X17212648Y-33344239D01*
X16873114Y-17493321D02*
X16937434Y-17415021D01*
X17003103Y-82235085D02*
X17071306Y-82160143D01*
X69487420Y-80827660D02*
X69589683Y-80797586D01*
X18000212Y-39837000D02*
X16000212Y-39837000D01*
X72982279Y-63013632D02*
X72971129Y-63117745D01*
X18728423Y-31778314D02*
X18807794Y-31839802D01*
X19339640Y-97013885D02*
X19435425Y-97043980D01*
X70441101Y-51080013D02*
X70368302Y-51007215D01*
X18755465Y-16193283D02*
X18851362Y-16163577D01*
X71992952Y-97751203D02*
X71922736Y-97828878D01*
X70958732Y-19622958D02*
X70935459Y-19522670D01*
X74000328Y-15000000D02*
X15000000Y-15000000D01*
X18470956Y-16297480D02*
X18565193Y-16260234D01*
X70792664Y-67809114D02*
X70744997Y-67717861D01*
X71000000Y-52482000D02*
X70997719Y-52377079D01*
X72428780Y-32257808D02*
X72372907Y-32348584D01*
X18450213Y-67395263D02*
X18388475Y-67474428D01*
X70725555Y-96105463D02*
X70776601Y-96011888D01*
X58900262Y-64672000D02*
X58900262Y-66672000D01*
X19540433Y-18049207D02*
X19443155Y-18074017D01*
X70873838Y-84222271D02*
X70835648Y-84126664D01*
X69278878Y-64647559D02*
X69383724Y-64628340D01*
X70544080Y-31472404D02*
X70609135Y-31387966D01*
X19930342Y-32224000D02*
X27100065Y-32223707D01*
X16264979Y-96567212D02*
X16230146Y-96473046D01*
X18180319Y-79741636D02*
X18224499Y-79831795D01*
X72747632Y-31592687D02*
X72709916Y-31690366D01*
X17342656Y-81896219D02*
X17273756Y-81833920D01*
X72846437Y-96186616D02*
X72815962Y-96288759D01*
X16532252Y-82888681D02*
X16583973Y-82801543D01*
X19630951Y-97089434D02*
X19730189Y-97104677D01*
X19630951Y-32193434D02*
X19730189Y-32208677D01*
X70725555Y-79881463D02*
X70776601Y-79787888D01*
X18982343Y-34493789D02*
X18896953Y-34546583D01*
X72125206Y-17524305D02*
X72187232Y-17604435D01*
X18450213Y-51171263D02*
X18388475Y-51250428D01*
X70253592Y-98908177D02*
X70153946Y-98940338D01*
X70510119Y-51156405D02*
X70441101Y-51080013D01*
X69674041Y-50574483D02*
X69576622Y-50541185D01*
X16628552Y-32390075D02*
X16575477Y-32304849D01*
X18005332Y-30392677D02*
X18015449Y-30492567D01*
X71775026Y-81755947D02*
X71697562Y-81829169D01*
X70958732Y-84518958D02*
X70935459Y-84418670D01*
X48300196Y-82894313D02*
X40700131Y-82893693D01*
X69690231Y-64538203D02*
X69788790Y-64497605D01*
X27100065Y-18001707D02*
X19940000Y-18002000D01*
X16628552Y-81062075D02*
X16575477Y-80976849D01*
X16040833Y-84309517D02*
X16056395Y-84210338D01*
X16391433Y-83155898D02*
X16435971Y-83065926D01*
X16741603Y-97453136D02*
X16684280Y-97370707D01*
X70212120Y-67097138D02*
X70129137Y-67036203D01*
X72362710Y-17856549D02*
X72416311Y-17942543D01*
X72128392Y-81365042D02*
X72062337Y-81446285D01*
X37700131Y-64672000D02*
X37700131Y-66672000D01*
X16007859Y-79165170D02*
X16002814Y-79064895D01*
X72255159Y-64972014D02*
X72193447Y-65056604D01*
X30100065Y-97120414D02*
X37700131Y-97120724D01*
X73000212Y-59060000D02*
X72999536Y-62696281D01*
X37700131Y-34222724D02*
X30100065Y-34222414D01*
X70935459Y-68194670D02*
X70907137Y-68095690D01*
X72990850Y-79131385D02*
X72982279Y-79237632D01*
X16684280Y-48698707D02*
X16628552Y-48614075D01*
X70474694Y-31553322D02*
X70544080Y-31472404D01*
X72997229Y-19884781D02*
X72999509Y-19987702D01*
X70988756Y-79076797D02*
X70997328Y-78970550D01*
X69589683Y-48349586D02*
X69690231Y-48314203D01*
X71697562Y-98053169D02*
X71619611Y-98123079D01*
X16348792Y-83247821D02*
X16391433Y-83155898D01*
X16751104Y-82549943D02*
X16811376Y-82468485D01*
X17003103Y-49787085D02*
X17071306Y-49712143D01*
X70873838Y-19326271D02*
X70835648Y-19230664D01*
X70997719Y-19929079D02*
X70989902Y-19826424D01*
X71994141Y-33591630D02*
X72060146Y-33668516D01*
X27100065Y-64672000D02*
X27100065Y-66672000D01*
X17201013Y-81764717D02*
X17129389Y-81693036D01*
X70792664Y-51585114D02*
X70744997Y-51493861D01*
X72883691Y-51518571D02*
X72906963Y-51618859D01*
X70669682Y-96196239D02*
X70725555Y-96105463D01*
X71000000Y-84932000D02*
X70997719Y-84825079D01*
X16741603Y-81229136D02*
X16684280Y-81146707D01*
X16038391Y-79466627D02*
X16025629Y-79366102D01*
X18515882Y-83543328D02*
X18450213Y-83619263D01*
X17582951Y-98316865D02*
X17503580Y-98255377D01*
X18224499Y-63607795D02*
X18273189Y-63695601D01*
X69045633Y-99120165D02*
X68959918Y-99121999D01*
X70441101Y-83528013D02*
X70368302Y-83455215D01*
X18105929Y-95779189D02*
X18140762Y-95873355D01*
X72668931Y-31788765D02*
X72626155Y-31884336D01*
X18108702Y-51781322D02*
X18078301Y-51877001D01*
X16926975Y-49020815D02*
X16862971Y-48942256D01*
X72829970Y-51321495D02*
X72858292Y-51420475D01*
X72610008Y-34526092D02*
X72652992Y-34619642D01*
X19153252Y-96939347D02*
X19245501Y-96978978D01*
X70441101Y-18632013D02*
X70368302Y-18559215D01*
X19070297Y-50669387D02*
X18982343Y-50717789D01*
X70955004Y-46839220D02*
X70974635Y-46734451D01*
X69071232Y-34226607D02*
X68968313Y-34224000D01*
X72193447Y-48832604D02*
X72128392Y-48917042D01*
X19838046Y-18004720D02*
X19738133Y-18014513D01*
X72927361Y-35494116D02*
X72945524Y-35595454D01*
X70935459Y-19522670D02*
X70907137Y-19423690D01*
X70958732Y-35846958D02*
X70935459Y-35746670D01*
X18052785Y-35750096D02*
X18032220Y-35848360D01*
X18000691Y-68595623D02*
X18000212Y-72284000D01*
X17677777Y-16733972D02*
X17760383Y-16676920D01*
X72997247Y-52333625D02*
X72999527Y-52438546D01*
X19638843Y-82925355D02*
X19540433Y-82945207D01*
X19630951Y-48417434D02*
X19730189Y-48432677D01*
X37700131Y-50450551D02*
X30100065Y-50451171D01*
X68960000Y-48452000D02*
X69173170Y-48437264D01*
X16235730Y-67303914D02*
X16270938Y-67209898D01*
X70997328Y-62746550D02*
X71000328Y-62640000D01*
X72362710Y-82752549D02*
X72416311Y-82838543D01*
X71624242Y-65670926D02*
X71709066Y-65747182D01*
X19930342Y-97120000D02*
X27100065Y-97120292D01*
X72692952Y-83384761D02*
X72731143Y-83480368D01*
X71000000Y-20032000D02*
X70997719Y-19929079D01*
X69929725Y-16116628D02*
X70027821Y-16142027D01*
X16926975Y-97692815D02*
X16862971Y-97614256D01*
X15000000Y-15000000D02*
X15000000Y-100122000D01*
X72982279Y-46789632D02*
X72971129Y-46893745D01*
X72858292Y-83868475D02*
X72883691Y-83966571D01*
X69066890Y-80893419D02*
X69173170Y-80885264D01*
X16091563Y-47315981D02*
X16071391Y-47217626D01*
X69071232Y-18002607D02*
X68968313Y-18000000D01*
X69325740Y-16016197D02*
X69426551Y-16026448D01*
X16118462Y-83913773D02*
X16143978Y-83816678D01*
X69863199Y-50655656D02*
X69769648Y-50612673D01*
X16384357Y-64397704D02*
X16342087Y-64305610D01*
X17212648Y-33344239D02*
X17285663Y-33275336D01*
X72517715Y-66791863D02*
X72565382Y-66883116D01*
X69885089Y-48227904D02*
X69978864Y-48177227D01*
X16384357Y-96845704D02*
X16342087Y-96753610D01*
X72362710Y-50304549D02*
X72416311Y-50390543D01*
X17516274Y-16854813D02*
X17595884Y-16793650D01*
X58900262Y-97121589D02*
X58900262Y-99121589D01*
X72858292Y-18972475D02*
X72883691Y-19070571D01*
X69377353Y-18041592D02*
X69276015Y-18023430D01*
X18807794Y-80511802D02*
X18890177Y-80569192D01*
X18105929Y-30883189D02*
X18140762Y-30977355D01*
X16172207Y-83719358D02*
X16202608Y-83623679D01*
X19443155Y-66746017D02*
X19347258Y-66775723D01*
X48300196Y-66672000D02*
X40700131Y-66672000D01*
X19838046Y-66676720D02*
X19738133Y-66686513D01*
X70575180Y-67460195D02*
X70510119Y-67380405D01*
X69690231Y-32090203D02*
X69788790Y-32049605D01*
X70835952Y-98659410D02*
X70742563Y-98706763D01*
X16862971Y-48942256D02*
X16801546Y-48862836D01*
X72709916Y-47914366D02*
X72668931Y-48012765D01*
X70544080Y-96368404D02*
X70609135Y-96283966D01*
X16862971Y-32718256D02*
X16801546Y-32638836D01*
X73000212Y-26612000D02*
X72999536Y-30248281D01*
X37700131Y-18001275D02*
X30100065Y-18001585D01*
X74000328Y-100122000D02*
X74000328Y-15000000D01*
X16926975Y-65244815D02*
X16862971Y-65166256D01*
X71632673Y-17006165D02*
X71709066Y-17075182D01*
X16000295Y-78970024D02*
X16000115Y-75284000D01*
X16053555Y-79565877D02*
X16038391Y-79466627D01*
X72873736Y-79861529D02*
X72846437Y-79962616D01*
X18224499Y-79831795D02*
X18273189Y-79919601D01*
X19046163Y-16111245D02*
X19144954Y-16088697D01*
X69788790Y-80721605D02*
X69885089Y-80675904D01*
X70291910Y-67162197D02*
X70212120Y-67097138D01*
X37700131Y-48449449D02*
X37700131Y-50450551D01*
X72829970Y-83769495D02*
X72858292Y-83868475D01*
X72829970Y-67545495D02*
X72858292Y-67644475D01*
X16264979Y-47895212D02*
X16230146Y-47801046D01*
X69377353Y-34265592D02*
X69276015Y-34247430D01*
X72193447Y-65056604D02*
X72128392Y-65141042D01*
X19738133Y-50462513D02*
X19638843Y-50477355D01*
X70291910Y-34714197D02*
X70212120Y-34649138D01*
X16308867Y-50891933D02*
X16348792Y-50799821D01*
X16009087Y-52162839D02*
X16017148Y-52061829D01*
X70976895Y-68396296D02*
X70958732Y-68294958D01*
X71992952Y-32855203D02*
X71922736Y-32932878D01*
X16428537Y-48263863D02*
X16384357Y-48173704D01*
X70863664Y-63369371D02*
X70899443Y-63268962D01*
X16475417Y-64577698D02*
X16428537Y-64487863D01*
X16071391Y-47217626D02*
X16053555Y-47117877D01*
X69674041Y-18126483D02*
X69576622Y-18093185D01*
X19727982Y-99112267D02*
X19626946Y-99104533D01*
X18579525Y-96539682D02*
X18652268Y-96608885D01*
X18078301Y-51877001D02*
X18052785Y-51974096D01*
X69863199Y-66879656D02*
X69769648Y-66836673D01*
X70907137Y-68095690D02*
X70873838Y-67998271D01*
X18277413Y-35193622D02*
X18228374Y-35281222D01*
X19252989Y-50586248D02*
X19160590Y-50625503D01*
X72626155Y-96780336D02*
X72580077Y-96876455D01*
X70955004Y-79287220D02*
X70974635Y-79182451D01*
X18445012Y-96390677D02*
X18510381Y-96466884D01*
X71922736Y-81604878D02*
X71849210Y-81682053D01*
X18658327Y-50953913D02*
X18585313Y-51022815D01*
X16741603Y-32557136D02*
X16684280Y-32474707D01*
X17212648Y-82016239D02*
X17285663Y-81947336D01*
X16139556Y-47511906D02*
X16114429Y-47414699D01*
X18015449Y-46716567D02*
X18030613Y-46815818D01*
X72991945Y-84673211D02*
X72997265Y-84782438D01*
X17273756Y-81833920D02*
X17201013Y-81764717D01*
X72416311Y-34166543D02*
X72468538Y-34255265D01*
X16000296Y-30298136D02*
X16000115Y-26612000D01*
X72873736Y-96085529D02*
X72846437Y-96186616D01*
X71775026Y-33083947D02*
X71697562Y-33157169D01*
X16230146Y-47801046D02*
X16197410Y-47705148D01*
X69978864Y-64401227D02*
X70069858Y-64345711D01*
X72920794Y-30983554D02*
X72898823Y-31085931D01*
X72580077Y-31980455D02*
X72532357Y-32073656D01*
X72372907Y-97244584D02*
X72315706Y-97332287D01*
X16435971Y-34393926D02*
X16483213Y-34304281D01*
X17071306Y-65936143D02*
X17140737Y-65863630D01*
X16302530Y-47989329D02*
X16264979Y-47895212D01*
X16937434Y-66087021D02*
X17003103Y-66011085D01*
X69276015Y-82919430D02*
X69173888Y-82906424D01*
X16937434Y-82311021D02*
X17003103Y-82235085D01*
X16172207Y-51271358D02*
X16202608Y-51175679D01*
X16384357Y-80621704D02*
X16342087Y-80529610D01*
X16637386Y-66492539D02*
X16693454Y-66408133D01*
X71849210Y-33010053D02*
X71775026Y-33083947D01*
X19930342Y-80896000D02*
X27100065Y-80895415D01*
X18078301Y-68101001D02*
X18052785Y-68198096D01*
X19347258Y-82999723D02*
X19252989Y-83034248D01*
X16628552Y-97286075D02*
X16575477Y-97200849D01*
X71697562Y-81829169D02*
X71624242Y-81894926D01*
X69383724Y-32180340D02*
X69487420Y-32155660D01*
X19252989Y-66810248D02*
X19160590Y-66849503D01*
X72973876Y-35797744D02*
X72984127Y-35898556D01*
X16172207Y-67495358D02*
X16202608Y-67399679D01*
X70368302Y-18559215D02*
X70291910Y-18490197D01*
X71775026Y-65531947D02*
X71697562Y-65605169D01*
X70043174Y-50755549D02*
X69954452Y-50703322D01*
X71538422Y-98192146D02*
X71456919Y-98257881D01*
X69173888Y-50458424D02*
X69071232Y-50450607D01*
X71000328Y-78864000D02*
X71000212Y-75284000D01*
X69278878Y-97095559D02*
X69383724Y-97076340D01*
X72060146Y-49892516D02*
X72125206Y-49972305D01*
X72927361Y-67942116D02*
X72945524Y-68043454D01*
X16575477Y-97200849D02*
X16524107Y-97113504D01*
X40700131Y-48449694D02*
X48300196Y-48450314D01*
X19527064Y-99094336D02*
X19426549Y-99081494D01*
X18000212Y-88507000D02*
X16000212Y-88507000D01*
X19245501Y-48306978D02*
X19339640Y-48341885D01*
X16038391Y-47018627D02*
X16025629Y-46918102D01*
X70550526Y-98794864D02*
X70451967Y-98835461D01*
X18000691Y-84819623D02*
X18000212Y-88507000D01*
X72372907Y-81020584D02*
X72315706Y-81108287D01*
X71922736Y-97828878D02*
X71849210Y-97906053D01*
X70575180Y-83684195D02*
X70510119Y-83604405D01*
X19343170Y-16051331D02*
X19442459Y-16036490D01*
X16015512Y-79266212D02*
X16007859Y-79165170D01*
X71782510Y-82040996D02*
X71855309Y-82113794D01*
X18326264Y-47556828D02*
X18383587Y-47639257D01*
X19070297Y-34445387D02*
X18982343Y-34493789D01*
X16342087Y-96753610D02*
X16302530Y-96661329D01*
X70997328Y-46522550D02*
X71000328Y-46416000D01*
X69769648Y-18164673D02*
X69674041Y-18126483D01*
X18271749Y-98734605D02*
X18181625Y-98690353D01*
X72468538Y-50479265D02*
X72517715Y-50567863D01*
X19838046Y-34228720D02*
X19738133Y-34238513D01*
X18734737Y-67112797D02*
X18658327Y-67177913D01*
X16270938Y-34761898D02*
X16308867Y-34667933D01*
X72984127Y-52122556D02*
X72991945Y-52225211D01*
X72747632Y-96488687D02*
X72709916Y-96586366D01*
X71395866Y-16813076D02*
X71475997Y-16875101D01*
X72652992Y-67067642D02*
X72692952Y-67160761D01*
X72973876Y-84469744D02*
X72984127Y-84570556D01*
X72248168Y-82583418D02*
X72306055Y-82666587D01*
X18000691Y-52371623D02*
X18000212Y-56060000D01*
X18018094Y-16517584D02*
X18106048Y-16469182D01*
X19738133Y-18014513D02*
X19638843Y-18029355D01*
X71000115Y-88507000D02*
X71000000Y-84932000D01*
X19070297Y-66893387D02*
X18982343Y-66941789D01*
X61900262Y-97121712D02*
X68960000Y-97122000D01*
X16308867Y-67115933D02*
X16348792Y-67023821D01*
X70873838Y-35550271D02*
X70835648Y-35454664D01*
X18228374Y-67729222D02*
X18183835Y-67819194D01*
X70969035Y-16531773D02*
X71057757Y-16584000D01*
X58900262Y-82895178D02*
X51300196Y-82894558D01*
X18579525Y-80315682D02*
X18652268Y-80384885D01*
X72062337Y-97670285D02*
X71992952Y-97751203D01*
X18000115Y-42837000D02*
X18000287Y-46516401D01*
X18378556Y-16336735D02*
X18470956Y-16297480D01*
X18140762Y-79649355D02*
X18180319Y-79741636D01*
X19630951Y-64641434D02*
X19730189Y-64656677D01*
X16524107Y-80889504D02*
X16475417Y-80801698D01*
X18807794Y-48063802D02*
X18890177Y-48121192D01*
X18445012Y-80166677D02*
X18510381Y-80242884D01*
X72306055Y-50218587D02*
X72362710Y-50304549D01*
X27100065Y-82892584D02*
X19940000Y-82892000D01*
X16071391Y-63441626D02*
X16053555Y-63341877D01*
X18510381Y-47794884D02*
X18579525Y-47867682D01*
X27100065Y-50451415D02*
X19838046Y-50452720D01*
X72898823Y-79757931D02*
X72873736Y-79861529D01*
X72945524Y-84267454D02*
X72960869Y-84367617D01*
X69276015Y-66695430D02*
X69173888Y-66682424D01*
X16483213Y-66752281D02*
X16532252Y-66664681D01*
X70669682Y-47524239D02*
X70725555Y-47433463D01*
X16583973Y-82801543D02*
X16637386Y-82716539D01*
X16992344Y-32873022D02*
X16926975Y-32796815D01*
X70604656Y-16347323D02*
X70698207Y-16390306D01*
X17129389Y-49245036D02*
X17060245Y-49172238D01*
X19144954Y-16088697D02*
X19243364Y-16068846D01*
X72580077Y-48204455D02*
X72532357Y-48297656D01*
X72468538Y-82927265D02*
X72517715Y-83015863D01*
X18004061Y-98594641D02*
X17916757Y-98543201D01*
X19339640Y-64565885D02*
X19435425Y-64595980D01*
X72906963Y-67842859D02*
X72927361Y-67942116D01*
X72829970Y-35097495D02*
X72858292Y-35196475D01*
X16003639Y-19815084D02*
X16009087Y-19714839D01*
X18180319Y-47293636D02*
X18224499Y-47383795D01*
X16801546Y-65086836D02*
X16741603Y-65005136D01*
X61900262Y-32222287D02*
X69066890Y-32221419D01*
X70929917Y-79390819D02*
X70955004Y-79287220D01*
X16114429Y-31190699D02*
X16091563Y-31091981D01*
X16015512Y-63042212D02*
X16007859Y-62941170D01*
X70744997Y-51493861D02*
X70692769Y-51405140D01*
X18273189Y-79919601D02*
X18326264Y-80004828D01*
X72997209Y-68555904D02*
X72999489Y-68656824D01*
X17140737Y-82087630D02*
X17212648Y-82016239D01*
X16583973Y-17905543D02*
X16637386Y-17820539D01*
X18030613Y-95487818D02*
X18050784Y-95586173D01*
X18807794Y-96735802D02*
X18890177Y-96793192D01*
X71199431Y-98444185D02*
X71111504Y-98501041D01*
X72517715Y-18119863D02*
X72565382Y-18211116D01*
X18108702Y-84229322D02*
X18078301Y-84325001D01*
X70575180Y-51236195D02*
X70510119Y-51156405D01*
X18330825Y-67556617D02*
X18277413Y-67641622D01*
X72362710Y-34080549D02*
X72416311Y-34166543D01*
X17916757Y-98543201D02*
X17831573Y-98490058D01*
X72565382Y-18211116D02*
X72610008Y-18302092D01*
X19153252Y-32043347D02*
X19245501Y-32082978D01*
X16384357Y-31949704D02*
X16342087Y-31857610D01*
X16002814Y-30392895D02*
X16000296Y-30298136D01*
X72991945Y-68449211D02*
X72997209Y-68555904D01*
X16095198Y-67788398D02*
X16118462Y-67689773D01*
X72193447Y-32608604D02*
X72128392Y-32693042D01*
X19540433Y-82945207D02*
X19443155Y-82970017D01*
X19828253Y-99117392D02*
X19727982Y-99112267D01*
X69978864Y-48177227D02*
X70069858Y-48121711D01*
X16811376Y-33796485D02*
X16873114Y-33717321D01*
X19830071Y-48442875D02*
X19930342Y-48448000D01*
X71000115Y-39837000D02*
X71000000Y-36252000D01*
X71000000Y-68702000D02*
X70997719Y-68601079D01*
X68968313Y-66672000D02*
X61900262Y-66672000D01*
X17140737Y-49639630D02*
X17212648Y-49568239D01*
X72945524Y-19371454D02*
X72960869Y-19471617D01*
X18277413Y-67641622D02*
X18228374Y-67729222D01*
X18330825Y-83780617D02*
X18277413Y-83865622D01*
X18383587Y-31415257D02*
X18445012Y-31494677D01*
X72883691Y-19070571D02*
X72906963Y-19170859D01*
X72626155Y-80556336D02*
X72580077Y-80652455D01*
X71456919Y-98257881D02*
X71372226Y-98322604D01*
X17746986Y-98434263D02*
X17664603Y-98376874D01*
X70544080Y-80144404D02*
X70609135Y-80059966D01*
X72747632Y-47816687D02*
X72709916Y-47914366D01*
X16391433Y-18259898D02*
X16435971Y-18169926D01*
X17060245Y-32948238D02*
X16992344Y-32873022D01*
X70401169Y-64078497D02*
X70474694Y-64001322D01*
X58900262Y-48451179D02*
X58900262Y-49450000D01*
X73000115Y-72284000D02*
X71000115Y-72284000D01*
X68960000Y-64672000D02*
X69066890Y-64669419D01*
X72783410Y-47716278D02*
X72747632Y-47816687D01*
X18814347Y-50827635D02*
X18734737Y-50888797D01*
X72846437Y-31290616D02*
X72815962Y-31392759D01*
X69536035Y-99078957D02*
X69430327Y-99092663D01*
X72709916Y-80362366D02*
X72668931Y-80460765D01*
X16230146Y-96473046D02*
X16197410Y-96377148D01*
X18143910Y-19239306D02*
X18108702Y-19333322D01*
X18143910Y-84135306D02*
X18108702Y-84229322D01*
X18052785Y-19526096D02*
X18032220Y-19624360D01*
X18050784Y-30690173D02*
X18075911Y-30787379D01*
X61900262Y-80892575D02*
X68960000Y-80892000D01*
X72815962Y-96288759D02*
X72783410Y-96388278D01*
X18890177Y-64345192D02*
X18975362Y-64398335D01*
X17760383Y-16676920D02*
X17845194Y-16621466D01*
X18585313Y-18574815D02*
X18515882Y-18647328D01*
X51300196Y-99121279D02*
X51300196Y-97121279D01*
X18228374Y-51505222D02*
X18183835Y-51595194D01*
X16000705Y-36140372D02*
X16003639Y-36039084D01*
X71922736Y-49156878D02*
X71849210Y-49234053D01*
X18106048Y-16469182D02*
X18196034Y-16422592D01*
X72982279Y-30565632D02*
X72971129Y-30669745D01*
X19939918Y-16002000D02*
X27100065Y-16001707D01*
X19443155Y-82970017D02*
X19347258Y-82999723D01*
X19435425Y-48371980D02*
X19532612Y-48397185D01*
X19160590Y-66849503D02*
X19070297Y-66893387D01*
X18105929Y-79555189D02*
X18140762Y-79649355D01*
X71000212Y-42837000D02*
X73000212Y-42837000D01*
X68968313Y-82896000D02*
X61900262Y-82895423D01*
X72971129Y-95565745D02*
X72957008Y-95671398D01*
X72626155Y-64332336D02*
X72580077Y-64428455D01*
X72128392Y-32693042D02*
X72062337Y-32774285D01*
X70988756Y-46628797D02*
X70997328Y-46522550D01*
X16143978Y-67592678D02*
X16172207Y-67495358D01*
X69173170Y-64661264D02*
X69278878Y-64647559D01*
X71000328Y-62640000D02*
X71000212Y-59060000D01*
X70291910Y-83386197D02*
X70212120Y-83321138D01*
X16091563Y-63539981D02*
X16071391Y-63441626D01*
X18000115Y-91507000D02*
X18000287Y-95188401D01*
X72799635Y-83672810D02*
X72829970Y-83769495D01*
X69278878Y-32199559D02*
X69383724Y-32180340D01*
X69071232Y-82898607D02*
X68968313Y-82896000D01*
X72984127Y-84570556D02*
X72991945Y-84673211D01*
X72957008Y-95671398D02*
X72940425Y-95774784D01*
X71000328Y-30192000D02*
X71000212Y-26612000D01*
X17212648Y-65792239D02*
X17285663Y-65723336D01*
X71312883Y-16752141D02*
X71395866Y-16813076D01*
X69690231Y-80762203D02*
X69788790Y-80721605D01*
X70212120Y-18425138D02*
X70129137Y-18364203D01*
X70323705Y-31703719D02*
X70401169Y-31630497D01*
X72973876Y-68245744D02*
X72984127Y-68346556D01*
X70744997Y-35269861D02*
X70692769Y-35181140D01*
X70776601Y-31115888D02*
X70822679Y-31019769D01*
X16002814Y-79064895D02*
X16000295Y-78970024D01*
X19063128Y-64447095D02*
X19153252Y-64491347D01*
X72428780Y-80929808D02*
X72372907Y-81020584D01*
X18000287Y-46516401D02*
X18005332Y-46616677D01*
X16264979Y-31671212D02*
X16230146Y-31577046D01*
X58900262Y-80892820D02*
X58900262Y-82895178D01*
X40700131Y-33223000D02*
X40700131Y-32223152D01*
X16302530Y-96661329D02*
X16264979Y-96567212D01*
X69426551Y-16026448D02*
X69528679Y-16039454D01*
X70997719Y-68601079D02*
X70989902Y-68498424D01*
X72883691Y-67742571D02*
X72906963Y-67842859D01*
X70907137Y-84319690D02*
X70873838Y-84222271D01*
X61900262Y-50448576D02*
X61900262Y-48451424D01*
X18975362Y-48174335D02*
X19063128Y-48223095D01*
X71000115Y-72284000D02*
X71000000Y-68702000D01*
X71000000Y-36252000D02*
X70997719Y-36153079D01*
X18050784Y-46914173D02*
X18075911Y-47011379D01*
X18734737Y-83336797D02*
X18658327Y-83401913D01*
X72731143Y-34808368D02*
X72766336Y-34903392D01*
X69173888Y-34234424D02*
X69071232Y-34226607D01*
X70955004Y-63063220D02*
X70974635Y-62958451D01*
X69276015Y-50471430D02*
X69173888Y-50458424D01*
X16000705Y-19916372D02*
X16003639Y-19815084D01*
X16056395Y-19314338D02*
X16074633Y-19214661D01*
X72626155Y-31884336D02*
X72580077Y-31980455D01*
X70976895Y-84620296D02*
X70958732Y-84518958D01*
X71849210Y-65458053D02*
X71775026Y-65531947D01*
X17140737Y-17191630D02*
X17212648Y-17120239D01*
X70997328Y-78970550D02*
X71000328Y-78864000D01*
X16264979Y-64119212D02*
X16230146Y-64025046D01*
X72610008Y-50750092D02*
X72652992Y-50843642D01*
X16000295Y-46521916D02*
X16000115Y-42837000D01*
X18224499Y-47383795D02*
X18273189Y-47471601D01*
X68960000Y-80892000D02*
X69066890Y-80893419D01*
X16391433Y-66931898D02*
X16435971Y-66841926D01*
X19153252Y-80715347D02*
X19245501Y-80754978D01*
X19930342Y-64672000D02*
X27100065Y-64672000D01*
X16235730Y-83527914D02*
X16270938Y-83433898D01*
X70899443Y-47044962D02*
X70929917Y-46942819D01*
X18005332Y-46616677D02*
X18015449Y-46716567D01*
X19160590Y-83073503D02*
X19070297Y-83117387D01*
X69066890Y-32221419D02*
X69173170Y-32213264D01*
X69950490Y-98997313D02*
X69846794Y-99021993D01*
X69173888Y-82906424D02*
X69071232Y-82898607D01*
X70974635Y-95406451D02*
X70988756Y-95300797D01*
X16342087Y-48081610D02*
X16302530Y-47989329D01*
X72610008Y-83198092D02*
X72652992Y-83291642D01*
M02*
