M48
; DRILL file {KiCad 6.0.5-a6ca702e91~116~ubuntu22.04.1} date Fri 10 Jun 2022 04:35:39 PM CDT
; FORMAT={-:-/ absolute / inch / decimal}
; #@! TF.CreationDate,2022-06-10T16:35:39-05:00
; #@! TF.GenerationSoftware,Kicad,Pcbnew,6.0.5-a6ca702e91~116~ubuntu22.04.1
; #@! TF.FileFunction,Plated,1,2,PTH
FMAT,2
INCH
; #@! TA.AperFunction,Plated,PTH,ComponentDrill
T1C0.0236
; #@! TA.AperFunction,Plated,PTH,ComponentDrill
T2C0.0354
; #@! TA.AperFunction,Plated,PTH,ComponentDrill
T3C0.0394
%
G90
G05
T2
X2.365Y-1.1687
X2.365Y-1.8074
X2.365Y-2.4461
X2.365Y-3.0849
X2.365Y-3.7236
X2.465Y-1.1687
X2.465Y-1.8074
X2.465Y-2.4461
X2.465Y-3.0849
X2.465Y-3.7236
T3
X0.815Y-0.7887
X0.815Y-0.8887
X0.815Y-0.9887
X0.815Y-1.0887
X0.815Y-1.1887
X0.815Y-1.4274
X0.815Y-1.5274
X0.815Y-1.6274
X0.815Y-1.7274
X0.815Y-1.8274
X0.815Y-2.0661
X0.815Y-2.1661
X0.815Y-2.2661
X0.815Y-2.3661
X0.815Y-2.4661
X0.815Y-2.7049
X0.815Y-2.8049
X0.815Y-2.9049
X0.815Y-3.0049
X0.815Y-3.1049
X0.815Y-3.3436
X0.815Y-3.4436
X0.815Y-3.5436
X0.815Y-3.6436
X0.815Y-3.7436
X0.915Y-0.7887
X0.915Y-0.8887
X0.915Y-0.9887
X0.915Y-1.0887
X0.915Y-1.1887
X0.915Y-1.4274
X0.915Y-1.5274
X0.915Y-1.6274
X0.915Y-1.7274
X0.915Y-1.8274
X0.915Y-2.0661
X0.915Y-2.1661
X0.915Y-2.2661
X0.915Y-2.3661
X0.915Y-2.4661
X0.915Y-2.7049
X0.915Y-2.8049
X0.915Y-2.9049
X0.915Y-3.0049
X0.915Y-3.1049
X0.915Y-3.3436
X0.915Y-3.4436
X0.915Y-3.5436
X0.915Y-3.6436
X0.915Y-3.7436
X2.589Y-0.7887
X2.589Y-0.8887
X2.589Y-0.9887
X2.589Y-1.0887
X2.589Y-1.1887
X2.589Y-1.4274
X2.589Y-1.5274
X2.589Y-1.6274
X2.589Y-1.7274
X2.589Y-1.8274
X2.589Y-2.0661
X2.589Y-2.1661
X2.589Y-2.2661
X2.589Y-2.3661
X2.589Y-2.4661
X2.589Y-2.7049
X2.589Y-2.8049
X2.589Y-2.9049
X2.589Y-3.0049
X2.589Y-3.1049
X2.589Y-3.3436
X2.589Y-3.4436
X2.589Y-3.5436
X2.589Y-3.6436
X2.589Y-3.7436
X2.689Y-0.7887
X2.689Y-0.8887
X2.689Y-0.9887
X2.689Y-1.0887
X2.689Y-1.1887
X2.689Y-1.4274
X2.689Y-1.5274
X2.689Y-1.6274
X2.689Y-1.7274
X2.689Y-1.8274
X2.689Y-2.0661
X2.689Y-2.1661
X2.689Y-2.2661
X2.689Y-2.3661
X2.689Y-2.4661
X2.689Y-2.7049
X2.689Y-2.8049
X2.689Y-2.9049
X2.689Y-3.0049
X2.689Y-3.1049
X2.689Y-3.3436
X2.689Y-3.4436
X2.689Y-3.5436
X2.689Y-3.6436
X2.689Y-3.7436
T1
G00X1.5749Y-0.8291
M15
G01X1.5749Y-0.8055
M16
G05
G00X1.5749Y-1.0035
M15
G01X1.5749Y-0.9602
M16
G05
G00X1.5749Y-1.4679
M15
G01X1.5749Y-1.4443
M16
G05
G00X1.5749Y-1.6423
M15
G01X1.5749Y-1.599
M16
G05
G00X1.5749Y-2.1066
M15
G01X1.5749Y-2.083
M16
G05
G00X1.5749Y-2.281
M15
G01X1.5749Y-2.2377
M16
G05
G00X1.5749Y-2.7454
M15
G01X1.5749Y-2.7217
M16
G05
G00X1.5749Y-2.9198
M15
G01X1.5749Y-2.8765
M16
G05
G00X1.5749Y-3.3841
M15
G01X1.5749Y-3.3605
M16
G05
G00X1.5749Y-3.5585
M15
G01X1.5749Y-3.5152
M16
G05
G00X1.9151Y-0.8291
M15
G01X1.9151Y-0.8055
M16
G05
G00X1.9151Y-1.0035
M15
G01X1.9151Y-0.9602
M16
G05
G00X1.9151Y-1.4679
M15
G01X1.9151Y-1.4443
M16
G05
G00X1.9151Y-1.6423
M15
G01X1.9151Y-1.599
M16
G05
G00X1.9151Y-2.1066
M15
G01X1.9151Y-2.083
M16
G05
G00X1.9151Y-2.281
M15
G01X1.9151Y-2.2377
M16
G05
G00X1.9151Y-2.7454
M15
G01X1.9151Y-2.7217
M16
G05
G00X1.9151Y-2.9198
M15
G01X1.9151Y-2.8765
M16
G05
G00X1.9151Y-3.3841
M15
G01X1.9151Y-3.3605
M16
G05
G00X1.9151Y-3.5585
M15
G01X1.9151Y-3.5152
M16
G05
T0
M30
