M48
; DRILL file {KiCad 6.0.5-a6ca702e91~116~ubuntu22.04.1} date Fri 10 Jun 2022 04:35:39 PM CDT
; FORMAT={-:-/ absolute / inch / decimal}
; #@! TF.CreationDate,2022-06-10T16:35:39-05:00
; #@! TF.GenerationSoftware,Kicad,Pcbnew,6.0.5-a6ca702e91~116~ubuntu22.04.1
; #@! TF.FileFunction,NonPlated,1,2,NPTH
FMAT,2
INCH
; #@! TA.AperFunction,NonPlated,NPTH,ComponentDrill
T1C0.0197
; #@! TA.AperFunction,NonPlated,NPTH,ComponentDrill
T2C0.0256
%
G90
G05
T1
X0.7087Y-1.0477
X0.7087Y-1.6865
X0.7087Y-2.3252
X0.7087Y-2.9639
X0.7087Y-3.6026
X0.7087Y-1.0083
X0.7087Y-1.6471
X0.7087Y-2.2858
X0.7087Y-2.9246
X0.7087Y-3.5633
X0.7087Y-0.969
X0.7087Y-1.6078
X0.7087Y-2.8852
X0.7087Y-2.2465
X0.7087Y-3.5239
X0.7087Y-0.9296
X0.7087Y-1.5684
X0.7087Y-2.2071
X0.7087Y-2.8458
X0.7087Y-3.4845
X1.0669Y-0.7087
X1.0669Y-1.2686
X1.0669Y-1.3473
X1.0669Y-1.9074
X1.0669Y-1.9863
X1.0669Y-2.5461
X1.0669Y-2.6249
X1.0669Y-3.1849
X1.0669Y-3.2635
X1.0669Y-3.8236
X1.1063Y-0.7087
X1.1063Y-1.2686
X1.1063Y-1.3473
X1.1063Y-1.9074
X1.1063Y-1.9863
X1.1063Y-2.5461
X1.1063Y-2.6249
X1.1063Y-3.1849
X1.1063Y-3.2635
X1.1063Y-3.8236
X1.1457Y-0.7087
X1.1457Y-1.2686
X1.1457Y-1.3473
X1.1457Y-1.9074
X1.1457Y-1.9863
X1.1457Y-2.5461
X1.1457Y-2.6249
X1.1457Y-3.1849
X1.1457Y-3.2635
X1.1457Y-3.8236
X1.185Y-0.7087
X1.185Y-1.2686
X1.185Y-1.3473
X1.185Y-1.9074
X1.185Y-1.9863
X1.185Y-2.5461
X1.185Y-2.6249
X1.185Y-3.1848
X1.185Y-3.2635
X1.185Y-3.8236
X1.4843Y-0.7087
X1.4843Y-1.2686
X1.4843Y-1.3474
X1.4843Y-1.9075
X1.4843Y-1.9862
X1.4843Y-2.5461
X1.4843Y-2.6249
X1.4843Y-3.1848
X1.4843Y-3.2635
X1.4843Y-3.8237
X1.5236Y-0.7087
X1.5236Y-1.2686
X1.5236Y-1.3474
X1.5236Y-1.9075
X1.5236Y-1.9862
X1.5236Y-2.5461
X1.5236Y-2.6249
X1.5236Y-3.1848
X1.5236Y-3.2635
X1.5236Y-3.8237
X1.563Y-0.7087
X1.563Y-1.2686
X1.563Y-1.3474
X1.563Y-1.9075
X1.563Y-1.9862
X1.563Y-2.5461
X1.563Y-2.6249
X1.563Y-3.1848
X1.563Y-3.2635
X1.563Y-3.8237
X1.6024Y-0.7087
X1.6024Y-1.2686
X1.6024Y-1.3474
X1.6024Y-1.9075
X1.6024Y-1.9862
X1.6024Y-2.5461
X1.6024Y-2.6249
X1.6024Y-3.1848
X1.6024Y-3.2635
X1.6024Y-3.8237
X1.9016Y-0.7087
X1.9016Y-1.2686
X1.9016Y-1.3474
X1.9016Y-1.9075
X1.9016Y-1.9862
X1.9016Y-2.5461
X1.9016Y-2.6249
X1.9016Y-3.1848
X1.9016Y-3.2636
X1.9016Y-3.8237
X1.941Y-0.7087
X1.941Y-1.2686
X1.941Y-1.3474
X1.941Y-1.9075
X1.941Y-1.9862
X1.941Y-2.5461
X1.941Y-2.6249
X1.941Y-3.1848
X1.941Y-3.2636
X1.941Y-3.8237
X1.9803Y-0.7087
X1.9803Y-1.2686
X1.9803Y-1.3474
X1.9803Y-1.9075
X1.9803Y-1.9862
X1.9803Y-2.5461
X1.9803Y-2.6249
X1.9803Y-3.1848
X1.9803Y-3.2636
X1.9803Y-3.8237
X2.0197Y-0.7087
X2.0197Y-1.2686
X2.0197Y-1.3474
X2.0197Y-1.9075
X2.0197Y-1.9862
X2.0197Y-2.5461
X2.0197Y-2.6249
X2.0197Y-3.1848
X2.0197Y-3.2636
X2.0197Y-3.8237
X2.3189Y-0.7087
X2.3189Y-1.2686
X2.3189Y-1.3474
X2.3189Y-1.9075
X2.3189Y-1.9862
X2.3189Y-2.5461
X2.3189Y-2.6249
X2.3189Y-3.1848
X2.3189Y-3.2636
X2.3189Y-3.8237
X2.3583Y-0.7087
X2.3583Y-1.2686
X2.3583Y-1.3474
X2.3583Y-1.9075
X2.3583Y-1.9862
X2.3583Y-2.5461
X2.3583Y-2.6249
X2.3583Y-3.1848
X2.3583Y-3.2636
X2.3583Y-3.8237
X2.3976Y-0.7087
X2.3976Y-1.2686
X2.3976Y-1.3474
X2.3976Y-1.9075
X2.3976Y-1.9862
X2.3976Y-2.5461
X2.3976Y-2.6249
X2.3976Y-3.1848
X2.3976Y-3.2636
X2.3976Y-3.8237
X2.437Y-0.7087
X2.437Y-1.2686
X2.437Y-1.3474
X2.437Y-1.9075
X2.437Y-1.9862
X2.437Y-2.5461
X2.437Y-2.6249
X2.437Y-3.1847
X2.437Y-3.2636
X2.437Y-3.8237
X2.7953Y-0.9296
X2.7953Y-1.5684
X2.7953Y-2.2071
X2.7953Y-2.8458
X2.7953Y-3.4845
X2.7953Y-0.969
X2.7953Y-1.6078
X2.7953Y-2.2465
X2.7953Y-2.8852
X2.7953Y-3.5239
X2.7953Y-1.0083
X2.7953Y-1.6471
X2.7953Y-2.2858
X2.7953Y-2.9246
X2.7953Y-3.5633
X2.7953Y-1.0477
X2.7953Y-1.6865
X2.7953Y-2.3252
X2.7953Y-2.9639
X2.7953Y-3.6026
T2
X1.6312Y-0.961
X1.6312Y-1.5998
X1.6312Y-2.2385
X1.6312Y-2.8772
X1.6312Y-3.516
X1.8588Y-0.961
X1.8588Y-1.5998
X1.8588Y-2.2385
X1.8588Y-2.8772
X1.8588Y-3.516
T0
M30
