%TF.GenerationSoftware,KiCad,Pcbnew,6.0.5-a6ca702e91~116~ubuntu22.04.1*%
%TF.CreationDate,2022-06-10T16:35:41-05:00*%
%TF.ProjectId,panel,70616e65-6c2e-46b6-9963-61645f706362,rev?*%
%TF.SameCoordinates,Original*%
%TF.FileFunction,Legend,Top*%
%TF.FilePolarity,Positive*%
%FSLAX46Y46*%
G04 Gerber Fmt 4.6, Leading zero omitted, Abs format (unit mm)*
G04 Created by KiCad (PCBNEW 6.0.5-a6ca702e91~116~ubuntu22.04.1) date 2022-06-10 16:35:41*
%MOMM*%
%LPD*%
G01*
G04 APERTURE LIST*
%ADD10C,0.200000*%
%ADD11C,0.300000*%
%ADD12C,0.150000*%
%ADD13C,0.160000*%
%ADD14C,0.120000*%
G04 APERTURE END LIST*
D10*
X30542994Y-91238380D02*
X30876328Y-92238380D01*
X31209661Y-91238380D01*
X32114423Y-92143142D02*
X32066804Y-92190761D01*
X31923947Y-92238380D01*
X31828708Y-92238380D01*
X31685851Y-92190761D01*
X31590613Y-92095523D01*
X31542994Y-92000285D01*
X31495375Y-91809809D01*
X31495375Y-91666952D01*
X31542994Y-91476476D01*
X31590613Y-91381238D01*
X31685851Y-91286000D01*
X31828708Y-91238380D01*
X31923947Y-91238380D01*
X32066804Y-91286000D01*
X32114423Y-91333619D01*
X33114423Y-92143142D02*
X33066804Y-92190761D01*
X32923947Y-92238380D01*
X32828708Y-92238380D01*
X32685851Y-92190761D01*
X32590613Y-92095523D01*
X32542994Y-92000285D01*
X32495375Y-91809809D01*
X32495375Y-91666952D01*
X32542994Y-91476476D01*
X32590613Y-91381238D01*
X32685851Y-91286000D01*
X32828708Y-91238380D01*
X32923947Y-91238380D01*
X33066804Y-91286000D01*
X33114423Y-91333619D01*
X30542994Y-75014380D02*
X30876328Y-76014380D01*
X31209661Y-75014380D01*
X32114423Y-75919142D02*
X32066804Y-75966761D01*
X31923947Y-76014380D01*
X31828708Y-76014380D01*
X31685851Y-75966761D01*
X31590613Y-75871523D01*
X31542994Y-75776285D01*
X31495375Y-75585809D01*
X31495375Y-75442952D01*
X31542994Y-75252476D01*
X31590613Y-75157238D01*
X31685851Y-75062000D01*
X31828708Y-75014380D01*
X31923947Y-75014380D01*
X32066804Y-75062000D01*
X32114423Y-75109619D01*
X33114423Y-75919142D02*
X33066804Y-75966761D01*
X32923947Y-76014380D01*
X32828708Y-76014380D01*
X32685851Y-75966761D01*
X32590613Y-75871523D01*
X32542994Y-75776285D01*
X32495375Y-75585809D01*
X32495375Y-75442952D01*
X32542994Y-75252476D01*
X32590613Y-75157238D01*
X32685851Y-75062000D01*
X32828708Y-75014380D01*
X32923947Y-75014380D01*
X33066804Y-75062000D01*
X33114423Y-75109619D01*
X30542994Y-58790380D02*
X30876328Y-59790380D01*
X31209661Y-58790380D01*
X32114423Y-59695142D02*
X32066804Y-59742761D01*
X31923947Y-59790380D01*
X31828708Y-59790380D01*
X31685851Y-59742761D01*
X31590613Y-59647523D01*
X31542994Y-59552285D01*
X31495375Y-59361809D01*
X31495375Y-59218952D01*
X31542994Y-59028476D01*
X31590613Y-58933238D01*
X31685851Y-58838000D01*
X31828708Y-58790380D01*
X31923947Y-58790380D01*
X32066804Y-58838000D01*
X32114423Y-58885619D01*
X33114423Y-59695142D02*
X33066804Y-59742761D01*
X32923947Y-59790380D01*
X32828708Y-59790380D01*
X32685851Y-59742761D01*
X32590613Y-59647523D01*
X32542994Y-59552285D01*
X32495375Y-59361809D01*
X32495375Y-59218952D01*
X32542994Y-59028476D01*
X32590613Y-58933238D01*
X32685851Y-58838000D01*
X32828708Y-58790380D01*
X32923947Y-58790380D01*
X33066804Y-58838000D01*
X33114423Y-58885619D01*
X30542994Y-42566380D02*
X30876328Y-43566380D01*
X31209661Y-42566380D01*
X32114423Y-43471142D02*
X32066804Y-43518761D01*
X31923947Y-43566380D01*
X31828708Y-43566380D01*
X31685851Y-43518761D01*
X31590613Y-43423523D01*
X31542994Y-43328285D01*
X31495375Y-43137809D01*
X31495375Y-42994952D01*
X31542994Y-42804476D01*
X31590613Y-42709238D01*
X31685851Y-42614000D01*
X31828708Y-42566380D01*
X31923947Y-42566380D01*
X32066804Y-42614000D01*
X32114423Y-42661619D01*
X33114423Y-43471142D02*
X33066804Y-43518761D01*
X32923947Y-43566380D01*
X32828708Y-43566380D01*
X32685851Y-43518761D01*
X32590613Y-43423523D01*
X32542994Y-43328285D01*
X32495375Y-43137809D01*
X32495375Y-42994952D01*
X32542994Y-42804476D01*
X32590613Y-42709238D01*
X32685851Y-42614000D01*
X32828708Y-42566380D01*
X32923947Y-42566380D01*
X33066804Y-42614000D01*
X33114423Y-42661619D01*
X30542994Y-26342380D02*
X30876328Y-27342380D01*
X31209661Y-26342380D01*
X32114423Y-27247142D02*
X32066804Y-27294761D01*
X31923947Y-27342380D01*
X31828708Y-27342380D01*
X31685851Y-27294761D01*
X31590613Y-27199523D01*
X31542994Y-27104285D01*
X31495375Y-26913809D01*
X31495375Y-26770952D01*
X31542994Y-26580476D01*
X31590613Y-26485238D01*
X31685851Y-26390000D01*
X31828708Y-26342380D01*
X31923947Y-26342380D01*
X32066804Y-26390000D01*
X32114423Y-26437619D01*
X33114423Y-27247142D02*
X33066804Y-27294761D01*
X32923947Y-27342380D01*
X32828708Y-27342380D01*
X32685851Y-27294761D01*
X32590613Y-27199523D01*
X32542994Y-27104285D01*
X32495375Y-26913809D01*
X32495375Y-26770952D01*
X32542994Y-26580476D01*
X32590613Y-26485238D01*
X32685851Y-26390000D01*
X32828708Y-26342380D01*
X32923947Y-26342380D01*
X33066804Y-26390000D01*
X33114423Y-26437619D01*
X56260423Y-91286000D02*
X56165185Y-91238380D01*
X56022328Y-91238380D01*
X55879470Y-91286000D01*
X55784232Y-91381238D01*
X55736613Y-91476476D01*
X55688994Y-91666952D01*
X55688994Y-91809809D01*
X55736613Y-92000285D01*
X55784232Y-92095523D01*
X55879470Y-92190761D01*
X56022328Y-92238380D01*
X56117566Y-92238380D01*
X56260423Y-92190761D01*
X56308042Y-92143142D01*
X56308042Y-91809809D01*
X56117566Y-91809809D01*
X56736613Y-92238380D02*
X56736613Y-91238380D01*
X57308042Y-92238380D01*
X57308042Y-91238380D01*
X57784232Y-92238380D02*
X57784232Y-91238380D01*
X58022328Y-91238380D01*
X58165185Y-91286000D01*
X58260423Y-91381238D01*
X58308042Y-91476476D01*
X58355661Y-91666952D01*
X58355661Y-91809809D01*
X58308042Y-92000285D01*
X58260423Y-92095523D01*
X58165185Y-92190761D01*
X58022328Y-92238380D01*
X57784232Y-92238380D01*
X56260423Y-75062000D02*
X56165185Y-75014380D01*
X56022328Y-75014380D01*
X55879470Y-75062000D01*
X55784232Y-75157238D01*
X55736613Y-75252476D01*
X55688994Y-75442952D01*
X55688994Y-75585809D01*
X55736613Y-75776285D01*
X55784232Y-75871523D01*
X55879470Y-75966761D01*
X56022328Y-76014380D01*
X56117566Y-76014380D01*
X56260423Y-75966761D01*
X56308042Y-75919142D01*
X56308042Y-75585809D01*
X56117566Y-75585809D01*
X56736613Y-76014380D02*
X56736613Y-75014380D01*
X57308042Y-76014380D01*
X57308042Y-75014380D01*
X57784232Y-76014380D02*
X57784232Y-75014380D01*
X58022328Y-75014380D01*
X58165185Y-75062000D01*
X58260423Y-75157238D01*
X58308042Y-75252476D01*
X58355661Y-75442952D01*
X58355661Y-75585809D01*
X58308042Y-75776285D01*
X58260423Y-75871523D01*
X58165185Y-75966761D01*
X58022328Y-76014380D01*
X57784232Y-76014380D01*
X56260423Y-58838000D02*
X56165185Y-58790380D01*
X56022328Y-58790380D01*
X55879470Y-58838000D01*
X55784232Y-58933238D01*
X55736613Y-59028476D01*
X55688994Y-59218952D01*
X55688994Y-59361809D01*
X55736613Y-59552285D01*
X55784232Y-59647523D01*
X55879470Y-59742761D01*
X56022328Y-59790380D01*
X56117566Y-59790380D01*
X56260423Y-59742761D01*
X56308042Y-59695142D01*
X56308042Y-59361809D01*
X56117566Y-59361809D01*
X56736613Y-59790380D02*
X56736613Y-58790380D01*
X57308042Y-59790380D01*
X57308042Y-58790380D01*
X57784232Y-59790380D02*
X57784232Y-58790380D01*
X58022328Y-58790380D01*
X58165185Y-58838000D01*
X58260423Y-58933238D01*
X58308042Y-59028476D01*
X58355661Y-59218952D01*
X58355661Y-59361809D01*
X58308042Y-59552285D01*
X58260423Y-59647523D01*
X58165185Y-59742761D01*
X58022328Y-59790380D01*
X57784232Y-59790380D01*
X56260423Y-42614000D02*
X56165185Y-42566380D01*
X56022328Y-42566380D01*
X55879470Y-42614000D01*
X55784232Y-42709238D01*
X55736613Y-42804476D01*
X55688994Y-42994952D01*
X55688994Y-43137809D01*
X55736613Y-43328285D01*
X55784232Y-43423523D01*
X55879470Y-43518761D01*
X56022328Y-43566380D01*
X56117566Y-43566380D01*
X56260423Y-43518761D01*
X56308042Y-43471142D01*
X56308042Y-43137809D01*
X56117566Y-43137809D01*
X56736613Y-43566380D02*
X56736613Y-42566380D01*
X57308042Y-43566380D01*
X57308042Y-42566380D01*
X57784232Y-43566380D02*
X57784232Y-42566380D01*
X58022328Y-42566380D01*
X58165185Y-42614000D01*
X58260423Y-42709238D01*
X58308042Y-42804476D01*
X58355661Y-42994952D01*
X58355661Y-43137809D01*
X58308042Y-43328285D01*
X58260423Y-43423523D01*
X58165185Y-43518761D01*
X58022328Y-43566380D01*
X57784232Y-43566380D01*
X56260423Y-26390000D02*
X56165185Y-26342380D01*
X56022328Y-26342380D01*
X55879470Y-26390000D01*
X55784232Y-26485238D01*
X55736613Y-26580476D01*
X55688994Y-26770952D01*
X55688994Y-26913809D01*
X55736613Y-27104285D01*
X55784232Y-27199523D01*
X55879470Y-27294761D01*
X56022328Y-27342380D01*
X56117566Y-27342380D01*
X56260423Y-27294761D01*
X56308042Y-27247142D01*
X56308042Y-26913809D01*
X56117566Y-26913809D01*
X56736613Y-27342380D02*
X56736613Y-26342380D01*
X57308042Y-27342380D01*
X57308042Y-26342380D01*
X57784232Y-27342380D02*
X57784232Y-26342380D01*
X58022328Y-26342380D01*
X58165185Y-26390000D01*
X58260423Y-26485238D01*
X58308042Y-26580476D01*
X58355661Y-26770952D01*
X58355661Y-26913809D01*
X58308042Y-27104285D01*
X58260423Y-27199523D01*
X58165185Y-27294761D01*
X58022328Y-27342380D01*
X57784232Y-27342380D01*
D11*
X62292899Y-84019142D02*
X63435756Y-84019142D01*
X62292899Y-67795142D02*
X63435756Y-67795142D01*
X62292899Y-51571142D02*
X63435756Y-51571142D01*
X62292899Y-35347142D02*
X63435756Y-35347142D01*
X62292899Y-19123142D02*
X63435756Y-19123142D01*
X27228928Y-84019142D02*
X28371785Y-84019142D01*
X27228928Y-67795142D02*
X28371785Y-67795142D01*
X27228928Y-51571142D02*
X28371785Y-51571142D01*
X27228928Y-35347142D02*
X28371785Y-35347142D01*
X27228928Y-19123142D02*
X28371785Y-19123142D01*
D10*
X50648708Y-96048380D02*
X50172518Y-96048380D01*
X50172518Y-95048380D01*
X51553470Y-96048380D02*
X51220137Y-95572190D01*
X50982042Y-96048380D02*
X50982042Y-95048380D01*
X51362994Y-95048380D01*
X51458232Y-95096000D01*
X51505851Y-95143619D01*
X51553470Y-95238857D01*
X51553470Y-95381714D01*
X51505851Y-95476952D01*
X51458232Y-95524571D01*
X51362994Y-95572190D01*
X50982042Y-95572190D01*
X52315375Y-95524571D02*
X51982042Y-95524571D01*
X51982042Y-96048380D02*
X51982042Y-95048380D01*
X52458232Y-95048380D01*
X52839185Y-96048380D02*
X52839185Y-95048380D01*
X53220137Y-95048380D01*
X53315375Y-95096000D01*
X53362994Y-95143619D01*
X53410613Y-95238857D01*
X53410613Y-95381714D01*
X53362994Y-95476952D01*
X53315375Y-95524571D01*
X53220137Y-95572190D01*
X52839185Y-95572190D01*
X53696328Y-95048380D02*
X54029661Y-96048380D01*
X54362994Y-95048380D01*
X50648708Y-79824380D02*
X50172518Y-79824380D01*
X50172518Y-78824380D01*
X51553470Y-79824380D02*
X51220137Y-79348190D01*
X50982042Y-79824380D02*
X50982042Y-78824380D01*
X51362994Y-78824380D01*
X51458232Y-78872000D01*
X51505851Y-78919619D01*
X51553470Y-79014857D01*
X51553470Y-79157714D01*
X51505851Y-79252952D01*
X51458232Y-79300571D01*
X51362994Y-79348190D01*
X50982042Y-79348190D01*
X52315375Y-79300571D02*
X51982042Y-79300571D01*
X51982042Y-79824380D02*
X51982042Y-78824380D01*
X52458232Y-78824380D01*
X52839185Y-79824380D02*
X52839185Y-78824380D01*
X53220137Y-78824380D01*
X53315375Y-78872000D01*
X53362994Y-78919619D01*
X53410613Y-79014857D01*
X53410613Y-79157714D01*
X53362994Y-79252952D01*
X53315375Y-79300571D01*
X53220137Y-79348190D01*
X52839185Y-79348190D01*
X53696328Y-78824380D02*
X54029661Y-79824380D01*
X54362994Y-78824380D01*
X50648708Y-63600380D02*
X50172518Y-63600380D01*
X50172518Y-62600380D01*
X51553470Y-63600380D02*
X51220137Y-63124190D01*
X50982042Y-63600380D02*
X50982042Y-62600380D01*
X51362994Y-62600380D01*
X51458232Y-62648000D01*
X51505851Y-62695619D01*
X51553470Y-62790857D01*
X51553470Y-62933714D01*
X51505851Y-63028952D01*
X51458232Y-63076571D01*
X51362994Y-63124190D01*
X50982042Y-63124190D01*
X52315375Y-63076571D02*
X51982042Y-63076571D01*
X51982042Y-63600380D02*
X51982042Y-62600380D01*
X52458232Y-62600380D01*
X52839185Y-63600380D02*
X52839185Y-62600380D01*
X53220137Y-62600380D01*
X53315375Y-62648000D01*
X53362994Y-62695619D01*
X53410613Y-62790857D01*
X53410613Y-62933714D01*
X53362994Y-63028952D01*
X53315375Y-63076571D01*
X53220137Y-63124190D01*
X52839185Y-63124190D01*
X53696328Y-62600380D02*
X54029661Y-63600380D01*
X54362994Y-62600380D01*
X50648708Y-47376380D02*
X50172518Y-47376380D01*
X50172518Y-46376380D01*
X51553470Y-47376380D02*
X51220137Y-46900190D01*
X50982042Y-47376380D02*
X50982042Y-46376380D01*
X51362994Y-46376380D01*
X51458232Y-46424000D01*
X51505851Y-46471619D01*
X51553470Y-46566857D01*
X51553470Y-46709714D01*
X51505851Y-46804952D01*
X51458232Y-46852571D01*
X51362994Y-46900190D01*
X50982042Y-46900190D01*
X52315375Y-46852571D02*
X51982042Y-46852571D01*
X51982042Y-47376380D02*
X51982042Y-46376380D01*
X52458232Y-46376380D01*
X52839185Y-47376380D02*
X52839185Y-46376380D01*
X53220137Y-46376380D01*
X53315375Y-46424000D01*
X53362994Y-46471619D01*
X53410613Y-46566857D01*
X53410613Y-46709714D01*
X53362994Y-46804952D01*
X53315375Y-46852571D01*
X53220137Y-46900190D01*
X52839185Y-46900190D01*
X53696328Y-46376380D02*
X54029661Y-47376380D01*
X54362994Y-46376380D01*
X50648708Y-31152380D02*
X50172518Y-31152380D01*
X50172518Y-30152380D01*
X51553470Y-31152380D02*
X51220137Y-30676190D01*
X50982042Y-31152380D02*
X50982042Y-30152380D01*
X51362994Y-30152380D01*
X51458232Y-30200000D01*
X51505851Y-30247619D01*
X51553470Y-30342857D01*
X51553470Y-30485714D01*
X51505851Y-30580952D01*
X51458232Y-30628571D01*
X51362994Y-30676190D01*
X50982042Y-30676190D01*
X52315375Y-30628571D02*
X51982042Y-30628571D01*
X51982042Y-31152380D02*
X51982042Y-30152380D01*
X52458232Y-30152380D01*
X52839185Y-31152380D02*
X52839185Y-30152380D01*
X53220137Y-30152380D01*
X53315375Y-30200000D01*
X53362994Y-30247619D01*
X53410613Y-30342857D01*
X53410613Y-30485714D01*
X53362994Y-30580952D01*
X53315375Y-30628571D01*
X53220137Y-30676190D01*
X52839185Y-30676190D01*
X53696328Y-30152380D02*
X54029661Y-31152380D01*
X54362994Y-30152380D01*
D11*
X60526870Y-84019142D02*
X61669727Y-84019142D01*
X61098299Y-84590571D02*
X61098299Y-83447714D01*
X60526870Y-67795142D02*
X61669727Y-67795142D01*
X61098299Y-68366571D02*
X61098299Y-67223714D01*
X60526870Y-51571142D02*
X61669727Y-51571142D01*
X61098299Y-52142571D02*
X61098299Y-50999714D01*
X60526870Y-35347142D02*
X61669727Y-35347142D01*
X61098299Y-35918571D02*
X61098299Y-34775714D01*
X60526870Y-19123142D02*
X61669727Y-19123142D01*
X61098299Y-19694571D02*
X61098299Y-18551714D01*
X25462899Y-84019142D02*
X26605756Y-84019142D01*
X26034328Y-84590571D02*
X26034328Y-83447714D01*
X25462899Y-67795142D02*
X26605756Y-67795142D01*
X26034328Y-68366571D02*
X26034328Y-67223714D01*
X25462899Y-51571142D02*
X26605756Y-51571142D01*
X26034328Y-52142571D02*
X26034328Y-50999714D01*
X25462899Y-35347142D02*
X26605756Y-35347142D01*
X26034328Y-35918571D02*
X26034328Y-34775714D01*
X25462899Y-19123142D02*
X26605756Y-19123142D01*
X26034328Y-19694571D02*
X26034328Y-18551714D01*
D12*
%TO.C,J7*%
X72182994Y-27612380D02*
X72182994Y-28326666D01*
X72135375Y-28469523D01*
X72040137Y-28564761D01*
X71897280Y-28612380D01*
X71802042Y-28612380D01*
X72563947Y-27612380D02*
X73230613Y-27612380D01*
X72802042Y-28612380D01*
%TO.C,J5*%
X72182994Y-73236380D02*
X72182994Y-73950666D01*
X72135375Y-74093523D01*
X72040137Y-74188761D01*
X71897280Y-74236380D01*
X71802042Y-74236380D01*
X73135375Y-73236380D02*
X72659185Y-73236380D01*
X72611566Y-73712571D01*
X72659185Y-73664952D01*
X72754423Y-73617333D01*
X72992518Y-73617333D01*
X73087756Y-73664952D01*
X73135375Y-73712571D01*
X73182994Y-73807809D01*
X73182994Y-74045904D01*
X73135375Y-74141142D01*
X73087756Y-74188761D01*
X72992518Y-74236380D01*
X72754423Y-74236380D01*
X72659185Y-74188761D01*
X72611566Y-74141142D01*
%TO.C,J7*%
X72182994Y-76284380D02*
X72182994Y-76998666D01*
X72135375Y-77141523D01*
X72040137Y-77236761D01*
X71897280Y-77284380D01*
X71802042Y-77284380D01*
X72563947Y-76284380D02*
X73230613Y-76284380D01*
X72802042Y-77284380D01*
%TO.C,D1*%
X60602232Y-59624380D02*
X60602232Y-58624380D01*
X60840328Y-58624380D01*
X60983185Y-58672000D01*
X61078423Y-58767238D01*
X61126042Y-58862476D01*
X61173661Y-59052952D01*
X61173661Y-59195809D01*
X61126042Y-59386285D01*
X61078423Y-59481523D01*
X60983185Y-59576761D01*
X60840328Y-59624380D01*
X60602232Y-59624380D01*
X62126042Y-59624380D02*
X61554613Y-59624380D01*
X61840328Y-59624380D02*
X61840328Y-58624380D01*
X61745089Y-58767238D01*
X61649851Y-58862476D01*
X61554613Y-58910095D01*
%TO.C,J6*%
X72182994Y-69934380D02*
X72182994Y-70648666D01*
X72135375Y-70791523D01*
X72040137Y-70886761D01*
X71897280Y-70934380D01*
X71802042Y-70934380D01*
X73087756Y-69934380D02*
X72897280Y-69934380D01*
X72802042Y-69982000D01*
X72754423Y-70029619D01*
X72659185Y-70172476D01*
X72611566Y-70362952D01*
X72611566Y-70743904D01*
X72659185Y-70839142D01*
X72706804Y-70886761D01*
X72802042Y-70934380D01*
X72992518Y-70934380D01*
X73087756Y-70886761D01*
X73135375Y-70839142D01*
X73182994Y-70743904D01*
X73182994Y-70505809D01*
X73135375Y-70410571D01*
X73087756Y-70362952D01*
X72992518Y-70315333D01*
X72802042Y-70315333D01*
X72706804Y-70362952D01*
X72659185Y-70410571D01*
X72611566Y-70505809D01*
%TO.C,J5*%
X72182994Y-24564380D02*
X72182994Y-25278666D01*
X72135375Y-25421523D01*
X72040137Y-25516761D01*
X71897280Y-25564380D01*
X71802042Y-25564380D01*
X73135375Y-24564380D02*
X72659185Y-24564380D01*
X72611566Y-25040571D01*
X72659185Y-24992952D01*
X72754423Y-24945333D01*
X72992518Y-24945333D01*
X73087756Y-24992952D01*
X73135375Y-25040571D01*
X73182994Y-25135809D01*
X73182994Y-25373904D01*
X73135375Y-25469142D01*
X73087756Y-25516761D01*
X72992518Y-25564380D01*
X72754423Y-25564380D01*
X72659185Y-25516761D01*
X72611566Y-25469142D01*
%TO.C,J6*%
X72182994Y-53710380D02*
X72182994Y-54424666D01*
X72135375Y-54567523D01*
X72040137Y-54662761D01*
X71897280Y-54710380D01*
X71802042Y-54710380D01*
X73087756Y-53710380D02*
X72897280Y-53710380D01*
X72802042Y-53758000D01*
X72754423Y-53805619D01*
X72659185Y-53948476D01*
X72611566Y-54138952D01*
X72611566Y-54519904D01*
X72659185Y-54615142D01*
X72706804Y-54662761D01*
X72802042Y-54710380D01*
X72992518Y-54710380D01*
X73087756Y-54662761D01*
X73135375Y-54615142D01*
X73182994Y-54519904D01*
X73182994Y-54281809D01*
X73135375Y-54186571D01*
X73087756Y-54138952D01*
X72992518Y-54091333D01*
X72802042Y-54091333D01*
X72706804Y-54138952D01*
X72659185Y-54186571D01*
X72611566Y-54281809D01*
D11*
%TO.C,G\u002A\u002A\u002A*%
X72443756Y-29684000D02*
X72298613Y-29611428D01*
X72080899Y-29611428D01*
X71863185Y-29684000D01*
X71718042Y-29829142D01*
X71645470Y-29974285D01*
X71572899Y-30264571D01*
X71572899Y-30482285D01*
X71645470Y-30772571D01*
X71718042Y-30917714D01*
X71863185Y-31062857D01*
X72080899Y-31135428D01*
X72226042Y-31135428D01*
X72443756Y-31062857D01*
X72516328Y-30990285D01*
X72516328Y-30482285D01*
X72226042Y-30482285D01*
X73387185Y-29611428D02*
X73387185Y-29974285D01*
X73024328Y-29829142D02*
X73387185Y-29974285D01*
X73750042Y-29829142D01*
X73169470Y-30264571D02*
X73387185Y-29974285D01*
X73604899Y-30264571D01*
X74548328Y-29611428D02*
X74548328Y-29974285D01*
X74185470Y-29829142D02*
X74548328Y-29974285D01*
X74911185Y-29829142D01*
X74330613Y-30264571D02*
X74548328Y-29974285D01*
X74766042Y-30264571D01*
X75709470Y-29611428D02*
X75709470Y-29974285D01*
X75346613Y-29829142D02*
X75709470Y-29974285D01*
X76072328Y-29829142D01*
X75491756Y-30264571D02*
X75709470Y-29974285D01*
X75927185Y-30264571D01*
D13*
%TO.C,J1*%
X44065194Y-37314380D02*
X44065194Y-38028666D01*
X44017575Y-38171523D01*
X43922337Y-38266761D01*
X43779480Y-38314380D01*
X43684242Y-38314380D01*
X45065194Y-38314380D02*
X44493766Y-38314380D01*
X44779480Y-38314380D02*
X44779480Y-37314380D01*
X44684242Y-37457238D01*
X44589004Y-37552476D01*
X44493766Y-37600095D01*
D12*
%TO.C,J4*%
X72182994Y-58282380D02*
X72182994Y-58996666D01*
X72135375Y-59139523D01*
X72040137Y-59234761D01*
X71897280Y-59282380D01*
X71802042Y-59282380D01*
X73087756Y-58615714D02*
X73087756Y-59282380D01*
X72849661Y-58234761D02*
X72611566Y-58949047D01*
X73230613Y-58949047D01*
%TO.C,J3*%
X74468994Y-25834380D02*
X74468994Y-26548666D01*
X74421375Y-26691523D01*
X74326137Y-26786761D01*
X74183280Y-26834380D01*
X74088042Y-26834380D01*
X74849947Y-25834380D02*
X75468994Y-25834380D01*
X75135661Y-26215333D01*
X75278518Y-26215333D01*
X75373756Y-26262952D01*
X75421375Y-26310571D01*
X75468994Y-26405809D01*
X75468994Y-26643904D01*
X75421375Y-26739142D01*
X75373756Y-26786761D01*
X75278518Y-26834380D01*
X74992804Y-26834380D01*
X74897566Y-26786761D01*
X74849947Y-26739142D01*
%TO.C,J4*%
X72182994Y-25834380D02*
X72182994Y-26548666D01*
X72135375Y-26691523D01*
X72040137Y-26786761D01*
X71897280Y-26834380D01*
X71802042Y-26834380D01*
X73087756Y-26167714D02*
X73087756Y-26834380D01*
X72849661Y-25786761D02*
X72611566Y-26501047D01*
X73230613Y-26501047D01*
D11*
%TO.C,G\u002A\u002A\u002A*%
X72443756Y-94580000D02*
X72298613Y-94507428D01*
X72080899Y-94507428D01*
X71863185Y-94580000D01*
X71718042Y-94725142D01*
X71645470Y-94870285D01*
X71572899Y-95160571D01*
X71572899Y-95378285D01*
X71645470Y-95668571D01*
X71718042Y-95813714D01*
X71863185Y-95958857D01*
X72080899Y-96031428D01*
X72226042Y-96031428D01*
X72443756Y-95958857D01*
X72516328Y-95886285D01*
X72516328Y-95378285D01*
X72226042Y-95378285D01*
X73387185Y-94507428D02*
X73387185Y-94870285D01*
X73024328Y-94725142D02*
X73387185Y-94870285D01*
X73750042Y-94725142D01*
X73169470Y-95160571D02*
X73387185Y-94870285D01*
X73604899Y-95160571D01*
X74548328Y-94507428D02*
X74548328Y-94870285D01*
X74185470Y-94725142D02*
X74548328Y-94870285D01*
X74911185Y-94725142D01*
X74330613Y-95160571D02*
X74548328Y-94870285D01*
X74766042Y-95160571D01*
X75709470Y-94507428D02*
X75709470Y-94870285D01*
X75346613Y-94725142D02*
X75709470Y-94870285D01*
X76072328Y-94725142D01*
X75491756Y-95160571D02*
X75709470Y-94870285D01*
X75927185Y-95160571D01*
D12*
%TO.C,J6*%
X72182994Y-37486380D02*
X72182994Y-38200666D01*
X72135375Y-38343523D01*
X72040137Y-38438761D01*
X71897280Y-38486380D01*
X71802042Y-38486380D01*
X73087756Y-37486380D02*
X72897280Y-37486380D01*
X72802042Y-37534000D01*
X72754423Y-37581619D01*
X72659185Y-37724476D01*
X72611566Y-37914952D01*
X72611566Y-38295904D01*
X72659185Y-38391142D01*
X72706804Y-38438761D01*
X72802042Y-38486380D01*
X72992518Y-38486380D01*
X73087756Y-38438761D01*
X73135375Y-38391142D01*
X73182994Y-38295904D01*
X73182994Y-38057809D01*
X73135375Y-37962571D01*
X73087756Y-37914952D01*
X72992518Y-37867333D01*
X72802042Y-37867333D01*
X72706804Y-37914952D01*
X72659185Y-37962571D01*
X72611566Y-38057809D01*
%TO.C,J2*%
X74214994Y-92508380D02*
X74214994Y-93222666D01*
X74167375Y-93365523D01*
X74072137Y-93460761D01*
X73929280Y-93508380D01*
X73834042Y-93508380D01*
X74643566Y-92603619D02*
X74691185Y-92556000D01*
X74786423Y-92508380D01*
X75024518Y-92508380D01*
X75119756Y-92556000D01*
X75167375Y-92603619D01*
X75214994Y-92698857D01*
X75214994Y-92794095D01*
X75167375Y-92936952D01*
X74595947Y-93508380D01*
X75214994Y-93508380D01*
X74214994Y-60060380D02*
X74214994Y-60774666D01*
X74167375Y-60917523D01*
X74072137Y-61012761D01*
X73929280Y-61060380D01*
X73834042Y-61060380D01*
X74643566Y-60155619D02*
X74691185Y-60108000D01*
X74786423Y-60060380D01*
X75024518Y-60060380D01*
X75119756Y-60108000D01*
X75167375Y-60155619D01*
X75214994Y-60250857D01*
X75214994Y-60346095D01*
X75167375Y-60488952D01*
X74595947Y-61060380D01*
X75214994Y-61060380D01*
%TO.C,J7*%
X72182994Y-60060380D02*
X72182994Y-60774666D01*
X72135375Y-60917523D01*
X72040137Y-61012761D01*
X71897280Y-61060380D01*
X71802042Y-61060380D01*
X72563947Y-60060380D02*
X73230613Y-60060380D01*
X72802042Y-61060380D01*
%TO.C,J5*%
X72182994Y-57012380D02*
X72182994Y-57726666D01*
X72135375Y-57869523D01*
X72040137Y-57964761D01*
X71897280Y-58012380D01*
X71802042Y-58012380D01*
X73135375Y-57012380D02*
X72659185Y-57012380D01*
X72611566Y-57488571D01*
X72659185Y-57440952D01*
X72754423Y-57393333D01*
X72992518Y-57393333D01*
X73087756Y-57440952D01*
X73135375Y-57488571D01*
X73182994Y-57583809D01*
X73182994Y-57821904D01*
X73135375Y-57917142D01*
X73087756Y-57964761D01*
X72992518Y-58012380D01*
X72754423Y-58012380D01*
X72659185Y-57964761D01*
X72611566Y-57917142D01*
D11*
%TO.C,G\u002A\u002A\u002A*%
X72443756Y-45908000D02*
X72298613Y-45835428D01*
X72080899Y-45835428D01*
X71863185Y-45908000D01*
X71718042Y-46053142D01*
X71645470Y-46198285D01*
X71572899Y-46488571D01*
X71572899Y-46706285D01*
X71645470Y-46996571D01*
X71718042Y-47141714D01*
X71863185Y-47286857D01*
X72080899Y-47359428D01*
X72226042Y-47359428D01*
X72443756Y-47286857D01*
X72516328Y-47214285D01*
X72516328Y-46706285D01*
X72226042Y-46706285D01*
X73387185Y-45835428D02*
X73387185Y-46198285D01*
X73024328Y-46053142D02*
X73387185Y-46198285D01*
X73750042Y-46053142D01*
X73169470Y-46488571D02*
X73387185Y-46198285D01*
X73604899Y-46488571D01*
X74548328Y-45835428D02*
X74548328Y-46198285D01*
X74185470Y-46053142D02*
X74548328Y-46198285D01*
X74911185Y-46053142D01*
X74330613Y-46488571D02*
X74548328Y-46198285D01*
X74766042Y-46488571D01*
X75709470Y-45835428D02*
X75709470Y-46198285D01*
X75346613Y-46053142D02*
X75709470Y-46198285D01*
X76072328Y-46053142D01*
X75491756Y-46488571D02*
X75709470Y-46198285D01*
X75927185Y-46488571D01*
D12*
%TO.C,J5*%
X72182994Y-89460380D02*
X72182994Y-90174666D01*
X72135375Y-90317523D01*
X72040137Y-90412761D01*
X71897280Y-90460380D01*
X71802042Y-90460380D01*
X73135375Y-89460380D02*
X72659185Y-89460380D01*
X72611566Y-89936571D01*
X72659185Y-89888952D01*
X72754423Y-89841333D01*
X72992518Y-89841333D01*
X73087756Y-89888952D01*
X73135375Y-89936571D01*
X73182994Y-90031809D01*
X73182994Y-90269904D01*
X73135375Y-90365142D01*
X73087756Y-90412761D01*
X72992518Y-90460380D01*
X72754423Y-90460380D01*
X72659185Y-90412761D01*
X72611566Y-90365142D01*
%TO.C,D1*%
X60602232Y-75848380D02*
X60602232Y-74848380D01*
X60840328Y-74848380D01*
X60983185Y-74896000D01*
X61078423Y-74991238D01*
X61126042Y-75086476D01*
X61173661Y-75276952D01*
X61173661Y-75419809D01*
X61126042Y-75610285D01*
X61078423Y-75705523D01*
X60983185Y-75800761D01*
X60840328Y-75848380D01*
X60602232Y-75848380D01*
X62126042Y-75848380D02*
X61554613Y-75848380D01*
X61840328Y-75848380D02*
X61840328Y-74848380D01*
X61745089Y-74991238D01*
X61649851Y-75086476D01*
X61554613Y-75134095D01*
D11*
%TO.C,G\u002A\u002A\u002A*%
X72443756Y-78356000D02*
X72298613Y-78283428D01*
X72080899Y-78283428D01*
X71863185Y-78356000D01*
X71718042Y-78501142D01*
X71645470Y-78646285D01*
X71572899Y-78936571D01*
X71572899Y-79154285D01*
X71645470Y-79444571D01*
X71718042Y-79589714D01*
X71863185Y-79734857D01*
X72080899Y-79807428D01*
X72226042Y-79807428D01*
X72443756Y-79734857D01*
X72516328Y-79662285D01*
X72516328Y-79154285D01*
X72226042Y-79154285D01*
X73387185Y-78283428D02*
X73387185Y-78646285D01*
X73024328Y-78501142D02*
X73387185Y-78646285D01*
X73750042Y-78501142D01*
X73169470Y-78936571D02*
X73387185Y-78646285D01*
X73604899Y-78936571D01*
X74548328Y-78283428D02*
X74548328Y-78646285D01*
X74185470Y-78501142D02*
X74548328Y-78646285D01*
X74911185Y-78501142D01*
X74330613Y-78936571D02*
X74548328Y-78646285D01*
X74766042Y-78936571D01*
X75709470Y-78283428D02*
X75709470Y-78646285D01*
X75346613Y-78501142D02*
X75709470Y-78646285D01*
X76072328Y-78501142D01*
X75491756Y-78936571D02*
X75709470Y-78646285D01*
X75927185Y-78936571D01*
D12*
%TO.C,J5*%
X72182994Y-40788380D02*
X72182994Y-41502666D01*
X72135375Y-41645523D01*
X72040137Y-41740761D01*
X71897280Y-41788380D01*
X71802042Y-41788380D01*
X73135375Y-40788380D02*
X72659185Y-40788380D01*
X72611566Y-41264571D01*
X72659185Y-41216952D01*
X72754423Y-41169333D01*
X72992518Y-41169333D01*
X73087756Y-41216952D01*
X73135375Y-41264571D01*
X73182994Y-41359809D01*
X73182994Y-41597904D01*
X73135375Y-41693142D01*
X73087756Y-41740761D01*
X72992518Y-41788380D01*
X72754423Y-41788380D01*
X72659185Y-41740761D01*
X72611566Y-41693142D01*
%TO.C,F1*%
X32050994Y-79554571D02*
X31717661Y-79554571D01*
X31717661Y-80078380D02*
X31717661Y-79078380D01*
X32193851Y-79078380D01*
X33098613Y-80078380D02*
X32527185Y-80078380D01*
X32812899Y-80078380D02*
X32812899Y-79078380D01*
X32717661Y-79221238D01*
X32622423Y-79316476D01*
X32527185Y-79364095D01*
X32050994Y-63330571D02*
X31717661Y-63330571D01*
X31717661Y-63854380D02*
X31717661Y-62854380D01*
X32193851Y-62854380D01*
X33098613Y-63854380D02*
X32527185Y-63854380D01*
X32812899Y-63854380D02*
X32812899Y-62854380D01*
X32717661Y-62997238D01*
X32622423Y-63092476D01*
X32527185Y-63140095D01*
%TO.C,J3*%
X74468994Y-74506380D02*
X74468994Y-75220666D01*
X74421375Y-75363523D01*
X74326137Y-75458761D01*
X74183280Y-75506380D01*
X74088042Y-75506380D01*
X74849947Y-74506380D02*
X75468994Y-74506380D01*
X75135661Y-74887333D01*
X75278518Y-74887333D01*
X75373756Y-74934952D01*
X75421375Y-74982571D01*
X75468994Y-75077809D01*
X75468994Y-75315904D01*
X75421375Y-75411142D01*
X75373756Y-75458761D01*
X75278518Y-75506380D01*
X74992804Y-75506380D01*
X74897566Y-75458761D01*
X74849947Y-75411142D01*
%TO.C,J7*%
X72182994Y-43836380D02*
X72182994Y-44550666D01*
X72135375Y-44693523D01*
X72040137Y-44788761D01*
X71897280Y-44836380D01*
X71802042Y-44836380D01*
X72563947Y-43836380D02*
X73230613Y-43836380D01*
X72802042Y-44836380D01*
%TO.C,J4*%
X72182994Y-42058380D02*
X72182994Y-42772666D01*
X72135375Y-42915523D01*
X72040137Y-43010761D01*
X71897280Y-43058380D01*
X71802042Y-43058380D01*
X73087756Y-42391714D02*
X73087756Y-43058380D01*
X72849661Y-42010761D02*
X72611566Y-42725047D01*
X73230613Y-42725047D01*
%TO.C,F1*%
X32050994Y-47106571D02*
X31717661Y-47106571D01*
X31717661Y-47630380D02*
X31717661Y-46630380D01*
X32193851Y-46630380D01*
X33098613Y-47630380D02*
X32527185Y-47630380D01*
X32812899Y-47630380D02*
X32812899Y-46630380D01*
X32717661Y-46773238D01*
X32622423Y-46868476D01*
X32527185Y-46916095D01*
%TO.C,J3*%
X74468994Y-58282380D02*
X74468994Y-58996666D01*
X74421375Y-59139523D01*
X74326137Y-59234761D01*
X74183280Y-59282380D01*
X74088042Y-59282380D01*
X74849947Y-58282380D02*
X75468994Y-58282380D01*
X75135661Y-58663333D01*
X75278518Y-58663333D01*
X75373756Y-58710952D01*
X75421375Y-58758571D01*
X75468994Y-58853809D01*
X75468994Y-59091904D01*
X75421375Y-59187142D01*
X75373756Y-59234761D01*
X75278518Y-59282380D01*
X74992804Y-59282380D01*
X74897566Y-59234761D01*
X74849947Y-59187142D01*
D13*
%TO.C,J1*%
X44065194Y-53538380D02*
X44065194Y-54252666D01*
X44017575Y-54395523D01*
X43922337Y-54490761D01*
X43779480Y-54538380D01*
X43684242Y-54538380D01*
X45065194Y-54538380D02*
X44493766Y-54538380D01*
X44779480Y-54538380D02*
X44779480Y-53538380D01*
X44684242Y-53681238D01*
X44589004Y-53776476D01*
X44493766Y-53824095D01*
D12*
%TO.C,J4*%
X72182994Y-74506380D02*
X72182994Y-75220666D01*
X72135375Y-75363523D01*
X72040137Y-75458761D01*
X71897280Y-75506380D01*
X71802042Y-75506380D01*
X73087756Y-74839714D02*
X73087756Y-75506380D01*
X72849661Y-74458761D02*
X72611566Y-75173047D01*
X73230613Y-75173047D01*
%TO.C,J6*%
X72182994Y-21262380D02*
X72182994Y-21976666D01*
X72135375Y-22119523D01*
X72040137Y-22214761D01*
X71897280Y-22262380D01*
X71802042Y-22262380D01*
X73087756Y-21262380D02*
X72897280Y-21262380D01*
X72802042Y-21310000D01*
X72754423Y-21357619D01*
X72659185Y-21500476D01*
X72611566Y-21690952D01*
X72611566Y-22071904D01*
X72659185Y-22167142D01*
X72706804Y-22214761D01*
X72802042Y-22262380D01*
X72992518Y-22262380D01*
X73087756Y-22214761D01*
X73135375Y-22167142D01*
X73182994Y-22071904D01*
X73182994Y-21833809D01*
X73135375Y-21738571D01*
X73087756Y-21690952D01*
X72992518Y-21643333D01*
X72802042Y-21643333D01*
X72706804Y-21690952D01*
X72659185Y-21738571D01*
X72611566Y-21833809D01*
%TO.C,J2*%
X74214994Y-76284380D02*
X74214994Y-76998666D01*
X74167375Y-77141523D01*
X74072137Y-77236761D01*
X73929280Y-77284380D01*
X73834042Y-77284380D01*
X74643566Y-76379619D02*
X74691185Y-76332000D01*
X74786423Y-76284380D01*
X75024518Y-76284380D01*
X75119756Y-76332000D01*
X75167375Y-76379619D01*
X75214994Y-76474857D01*
X75214994Y-76570095D01*
X75167375Y-76712952D01*
X74595947Y-77284380D01*
X75214994Y-77284380D01*
D11*
%TO.C,G\u002A\u002A\u002A*%
X72443756Y-62132000D02*
X72298613Y-62059428D01*
X72080899Y-62059428D01*
X71863185Y-62132000D01*
X71718042Y-62277142D01*
X71645470Y-62422285D01*
X71572899Y-62712571D01*
X71572899Y-62930285D01*
X71645470Y-63220571D01*
X71718042Y-63365714D01*
X71863185Y-63510857D01*
X72080899Y-63583428D01*
X72226042Y-63583428D01*
X72443756Y-63510857D01*
X72516328Y-63438285D01*
X72516328Y-62930285D01*
X72226042Y-62930285D01*
X73387185Y-62059428D02*
X73387185Y-62422285D01*
X73024328Y-62277142D02*
X73387185Y-62422285D01*
X73750042Y-62277142D01*
X73169470Y-62712571D02*
X73387185Y-62422285D01*
X73604899Y-62712571D01*
X74548328Y-62059428D02*
X74548328Y-62422285D01*
X74185470Y-62277142D02*
X74548328Y-62422285D01*
X74911185Y-62277142D01*
X74330613Y-62712571D02*
X74548328Y-62422285D01*
X74766042Y-62712571D01*
X75709470Y-62059428D02*
X75709470Y-62422285D01*
X75346613Y-62277142D02*
X75709470Y-62422285D01*
X76072328Y-62277142D01*
X75491756Y-62712571D02*
X75709470Y-62422285D01*
X75927185Y-62712571D01*
D12*
%TO.C,J2*%
X74214994Y-27612380D02*
X74214994Y-28326666D01*
X74167375Y-28469523D01*
X74072137Y-28564761D01*
X73929280Y-28612380D01*
X73834042Y-28612380D01*
X74643566Y-27707619D02*
X74691185Y-27660000D01*
X74786423Y-27612380D01*
X75024518Y-27612380D01*
X75119756Y-27660000D01*
X75167375Y-27707619D01*
X75214994Y-27802857D01*
X75214994Y-27898095D01*
X75167375Y-28040952D01*
X74595947Y-28612380D01*
X75214994Y-28612380D01*
D13*
%TO.C,J1*%
X44065194Y-21090380D02*
X44065194Y-21804666D01*
X44017575Y-21947523D01*
X43922337Y-22042761D01*
X43779480Y-22090380D01*
X43684242Y-22090380D01*
X45065194Y-22090380D02*
X44493766Y-22090380D01*
X44779480Y-22090380D02*
X44779480Y-21090380D01*
X44684242Y-21233238D01*
X44589004Y-21328476D01*
X44493766Y-21376095D01*
D12*
%TO.C,J3*%
X74468994Y-90730380D02*
X74468994Y-91444666D01*
X74421375Y-91587523D01*
X74326137Y-91682761D01*
X74183280Y-91730380D01*
X74088042Y-91730380D01*
X74849947Y-90730380D02*
X75468994Y-90730380D01*
X75135661Y-91111333D01*
X75278518Y-91111333D01*
X75373756Y-91158952D01*
X75421375Y-91206571D01*
X75468994Y-91301809D01*
X75468994Y-91539904D01*
X75421375Y-91635142D01*
X75373756Y-91682761D01*
X75278518Y-91730380D01*
X74992804Y-91730380D01*
X74897566Y-91682761D01*
X74849947Y-91635142D01*
%TO.C,J2*%
X74214994Y-43836380D02*
X74214994Y-44550666D01*
X74167375Y-44693523D01*
X74072137Y-44788761D01*
X73929280Y-44836380D01*
X73834042Y-44836380D01*
X74643566Y-43931619D02*
X74691185Y-43884000D01*
X74786423Y-43836380D01*
X75024518Y-43836380D01*
X75119756Y-43884000D01*
X75167375Y-43931619D01*
X75214994Y-44026857D01*
X75214994Y-44122095D01*
X75167375Y-44264952D01*
X74595947Y-44836380D01*
X75214994Y-44836380D01*
%TO.C,J7*%
X72182994Y-92508380D02*
X72182994Y-93222666D01*
X72135375Y-93365523D01*
X72040137Y-93460761D01*
X71897280Y-93508380D01*
X71802042Y-93508380D01*
X72563947Y-92508380D02*
X73230613Y-92508380D01*
X72802042Y-93508380D01*
%TO.C,J4*%
X72182994Y-90730380D02*
X72182994Y-91444666D01*
X72135375Y-91587523D01*
X72040137Y-91682761D01*
X71897280Y-91730380D01*
X71802042Y-91730380D01*
X73087756Y-91063714D02*
X73087756Y-91730380D01*
X72849661Y-90682761D02*
X72611566Y-91397047D01*
X73230613Y-91397047D01*
D13*
%TO.C,J1*%
X44065194Y-69762380D02*
X44065194Y-70476666D01*
X44017575Y-70619523D01*
X43922337Y-70714761D01*
X43779480Y-70762380D01*
X43684242Y-70762380D01*
X45065194Y-70762380D02*
X44493766Y-70762380D01*
X44779480Y-70762380D02*
X44779480Y-69762380D01*
X44684242Y-69905238D01*
X44589004Y-70000476D01*
X44493766Y-70048095D01*
D12*
%TO.C,D1*%
X60602232Y-92072380D02*
X60602232Y-91072380D01*
X60840328Y-91072380D01*
X60983185Y-91120000D01*
X61078423Y-91215238D01*
X61126042Y-91310476D01*
X61173661Y-91500952D01*
X61173661Y-91643809D01*
X61126042Y-91834285D01*
X61078423Y-91929523D01*
X60983185Y-92024761D01*
X60840328Y-92072380D01*
X60602232Y-92072380D01*
X62126042Y-92072380D02*
X61554613Y-92072380D01*
X61840328Y-92072380D02*
X61840328Y-91072380D01*
X61745089Y-91215238D01*
X61649851Y-91310476D01*
X61554613Y-91358095D01*
X60602232Y-27176380D02*
X60602232Y-26176380D01*
X60840328Y-26176380D01*
X60983185Y-26224000D01*
X61078423Y-26319238D01*
X61126042Y-26414476D01*
X61173661Y-26604952D01*
X61173661Y-26747809D01*
X61126042Y-26938285D01*
X61078423Y-27033523D01*
X60983185Y-27128761D01*
X60840328Y-27176380D01*
X60602232Y-27176380D01*
X62126042Y-27176380D02*
X61554613Y-27176380D01*
X61840328Y-27176380D02*
X61840328Y-26176380D01*
X61745089Y-26319238D01*
X61649851Y-26414476D01*
X61554613Y-26462095D01*
D13*
%TO.C,J1*%
X44065194Y-85986380D02*
X44065194Y-86700666D01*
X44017575Y-86843523D01*
X43922337Y-86938761D01*
X43779480Y-86986380D01*
X43684242Y-86986380D01*
X45065194Y-86986380D02*
X44493766Y-86986380D01*
X44779480Y-86986380D02*
X44779480Y-85986380D01*
X44684242Y-86129238D01*
X44589004Y-86224476D01*
X44493766Y-86272095D01*
D12*
%TO.C,F1*%
X32050994Y-95778571D02*
X31717661Y-95778571D01*
X31717661Y-96302380D02*
X31717661Y-95302380D01*
X32193851Y-95302380D01*
X33098613Y-96302380D02*
X32527185Y-96302380D01*
X32812899Y-96302380D02*
X32812899Y-95302380D01*
X32717661Y-95445238D01*
X32622423Y-95540476D01*
X32527185Y-95588095D01*
%TO.C,D1*%
X60602232Y-43400380D02*
X60602232Y-42400380D01*
X60840328Y-42400380D01*
X60983185Y-42448000D01*
X61078423Y-42543238D01*
X61126042Y-42638476D01*
X61173661Y-42828952D01*
X61173661Y-42971809D01*
X61126042Y-43162285D01*
X61078423Y-43257523D01*
X60983185Y-43352761D01*
X60840328Y-43400380D01*
X60602232Y-43400380D01*
X62126042Y-43400380D02*
X61554613Y-43400380D01*
X61840328Y-43400380D02*
X61840328Y-42400380D01*
X61745089Y-42543238D01*
X61649851Y-42638476D01*
X61554613Y-42686095D01*
%TO.C,J3*%
X74468994Y-42058380D02*
X74468994Y-42772666D01*
X74421375Y-42915523D01*
X74326137Y-43010761D01*
X74183280Y-43058380D01*
X74088042Y-43058380D01*
X74849947Y-42058380D02*
X75468994Y-42058380D01*
X75135661Y-42439333D01*
X75278518Y-42439333D01*
X75373756Y-42486952D01*
X75421375Y-42534571D01*
X75468994Y-42629809D01*
X75468994Y-42867904D01*
X75421375Y-42963142D01*
X75373756Y-43010761D01*
X75278518Y-43058380D01*
X74992804Y-43058380D01*
X74897566Y-43010761D01*
X74849947Y-42963142D01*
%TO.C,J6*%
X72182994Y-86158380D02*
X72182994Y-86872666D01*
X72135375Y-87015523D01*
X72040137Y-87110761D01*
X71897280Y-87158380D01*
X71802042Y-87158380D01*
X73087756Y-86158380D02*
X72897280Y-86158380D01*
X72802042Y-86206000D01*
X72754423Y-86253619D01*
X72659185Y-86396476D01*
X72611566Y-86586952D01*
X72611566Y-86967904D01*
X72659185Y-87063142D01*
X72706804Y-87110761D01*
X72802042Y-87158380D01*
X72992518Y-87158380D01*
X73087756Y-87110761D01*
X73135375Y-87063142D01*
X73182994Y-86967904D01*
X73182994Y-86729809D01*
X73135375Y-86634571D01*
X73087756Y-86586952D01*
X72992518Y-86539333D01*
X72802042Y-86539333D01*
X72706804Y-86586952D01*
X72659185Y-86634571D01*
X72611566Y-86729809D01*
%TO.C,F1*%
X32050994Y-30882571D02*
X31717661Y-30882571D01*
X31717661Y-31406380D02*
X31717661Y-30406380D01*
X32193851Y-30406380D01*
X33098613Y-31406380D02*
X32527185Y-31406380D01*
X32812899Y-31406380D02*
X32812899Y-30406380D01*
X32717661Y-30549238D01*
X32622423Y-30644476D01*
X32527185Y-30692095D01*
D14*
%TO.C,J5*%
X66970328Y-69974000D02*
X66970328Y-80194000D01*
X66970328Y-80194000D02*
X69630328Y-80194000D01*
X66970328Y-69974000D02*
X69630328Y-69974000D01*
X66970328Y-68704000D02*
X66970328Y-67374000D01*
X69630328Y-69974000D02*
X69630328Y-80194000D01*
X66970328Y-67374000D02*
X68300328Y-67374000D01*
%TO.C,D1*%
X59780328Y-60896000D02*
X59780328Y-61052000D01*
X59780328Y-63212000D02*
X59780328Y-63368000D01*
X59780328Y-63367516D02*
G75*
G03*
X63012663Y-63210608I1560000J1235516D01*
G01*
X60299367Y-63212000D02*
G75*
G03*
X62381458Y-63211837I1040961J1080000D01*
G01*
X63012663Y-61053392D02*
G75*
G03*
X59780328Y-60896484I-1672335J-1078608D01*
G01*
X62381458Y-61052163D02*
G75*
G03*
X60299367Y-61052000I-1041130J-1079837D01*
G01*
%TO.C,J5*%
X66970328Y-21302000D02*
X66970328Y-31522000D01*
X69630328Y-21302000D02*
X69630328Y-31522000D01*
X66970328Y-31522000D02*
X69630328Y-31522000D01*
X66970328Y-21302000D02*
X69630328Y-21302000D01*
X66970328Y-20032000D02*
X66970328Y-18702000D01*
X66970328Y-18702000D02*
X68300328Y-18702000D01*
%TO.C,G\u002A\u002A\u002A*%
G36*
X57518697Y-29066446D02*
G01*
X57706290Y-29066446D01*
X57706290Y-29254038D01*
X57893882Y-29254038D01*
X57893882Y-30192000D01*
X57706290Y-30192000D01*
X57706290Y-30567185D01*
X57518697Y-30567185D01*
X57518697Y-30754777D01*
X57331105Y-30754777D01*
X57331105Y-30942369D01*
X56955920Y-30942369D01*
X56955920Y-31129962D01*
X56580736Y-31129962D01*
X56580736Y-31317554D01*
X56017959Y-31317554D01*
X56017959Y-31129962D01*
X55642774Y-31129962D01*
X55642774Y-30942369D01*
X55455182Y-30942369D01*
X55455182Y-30192000D01*
X55642774Y-30192000D01*
X55642774Y-29816815D01*
X55830366Y-29816815D01*
X55830366Y-29629223D01*
X56205551Y-29629223D01*
X56205551Y-29441631D01*
X56393143Y-29441631D01*
X56393143Y-29066446D01*
X56580736Y-29066446D01*
X56580736Y-28878854D01*
X57518697Y-28878854D01*
X57518697Y-29066446D01*
G37*
%TO.C,J1*%
X49022328Y-34134000D02*
X39622328Y-34134000D01*
X49022328Y-36034000D02*
X49022328Y-34134000D01*
X49022328Y-39934000D02*
X49022328Y-37934000D01*
X39622328Y-39934000D02*
X39622328Y-37934000D01*
X39622328Y-36034000D02*
X39622328Y-34134000D01*
%TO.C,J4*%
X67090328Y-53750000D02*
X67090328Y-63970000D01*
X64430328Y-63970000D02*
X67090328Y-63970000D01*
X64430328Y-53750000D02*
X64430328Y-63970000D01*
X64430328Y-53750000D02*
X67090328Y-53750000D01*
X64430328Y-51150000D02*
X65760328Y-51150000D01*
X64430328Y-52480000D02*
X64430328Y-51150000D01*
%TO.C,J3*%
X21910328Y-20032000D02*
X21910328Y-18702000D01*
X24570328Y-21302000D02*
X24570328Y-31522000D01*
X21910328Y-31522000D02*
X24570328Y-31522000D01*
X21910328Y-21302000D02*
X24570328Y-21302000D01*
X21910328Y-18702000D02*
X23240328Y-18702000D01*
X21910328Y-21302000D02*
X21910328Y-31522000D01*
%TO.C,J4*%
X67090328Y-21302000D02*
X67090328Y-31522000D01*
X64430328Y-20032000D02*
X64430328Y-18702000D01*
X64430328Y-21302000D02*
X67090328Y-21302000D01*
X64430328Y-31522000D02*
X67090328Y-31522000D01*
X64430328Y-21302000D02*
X64430328Y-31522000D01*
X64430328Y-18702000D02*
X65760328Y-18702000D01*
%TO.C,G\u002A\u002A\u002A*%
G36*
X57518697Y-93962446D02*
G01*
X57706290Y-93962446D01*
X57706290Y-94150038D01*
X57893882Y-94150038D01*
X57893882Y-95088000D01*
X57706290Y-95088000D01*
X57706290Y-95463185D01*
X57518697Y-95463185D01*
X57518697Y-95650777D01*
X57331105Y-95650777D01*
X57331105Y-95838369D01*
X56955920Y-95838369D01*
X56955920Y-96025962D01*
X56580736Y-96025962D01*
X56580736Y-96213554D01*
X56017959Y-96213554D01*
X56017959Y-96025962D01*
X55642774Y-96025962D01*
X55642774Y-95838369D01*
X55455182Y-95838369D01*
X55455182Y-95088000D01*
X55642774Y-95088000D01*
X55642774Y-94712815D01*
X55830366Y-94712815D01*
X55830366Y-94525223D01*
X56205551Y-94525223D01*
X56205551Y-94337631D01*
X56393143Y-94337631D01*
X56393143Y-93962446D01*
X56580736Y-93962446D01*
X56580736Y-93774854D01*
X57518697Y-93774854D01*
X57518697Y-93962446D01*
G37*
%TO.C,J2*%
X19370328Y-83598000D02*
X20700328Y-83598000D01*
X19370328Y-86198000D02*
X22030328Y-86198000D01*
X19370328Y-86198000D02*
X19370328Y-96418000D01*
X22030328Y-86198000D02*
X22030328Y-96418000D01*
X19370328Y-84928000D02*
X19370328Y-83598000D01*
X19370328Y-96418000D02*
X22030328Y-96418000D01*
X22030328Y-53750000D02*
X22030328Y-63970000D01*
X19370328Y-51150000D02*
X20700328Y-51150000D01*
X19370328Y-53750000D02*
X19370328Y-63970000D01*
X19370328Y-63970000D02*
X22030328Y-63970000D01*
X19370328Y-52480000D02*
X19370328Y-51150000D01*
X19370328Y-53750000D02*
X22030328Y-53750000D01*
%TO.C,J5*%
X66970328Y-53750000D02*
X66970328Y-63970000D01*
X66970328Y-63970000D02*
X69630328Y-63970000D01*
X66970328Y-53750000D02*
X69630328Y-53750000D01*
X69630328Y-53750000D02*
X69630328Y-63970000D01*
X66970328Y-51150000D02*
X68300328Y-51150000D01*
X66970328Y-52480000D02*
X66970328Y-51150000D01*
%TO.C,G\u002A\u002A\u002A*%
G36*
X57518697Y-45290446D02*
G01*
X57706290Y-45290446D01*
X57706290Y-45478038D01*
X57893882Y-45478038D01*
X57893882Y-46416000D01*
X57706290Y-46416000D01*
X57706290Y-46791185D01*
X57518697Y-46791185D01*
X57518697Y-46978777D01*
X57331105Y-46978777D01*
X57331105Y-47166369D01*
X56955920Y-47166369D01*
X56955920Y-47353962D01*
X56580736Y-47353962D01*
X56580736Y-47541554D01*
X56017959Y-47541554D01*
X56017959Y-47353962D01*
X55642774Y-47353962D01*
X55642774Y-47166369D01*
X55455182Y-47166369D01*
X55455182Y-46416000D01*
X55642774Y-46416000D01*
X55642774Y-46040815D01*
X55830366Y-46040815D01*
X55830366Y-45853223D01*
X56205551Y-45853223D01*
X56205551Y-45665631D01*
X56393143Y-45665631D01*
X56393143Y-45290446D01*
X56580736Y-45290446D01*
X56580736Y-45102854D01*
X57518697Y-45102854D01*
X57518697Y-45290446D01*
G37*
%TO.C,J5*%
X66970328Y-86198000D02*
X66970328Y-96418000D01*
X69630328Y-86198000D02*
X69630328Y-96418000D01*
X66970328Y-84928000D02*
X66970328Y-83598000D01*
X66970328Y-86198000D02*
X69630328Y-86198000D01*
X66970328Y-96418000D02*
X69630328Y-96418000D01*
X66970328Y-83598000D02*
X68300328Y-83598000D01*
%TO.C,D1*%
X59780328Y-77120000D02*
X59780328Y-77276000D01*
X59780328Y-79436000D02*
X59780328Y-79592000D01*
X63012663Y-77277392D02*
G75*
G03*
X59780328Y-77120484I-1672335J-1078608D01*
G01*
X59780328Y-79591516D02*
G75*
G03*
X63012663Y-79434608I1560000J1235516D01*
G01*
X60299367Y-79436000D02*
G75*
G03*
X62381458Y-79435837I1040961J1080000D01*
G01*
X62381458Y-77276163D02*
G75*
G03*
X60299367Y-77276000I-1041130J-1079837D01*
G01*
%TO.C,G\u002A\u002A\u002A*%
G36*
X57518697Y-77738446D02*
G01*
X57706290Y-77738446D01*
X57706290Y-77926038D01*
X57893882Y-77926038D01*
X57893882Y-78864000D01*
X57706290Y-78864000D01*
X57706290Y-79239185D01*
X57518697Y-79239185D01*
X57518697Y-79426777D01*
X57331105Y-79426777D01*
X57331105Y-79614369D01*
X56955920Y-79614369D01*
X56955920Y-79801962D01*
X56580736Y-79801962D01*
X56580736Y-79989554D01*
X56017959Y-79989554D01*
X56017959Y-79801962D01*
X55642774Y-79801962D01*
X55642774Y-79614369D01*
X55455182Y-79614369D01*
X55455182Y-78864000D01*
X55642774Y-78864000D01*
X55642774Y-78488815D01*
X55830366Y-78488815D01*
X55830366Y-78301223D01*
X56205551Y-78301223D01*
X56205551Y-78113631D01*
X56393143Y-78113631D01*
X56393143Y-77738446D01*
X56580736Y-77738446D01*
X56580736Y-77550854D01*
X57518697Y-77550854D01*
X57518697Y-77738446D01*
G37*
%TO.C,J5*%
X66970328Y-37526000D02*
X69630328Y-37526000D01*
X66970328Y-34926000D02*
X68300328Y-34926000D01*
X66970328Y-37526000D02*
X66970328Y-47746000D01*
X66970328Y-36256000D02*
X66970328Y-34926000D01*
X69630328Y-37526000D02*
X69630328Y-47746000D01*
X66970328Y-47746000D02*
X69630328Y-47746000D01*
%TO.C,F1*%
X38027580Y-76646000D02*
X35255076Y-76646000D01*
X38027580Y-80066000D02*
X35255076Y-80066000D01*
X38027580Y-63842000D02*
X35255076Y-63842000D01*
X38027580Y-60422000D02*
X35255076Y-60422000D01*
%TO.C,J3*%
X24570328Y-69974000D02*
X24570328Y-80194000D01*
X21910328Y-68704000D02*
X21910328Y-67374000D01*
X21910328Y-69974000D02*
X24570328Y-69974000D01*
X21910328Y-67374000D02*
X23240328Y-67374000D01*
X21910328Y-69974000D02*
X21910328Y-80194000D01*
X21910328Y-80194000D02*
X24570328Y-80194000D01*
%TO.C,J4*%
X64430328Y-47746000D02*
X67090328Y-47746000D01*
X64430328Y-37526000D02*
X64430328Y-47746000D01*
X64430328Y-34926000D02*
X65760328Y-34926000D01*
X64430328Y-37526000D02*
X67090328Y-37526000D01*
X64430328Y-36256000D02*
X64430328Y-34926000D01*
X67090328Y-37526000D02*
X67090328Y-47746000D01*
%TO.C,F1*%
X38027580Y-47618000D02*
X35255076Y-47618000D01*
X38027580Y-44198000D02*
X35255076Y-44198000D01*
%TO.C,J3*%
X24570328Y-53750000D02*
X24570328Y-63970000D01*
X21910328Y-51150000D02*
X23240328Y-51150000D01*
X21910328Y-53750000D02*
X21910328Y-63970000D01*
X21910328Y-53750000D02*
X24570328Y-53750000D01*
X21910328Y-63970000D02*
X24570328Y-63970000D01*
X21910328Y-52480000D02*
X21910328Y-51150000D01*
%TO.C,J1*%
X39622328Y-56158000D02*
X39622328Y-54158000D01*
X39622328Y-52258000D02*
X39622328Y-50358000D01*
X49022328Y-52258000D02*
X49022328Y-50358000D01*
X49022328Y-56158000D02*
X49022328Y-54158000D01*
X49022328Y-50358000D02*
X39622328Y-50358000D01*
%TO.C,J4*%
X64430328Y-67374000D02*
X65760328Y-67374000D01*
X67090328Y-69974000D02*
X67090328Y-80194000D01*
X64430328Y-68704000D02*
X64430328Y-67374000D01*
X64430328Y-69974000D02*
X67090328Y-69974000D01*
X64430328Y-80194000D02*
X67090328Y-80194000D01*
X64430328Y-69974000D02*
X64430328Y-80194000D01*
%TO.C,J2*%
X19370328Y-80194000D02*
X22030328Y-80194000D01*
X19370328Y-69974000D02*
X22030328Y-69974000D01*
X22030328Y-69974000D02*
X22030328Y-80194000D01*
X19370328Y-68704000D02*
X19370328Y-67374000D01*
X19370328Y-69974000D02*
X19370328Y-80194000D01*
X19370328Y-67374000D02*
X20700328Y-67374000D01*
%TO.C,G\u002A\u002A\u002A*%
G36*
X57518697Y-61514446D02*
G01*
X57706290Y-61514446D01*
X57706290Y-61702038D01*
X57893882Y-61702038D01*
X57893882Y-62640000D01*
X57706290Y-62640000D01*
X57706290Y-63015185D01*
X57518697Y-63015185D01*
X57518697Y-63202777D01*
X57331105Y-63202777D01*
X57331105Y-63390369D01*
X56955920Y-63390369D01*
X56955920Y-63577962D01*
X56580736Y-63577962D01*
X56580736Y-63765554D01*
X56017959Y-63765554D01*
X56017959Y-63577962D01*
X55642774Y-63577962D01*
X55642774Y-63390369D01*
X55455182Y-63390369D01*
X55455182Y-62640000D01*
X55642774Y-62640000D01*
X55642774Y-62264815D01*
X55830366Y-62264815D01*
X55830366Y-62077223D01*
X56205551Y-62077223D01*
X56205551Y-61889631D01*
X56393143Y-61889631D01*
X56393143Y-61514446D01*
X56580736Y-61514446D01*
X56580736Y-61326854D01*
X57518697Y-61326854D01*
X57518697Y-61514446D01*
G37*
%TO.C,J2*%
X19370328Y-21302000D02*
X22030328Y-21302000D01*
X19370328Y-20032000D02*
X19370328Y-18702000D01*
X19370328Y-31522000D02*
X22030328Y-31522000D01*
X22030328Y-21302000D02*
X22030328Y-31522000D01*
X19370328Y-21302000D02*
X19370328Y-31522000D01*
X19370328Y-18702000D02*
X20700328Y-18702000D01*
%TO.C,J1*%
X39622328Y-23710000D02*
X39622328Y-21710000D01*
X49022328Y-19810000D02*
X49022328Y-17910000D01*
X39622328Y-19810000D02*
X39622328Y-17910000D01*
X49022328Y-23710000D02*
X49022328Y-21710000D01*
X49022328Y-17910000D02*
X39622328Y-17910000D01*
%TO.C,J3*%
X21910328Y-83598000D02*
X23240328Y-83598000D01*
X21910328Y-84928000D02*
X21910328Y-83598000D01*
X21910328Y-86198000D02*
X21910328Y-96418000D01*
X21910328Y-96418000D02*
X24570328Y-96418000D01*
X21910328Y-86198000D02*
X24570328Y-86198000D01*
X24570328Y-86198000D02*
X24570328Y-96418000D01*
%TO.C,J2*%
X19370328Y-47746000D02*
X22030328Y-47746000D01*
X22030328Y-37526000D02*
X22030328Y-47746000D01*
X19370328Y-37526000D02*
X22030328Y-37526000D01*
X19370328Y-36256000D02*
X19370328Y-34926000D01*
X19370328Y-37526000D02*
X19370328Y-47746000D01*
X19370328Y-34926000D02*
X20700328Y-34926000D01*
%TO.C,J4*%
X64430328Y-86198000D02*
X64430328Y-96418000D01*
X64430328Y-83598000D02*
X65760328Y-83598000D01*
X67090328Y-86198000D02*
X67090328Y-96418000D01*
X64430328Y-86198000D02*
X67090328Y-86198000D01*
X64430328Y-96418000D02*
X67090328Y-96418000D01*
X64430328Y-84928000D02*
X64430328Y-83598000D01*
%TO.C,J1*%
X49022328Y-72382000D02*
X49022328Y-70382000D01*
X49022328Y-66582000D02*
X39622328Y-66582000D01*
X39622328Y-68482000D02*
X39622328Y-66582000D01*
X49022328Y-68482000D02*
X49022328Y-66582000D01*
X39622328Y-72382000D02*
X39622328Y-70382000D01*
%TO.C,D1*%
X59780328Y-93344000D02*
X59780328Y-93500000D01*
X59780328Y-95660000D02*
X59780328Y-95816000D01*
X59780328Y-95815516D02*
G75*
G03*
X63012663Y-95658608I1560000J1235516D01*
G01*
X60299367Y-95660000D02*
G75*
G03*
X62381458Y-95659837I1040961J1080000D01*
G01*
X63012663Y-93501392D02*
G75*
G03*
X59780328Y-93344484I-1672335J-1078608D01*
G01*
X62381458Y-93500163D02*
G75*
G03*
X60299367Y-93500000I-1041130J-1079837D01*
G01*
X59780328Y-30764000D02*
X59780328Y-30920000D01*
X59780328Y-28448000D02*
X59780328Y-28604000D01*
X62381458Y-28604163D02*
G75*
G03*
X60299367Y-28604000I-1041130J-1079837D01*
G01*
X63012663Y-28605392D02*
G75*
G03*
X59780328Y-28448484I-1672335J-1078608D01*
G01*
X59780328Y-30919516D02*
G75*
G03*
X63012663Y-30762608I1560000J1235516D01*
G01*
X60299367Y-30764000D02*
G75*
G03*
X62381458Y-30763837I1040961J1080000D01*
G01*
%TO.C,J1*%
X39622328Y-84706000D02*
X39622328Y-82806000D01*
X49022328Y-84706000D02*
X49022328Y-82806000D01*
X49022328Y-88606000D02*
X49022328Y-86606000D01*
X49022328Y-82806000D02*
X39622328Y-82806000D01*
X39622328Y-88606000D02*
X39622328Y-86606000D01*
%TO.C,F1*%
X38027580Y-96290000D02*
X35255076Y-96290000D01*
X38027580Y-92870000D02*
X35255076Y-92870000D01*
%TO.C,D1*%
X59780328Y-44672000D02*
X59780328Y-44828000D01*
X59780328Y-46988000D02*
X59780328Y-47144000D01*
X63012663Y-44829392D02*
G75*
G03*
X59780328Y-44672484I-1672335J-1078608D01*
G01*
X62381458Y-44828163D02*
G75*
G03*
X60299367Y-44828000I-1041130J-1079837D01*
G01*
X60299367Y-46988000D02*
G75*
G03*
X62381458Y-46987837I1040961J1080000D01*
G01*
X59780328Y-47143516D02*
G75*
G03*
X63012663Y-46986608I1560000J1235516D01*
G01*
%TO.C,J3*%
X21910328Y-34926000D02*
X23240328Y-34926000D01*
X21910328Y-47746000D02*
X24570328Y-47746000D01*
X21910328Y-36256000D02*
X21910328Y-34926000D01*
X21910328Y-37526000D02*
X21910328Y-47746000D01*
X24570328Y-37526000D02*
X24570328Y-47746000D01*
X21910328Y-37526000D02*
X24570328Y-37526000D01*
%TO.C,F1*%
X38027580Y-27974000D02*
X35255076Y-27974000D01*
X38027580Y-31394000D02*
X35255076Y-31394000D01*
%TD*%
M02*
