%TF.GenerationSoftware,KiCad,Pcbnew,6.0.5-a6ca702e91~116~ubuntu22.04.1*%
%TF.CreationDate,2022-06-10T16:27:17-05:00*%
%TF.ProjectId,breadboard_psu_v1,62726561-6462-46f6-9172-645f7073755f,rev?*%
%TF.SameCoordinates,Original*%
%TF.FileFunction,Copper,L2,Bot*%
%TF.FilePolarity,Positive*%
%FSLAX46Y46*%
G04 Gerber Fmt 4.6, Leading zero omitted, Abs format (unit mm)*
G04 Created by KiCad (PCBNEW 6.0.5-a6ca702e91~116~ubuntu22.04.1) date 2022-06-10 16:27:17*
%MOMM*%
%LPD*%
G01*
G04 APERTURE LIST*
%TA.AperFunction,ComponentPad*%
%ADD10R,1.800000X1.800000*%
%TD*%
%TA.AperFunction,ComponentPad*%
%ADD11C,1.800000*%
%TD*%
%TA.AperFunction,ComponentPad*%
%ADD12R,1.700000X1.700000*%
%TD*%
%TA.AperFunction,ComponentPad*%
%ADD13O,1.700000X1.700000*%
%TD*%
%TA.AperFunction,ComponentPad*%
%ADD14O,1.000000X1.600000*%
%TD*%
%TA.AperFunction,ComponentPad*%
%ADD15O,1.000000X2.100000*%
%TD*%
%TA.AperFunction,Conductor*%
%ADD16C,2.000000*%
%TD*%
%TA.AperFunction,Conductor*%
%ADD17C,0.800000*%
%TD*%
G04 APERTURE END LIST*
D10*
%TO.P,D1,1,K*%
%TO.N,GND*%
X143510000Y-88392000D03*
D11*
%TO.P,D1,2,A*%
%TO.N,Net-(D1-Pad2)*%
X146050000Y-88392000D03*
%TD*%
D12*
%TO.P,J5,1,Pin_1*%
%TO.N,GND*%
X151740000Y-78740000D03*
D13*
%TO.P,J5,2,Pin_2*%
X151740000Y-81280000D03*
%TO.P,J5,3,Pin_3*%
X151740000Y-83820000D03*
%TO.P,J5,4,Pin_4*%
X151740000Y-86360000D03*
%TO.P,J5,5,Pin_5*%
X151740000Y-88900000D03*
%TD*%
D12*
%TO.P,J2,1,Pin_1*%
%TO.N,Net-(D1-Pad2)*%
X104140000Y-78740000D03*
D13*
%TO.P,J2,2,Pin_2*%
X104140000Y-81280000D03*
%TO.P,J2,3,Pin_3*%
X104140000Y-83820000D03*
%TO.P,J2,4,Pin_4*%
X104140000Y-86360000D03*
%TO.P,J2,5,Pin_5*%
X104140000Y-88900000D03*
%TD*%
D12*
%TO.P,J4,1,Pin_1*%
%TO.N,Net-(D1-Pad2)*%
X149200000Y-78740000D03*
D13*
%TO.P,J4,2,Pin_2*%
X149200000Y-81280000D03*
%TO.P,J4,3,Pin_3*%
X149200000Y-83820000D03*
%TO.P,J4,4,Pin_4*%
X149200000Y-86360000D03*
%TO.P,J4,5,Pin_5*%
X149200000Y-88900000D03*
%TD*%
D12*
%TO.P,J3,1,Pin_1*%
%TO.N,GND*%
X106680000Y-78740000D03*
D13*
%TO.P,J3,2,Pin_2*%
X106680000Y-81280000D03*
%TO.P,J3,3,Pin_3*%
X106680000Y-83820000D03*
%TO.P,J3,4,Pin_4*%
X106680000Y-86360000D03*
%TO.P,J3,5,Pin_5*%
X106680000Y-88900000D03*
%TD*%
D14*
%TO.P,J1,S1,SHIELD*%
%TO.N,unconnected-(J1-PadS1)*%
X132082000Y-79468000D03*
D15*
X132082000Y-83648000D03*
D14*
X123442000Y-79468000D03*
D15*
X123442000Y-83648000D03*
%TD*%
D16*
%TO.N,GND*%
X151740000Y-78740000D02*
X151740000Y-88900000D01*
D17*
X145467511Y-90349511D02*
X150290489Y-90349511D01*
D16*
X106680000Y-78740000D02*
X106680000Y-88900000D01*
D17*
X150290489Y-90349511D02*
X151740000Y-88900000D01*
X143510000Y-88392000D02*
X145467511Y-90349511D01*
%TD*%
%TA.AperFunction,Conductor*%
%TO.N,GND*%
G36*
X153181626Y-77431027D02*
G01*
X153223750Y-77454027D01*
X153238872Y-77463745D01*
X153387401Y-77574931D01*
X153398460Y-77583210D01*
X153412046Y-77594982D01*
X153553010Y-77735944D01*
X153564782Y-77749530D01*
X153677123Y-77899599D01*
X153684247Y-77909116D01*
X153693964Y-77924236D01*
X153789032Y-78098337D01*
X153789502Y-78099198D01*
X153796971Y-78115552D01*
X153866640Y-78302342D01*
X153871704Y-78319589D01*
X153914078Y-78514379D01*
X153916635Y-78532164D01*
X153920623Y-78587915D01*
X153928539Y-78698601D01*
X153927793Y-78716560D01*
X153927692Y-78724845D01*
X153926309Y-78733723D01*
X153927474Y-78742629D01*
X153930436Y-78765282D01*
X153931500Y-78781620D01*
X153931500Y-88850013D01*
X153929961Y-88869641D01*
X153926322Y-88892715D01*
X153927468Y-88901614D01*
X153927468Y-88901618D01*
X153928286Y-88907965D01*
X153928980Y-88933295D01*
X153918172Y-89080342D01*
X153916186Y-89107366D01*
X153913593Y-89125155D01*
X153870712Y-89320426D01*
X153865613Y-89337665D01*
X153795382Y-89524838D01*
X153787882Y-89541176D01*
X153691728Y-89716450D01*
X153681979Y-89731555D01*
X153561858Y-89891364D01*
X153550058Y-89904928D01*
X153408414Y-90046015D01*
X153394805Y-90057760D01*
X153243364Y-90170665D01*
X153234531Y-90177250D01*
X153219388Y-90186940D01*
X153043736Y-90282405D01*
X153027368Y-90289841D01*
X152839911Y-90359341D01*
X152822659Y-90364369D01*
X152778604Y-90373862D01*
X152627221Y-90406481D01*
X152609423Y-90409004D01*
X152442406Y-90420620D01*
X152424398Y-90419837D01*
X152416150Y-90419720D01*
X152407286Y-90418322D01*
X152398386Y-90419468D01*
X152398385Y-90419468D01*
X152375089Y-90422468D01*
X152358997Y-90423500D01*
X152246387Y-90423500D01*
X152178266Y-90403498D01*
X152131773Y-90349842D01*
X152121669Y-90279568D01*
X152151163Y-90214988D01*
X152210180Y-90176814D01*
X152232252Y-90170192D01*
X152241842Y-90166433D01*
X152433095Y-90072739D01*
X152441945Y-90067464D01*
X152615328Y-89943792D01*
X152623200Y-89937139D01*
X152774052Y-89786812D01*
X152780730Y-89778965D01*
X152905003Y-89606020D01*
X152910313Y-89597183D01*
X153004670Y-89406267D01*
X153008469Y-89396672D01*
X153070377Y-89192910D01*
X153072555Y-89182837D01*
X153073986Y-89171962D01*
X153071775Y-89157778D01*
X153058617Y-89154000D01*
X151612000Y-89154000D01*
X151543879Y-89133998D01*
X151497386Y-89080342D01*
X151486000Y-89028000D01*
X151486000Y-88627885D01*
X151994000Y-88627885D01*
X151998475Y-88643124D01*
X151999865Y-88644329D01*
X152007548Y-88646000D01*
X153058344Y-88646000D01*
X153071875Y-88642027D01*
X153073180Y-88632947D01*
X153031214Y-88465875D01*
X153027894Y-88456124D01*
X152942972Y-88260814D01*
X152938105Y-88251739D01*
X152822426Y-88072926D01*
X152816136Y-88064757D01*
X152672806Y-87907240D01*
X152665273Y-87900215D01*
X152498139Y-87768222D01*
X152489552Y-87762517D01*
X152452116Y-87741851D01*
X152402146Y-87691419D01*
X152387374Y-87621976D01*
X152412490Y-87555571D01*
X152439842Y-87528964D01*
X152615327Y-87403792D01*
X152623200Y-87397139D01*
X152774052Y-87246812D01*
X152780730Y-87238965D01*
X152905003Y-87066020D01*
X152910313Y-87057183D01*
X153004670Y-86866267D01*
X153008469Y-86856672D01*
X153070377Y-86652910D01*
X153072555Y-86642837D01*
X153073986Y-86631962D01*
X153071775Y-86617778D01*
X153058617Y-86614000D01*
X152012115Y-86614000D01*
X151996876Y-86618475D01*
X151995671Y-86619865D01*
X151994000Y-86627548D01*
X151994000Y-88627885D01*
X151486000Y-88627885D01*
X151486000Y-86087885D01*
X151994000Y-86087885D01*
X151998475Y-86103124D01*
X151999865Y-86104329D01*
X152007548Y-86106000D01*
X153058344Y-86106000D01*
X153071875Y-86102027D01*
X153073180Y-86092947D01*
X153031214Y-85925875D01*
X153027894Y-85916124D01*
X152942972Y-85720814D01*
X152938105Y-85711739D01*
X152822426Y-85532926D01*
X152816136Y-85524757D01*
X152672806Y-85367240D01*
X152665273Y-85360215D01*
X152498139Y-85228222D01*
X152489552Y-85222517D01*
X152452116Y-85201851D01*
X152402146Y-85151419D01*
X152387374Y-85081976D01*
X152412490Y-85015571D01*
X152439842Y-84988964D01*
X152615327Y-84863792D01*
X152623200Y-84857139D01*
X152774052Y-84706812D01*
X152780730Y-84698965D01*
X152905003Y-84526020D01*
X152910313Y-84517183D01*
X153004670Y-84326267D01*
X153008469Y-84316672D01*
X153070377Y-84112910D01*
X153072555Y-84102837D01*
X153073986Y-84091962D01*
X153071775Y-84077778D01*
X153058617Y-84074000D01*
X152012115Y-84074000D01*
X151996876Y-84078475D01*
X151995671Y-84079865D01*
X151994000Y-84087548D01*
X151994000Y-86087885D01*
X151486000Y-86087885D01*
X151486000Y-83547885D01*
X151994000Y-83547885D01*
X151998475Y-83563124D01*
X151999865Y-83564329D01*
X152007548Y-83566000D01*
X153058344Y-83566000D01*
X153071875Y-83562027D01*
X153073180Y-83552947D01*
X153031214Y-83385875D01*
X153027894Y-83376124D01*
X152942972Y-83180814D01*
X152938105Y-83171739D01*
X152822426Y-82992926D01*
X152816136Y-82984757D01*
X152672806Y-82827240D01*
X152665273Y-82820215D01*
X152498139Y-82688222D01*
X152489552Y-82682517D01*
X152452116Y-82661851D01*
X152402146Y-82611419D01*
X152387374Y-82541976D01*
X152412490Y-82475571D01*
X152439842Y-82448964D01*
X152615327Y-82323792D01*
X152623200Y-82317139D01*
X152774052Y-82166812D01*
X152780730Y-82158965D01*
X152905003Y-81986020D01*
X152910313Y-81977183D01*
X153004670Y-81786267D01*
X153008469Y-81776672D01*
X153070377Y-81572910D01*
X153072555Y-81562837D01*
X153073986Y-81551962D01*
X153071775Y-81537778D01*
X153058617Y-81534000D01*
X152012115Y-81534000D01*
X151996876Y-81538475D01*
X151995671Y-81539865D01*
X151994000Y-81547548D01*
X151994000Y-83547885D01*
X151486000Y-83547885D01*
X151486000Y-81007885D01*
X151994000Y-81007885D01*
X151998475Y-81023124D01*
X151999865Y-81024329D01*
X152007548Y-81026000D01*
X153058344Y-81026000D01*
X153071875Y-81022027D01*
X153073180Y-81012947D01*
X153031214Y-80845875D01*
X153027894Y-80836124D01*
X152942972Y-80640814D01*
X152938105Y-80631739D01*
X152822426Y-80452926D01*
X152816136Y-80444757D01*
X152671931Y-80286279D01*
X152640879Y-80222433D01*
X152649273Y-80151934D01*
X152694450Y-80097166D01*
X152720894Y-80083497D01*
X152828054Y-80043324D01*
X152843649Y-80034786D01*
X152945724Y-79958285D01*
X152958285Y-79945724D01*
X153034786Y-79843649D01*
X153043324Y-79828054D01*
X153088478Y-79707606D01*
X153092105Y-79692351D01*
X153097631Y-79641486D01*
X153098000Y-79634672D01*
X153098000Y-79012115D01*
X153093525Y-78996876D01*
X153092135Y-78995671D01*
X153084452Y-78994000D01*
X152012115Y-78994000D01*
X151996876Y-78998475D01*
X151995671Y-78999865D01*
X151994000Y-79007548D01*
X151994000Y-81007885D01*
X151486000Y-81007885D01*
X151486000Y-78612000D01*
X151506002Y-78543879D01*
X151559658Y-78497386D01*
X151612000Y-78486000D01*
X153079884Y-78486000D01*
X153095123Y-78481525D01*
X153096328Y-78480135D01*
X153097999Y-78472452D01*
X153097999Y-77845331D01*
X153097629Y-77838510D01*
X153092105Y-77787648D01*
X153088479Y-77772396D01*
X153043324Y-77651946D01*
X153034786Y-77636351D01*
X153020419Y-77617182D01*
X152995570Y-77550676D01*
X153010622Y-77481294D01*
X153060796Y-77431063D01*
X153130161Y-77415932D01*
X153181626Y-77431027D01*
G37*
%TD.AperFunction*%
%TA.AperFunction,Conductor*%
G36*
X148090593Y-77236502D02*
G01*
X148137086Y-77290158D01*
X148147190Y-77360432D01*
X148117696Y-77425012D01*
X148098039Y-77443324D01*
X147986739Y-77526739D01*
X147899385Y-77643295D01*
X147848255Y-77779684D01*
X147841500Y-77841866D01*
X147841500Y-79638134D01*
X147848255Y-79700316D01*
X147899385Y-79836705D01*
X147986739Y-79953261D01*
X148103295Y-80040615D01*
X148111704Y-80043767D01*
X148111705Y-80043768D01*
X148220451Y-80084535D01*
X148277216Y-80127176D01*
X148301916Y-80193738D01*
X148286709Y-80263087D01*
X148267316Y-80289568D01*
X148140629Y-80422138D01*
X148137715Y-80426410D01*
X148137714Y-80426411D01*
X148090315Y-80495896D01*
X148014743Y-80606680D01*
X147998899Y-80640814D01*
X147942790Y-80761691D01*
X147920688Y-80809305D01*
X147860989Y-81024570D01*
X147837251Y-81246695D01*
X147850110Y-81469715D01*
X147851247Y-81474761D01*
X147851248Y-81474767D01*
X147864597Y-81534000D01*
X147899222Y-81687639D01*
X147983266Y-81894616D01*
X148099987Y-82085088D01*
X148246250Y-82253938D01*
X148300700Y-82299143D01*
X148408588Y-82388713D01*
X148418126Y-82396632D01*
X148432436Y-82404994D01*
X148491445Y-82439476D01*
X148540169Y-82491114D01*
X148553240Y-82560897D01*
X148526509Y-82626669D01*
X148486055Y-82660027D01*
X148473607Y-82666507D01*
X148469474Y-82669610D01*
X148469471Y-82669612D01*
X148299100Y-82797530D01*
X148294965Y-82800635D01*
X148291393Y-82804373D01*
X148193033Y-82907301D01*
X148140629Y-82962138D01*
X148014743Y-83146680D01*
X147920688Y-83349305D01*
X147860989Y-83564570D01*
X147837251Y-83786695D01*
X147837548Y-83791848D01*
X147837548Y-83791851D01*
X147846749Y-83951431D01*
X147850110Y-84009715D01*
X147851247Y-84014761D01*
X147851248Y-84014767D01*
X147854894Y-84030943D01*
X147899222Y-84227639D01*
X147960673Y-84378976D01*
X147970256Y-84402575D01*
X147983266Y-84434616D01*
X148099987Y-84625088D01*
X148246250Y-84793938D01*
X148418126Y-84936632D01*
X148488595Y-84977811D01*
X148491445Y-84979476D01*
X148540169Y-85031114D01*
X148553240Y-85100897D01*
X148526509Y-85166669D01*
X148486055Y-85200027D01*
X148473607Y-85206507D01*
X148469474Y-85209610D01*
X148469471Y-85209612D01*
X148445247Y-85227800D01*
X148294965Y-85340635D01*
X148140629Y-85502138D01*
X148014743Y-85686680D01*
X147920688Y-85889305D01*
X147860989Y-86104570D01*
X147837251Y-86326695D01*
X147850110Y-86549715D01*
X147851247Y-86554761D01*
X147851248Y-86554767D01*
X147864597Y-86614000D01*
X147899222Y-86767639D01*
X147983266Y-86974616D01*
X147985965Y-86979020D01*
X148074634Y-87123715D01*
X148099987Y-87165088D01*
X148246250Y-87333938D01*
X148418126Y-87476632D01*
X148488595Y-87517811D01*
X148491445Y-87519476D01*
X148540169Y-87571114D01*
X148553240Y-87640897D01*
X148526509Y-87706669D01*
X148486055Y-87740027D01*
X148473607Y-87746507D01*
X148469474Y-87749610D01*
X148469471Y-87749612D01*
X148445247Y-87767800D01*
X148294965Y-87880635D01*
X148140629Y-88042138D01*
X148014743Y-88226680D01*
X147920688Y-88429305D01*
X147860989Y-88644570D01*
X147837251Y-88866695D01*
X147837548Y-88871848D01*
X147837548Y-88871851D01*
X147839781Y-88910570D01*
X147850110Y-89089715D01*
X147851247Y-89094761D01*
X147851248Y-89094767D01*
X147872275Y-89188069D01*
X147899222Y-89307639D01*
X147983266Y-89514616D01*
X148099987Y-89705088D01*
X148246250Y-89873938D01*
X148418126Y-90016632D01*
X148611000Y-90129338D01*
X148615825Y-90131180D01*
X148615826Y-90131181D01*
X148743120Y-90179790D01*
X148799623Y-90222778D01*
X148823916Y-90289489D01*
X148808286Y-90358744D01*
X148757695Y-90408554D01*
X148698171Y-90423500D01*
X107186387Y-90423500D01*
X107118266Y-90403498D01*
X107071773Y-90349842D01*
X107061669Y-90279568D01*
X107091163Y-90214988D01*
X107150180Y-90176814D01*
X107172252Y-90170192D01*
X107181842Y-90166433D01*
X107373095Y-90072739D01*
X107381945Y-90067464D01*
X107555328Y-89943792D01*
X107563200Y-89937139D01*
X107714052Y-89786812D01*
X107720730Y-89778965D01*
X107845003Y-89606020D01*
X107850313Y-89597183D01*
X107944670Y-89406267D01*
X107948469Y-89396672D01*
X107966699Y-89336669D01*
X142102001Y-89336669D01*
X142102371Y-89343490D01*
X142107895Y-89394352D01*
X142111521Y-89409604D01*
X142156676Y-89530054D01*
X142165214Y-89545649D01*
X142241715Y-89647724D01*
X142254276Y-89660285D01*
X142356351Y-89736786D01*
X142371946Y-89745324D01*
X142492394Y-89790478D01*
X142507649Y-89794105D01*
X142558514Y-89799631D01*
X142565328Y-89800000D01*
X143237885Y-89800000D01*
X143253124Y-89795525D01*
X143254329Y-89794135D01*
X143256000Y-89786452D01*
X143256000Y-89781884D01*
X143764000Y-89781884D01*
X143768475Y-89797123D01*
X143769865Y-89798328D01*
X143777548Y-89799999D01*
X144454669Y-89799999D01*
X144461490Y-89799629D01*
X144512352Y-89794105D01*
X144527604Y-89790479D01*
X144648054Y-89745324D01*
X144663649Y-89736786D01*
X144765724Y-89660285D01*
X144778285Y-89647724D01*
X144854786Y-89545649D01*
X144863324Y-89530054D01*
X144884773Y-89472840D01*
X144927415Y-89416075D01*
X144993977Y-89391376D01*
X145063325Y-89406584D01*
X145083240Y-89420126D01*
X145202359Y-89519020D01*
X145239349Y-89549730D01*
X145439322Y-89666584D01*
X145655694Y-89749209D01*
X145660760Y-89750240D01*
X145660761Y-89750240D01*
X145713846Y-89761040D01*
X145882656Y-89795385D01*
X146013324Y-89800176D01*
X146108949Y-89803683D01*
X146108953Y-89803683D01*
X146114113Y-89803872D01*
X146119233Y-89803216D01*
X146119235Y-89803216D01*
X146244748Y-89787137D01*
X146343847Y-89774442D01*
X146348795Y-89772957D01*
X146348802Y-89772956D01*
X146560747Y-89709369D01*
X146565690Y-89707886D01*
X146570324Y-89705616D01*
X146769049Y-89608262D01*
X146769052Y-89608260D01*
X146773684Y-89605991D01*
X146962243Y-89471494D01*
X147126303Y-89308005D01*
X147261458Y-89119917D01*
X147337237Y-88966590D01*
X147361784Y-88916922D01*
X147361785Y-88916920D01*
X147364078Y-88912280D01*
X147431408Y-88690671D01*
X147461640Y-88461041D01*
X147461760Y-88456124D01*
X147463245Y-88395365D01*
X147463245Y-88395361D01*
X147463327Y-88392000D01*
X147452133Y-88255840D01*
X147444773Y-88166318D01*
X147444772Y-88166312D01*
X147444349Y-88161167D01*
X147387925Y-87936533D01*
X147373367Y-87903051D01*
X147297630Y-87728868D01*
X147297628Y-87728865D01*
X147295570Y-87724131D01*
X147169764Y-87529665D01*
X147160516Y-87519501D01*
X147118500Y-87473327D01*
X147013887Y-87358358D01*
X147009836Y-87355159D01*
X147009832Y-87355155D01*
X146836177Y-87218011D01*
X146836172Y-87218008D01*
X146832123Y-87214810D01*
X146827607Y-87212317D01*
X146827604Y-87212315D01*
X146633879Y-87105373D01*
X146633875Y-87105371D01*
X146629355Y-87102876D01*
X146624486Y-87101152D01*
X146624482Y-87101150D01*
X146415903Y-87027288D01*
X146415899Y-87027287D01*
X146411028Y-87025562D01*
X146405935Y-87024655D01*
X146405932Y-87024654D01*
X146188095Y-86985851D01*
X146188089Y-86985850D01*
X146183006Y-86984945D01*
X146105644Y-86984000D01*
X145956581Y-86982179D01*
X145956579Y-86982179D01*
X145951411Y-86982116D01*
X145722464Y-87017150D01*
X145502314Y-87089106D01*
X145497726Y-87091494D01*
X145497722Y-87091496D01*
X145301461Y-87193663D01*
X145296872Y-87196052D01*
X145292739Y-87199155D01*
X145292736Y-87199157D01*
X145115790Y-87332012D01*
X145111655Y-87335117D01*
X145108083Y-87338855D01*
X145093787Y-87353815D01*
X145032263Y-87389245D01*
X144961351Y-87385788D01*
X144903564Y-87344543D01*
X144884711Y-87310994D01*
X144863324Y-87253946D01*
X144854786Y-87238351D01*
X144778285Y-87136276D01*
X144765724Y-87123715D01*
X144663649Y-87047214D01*
X144648054Y-87038676D01*
X144527606Y-86993522D01*
X144512351Y-86989895D01*
X144461486Y-86984369D01*
X144454672Y-86984000D01*
X143782115Y-86984000D01*
X143766876Y-86988475D01*
X143765671Y-86989865D01*
X143764000Y-86997548D01*
X143764000Y-89781884D01*
X143256000Y-89781884D01*
X143256000Y-88664115D01*
X143251525Y-88648876D01*
X143250135Y-88647671D01*
X143242452Y-88646000D01*
X142120116Y-88646000D01*
X142104877Y-88650475D01*
X142103672Y-88651865D01*
X142102001Y-88659548D01*
X142102001Y-89336669D01*
X107966699Y-89336669D01*
X108010377Y-89192910D01*
X108012555Y-89182837D01*
X108013986Y-89171962D01*
X108011775Y-89157778D01*
X107998617Y-89154000D01*
X106552000Y-89154000D01*
X106483879Y-89133998D01*
X106437386Y-89080342D01*
X106426000Y-89028000D01*
X106426000Y-88627885D01*
X106934000Y-88627885D01*
X106938475Y-88643124D01*
X106939865Y-88644329D01*
X106947548Y-88646000D01*
X107998344Y-88646000D01*
X108011875Y-88642027D01*
X108013180Y-88632947D01*
X107971214Y-88465875D01*
X107967894Y-88456124D01*
X107882972Y-88260814D01*
X107878105Y-88251739D01*
X107792805Y-88119885D01*
X142102000Y-88119885D01*
X142106475Y-88135124D01*
X142107865Y-88136329D01*
X142115548Y-88138000D01*
X143237885Y-88138000D01*
X143253124Y-88133525D01*
X143254329Y-88132135D01*
X143256000Y-88124452D01*
X143256000Y-87002116D01*
X143251525Y-86986877D01*
X143250135Y-86985672D01*
X143242452Y-86984001D01*
X142565331Y-86984001D01*
X142558510Y-86984371D01*
X142507648Y-86989895D01*
X142492396Y-86993521D01*
X142371946Y-87038676D01*
X142356351Y-87047214D01*
X142254276Y-87123715D01*
X142241715Y-87136276D01*
X142165214Y-87238351D01*
X142156676Y-87253946D01*
X142111522Y-87374394D01*
X142107895Y-87389649D01*
X142102369Y-87440514D01*
X142102000Y-87447328D01*
X142102000Y-88119885D01*
X107792805Y-88119885D01*
X107762426Y-88072926D01*
X107756136Y-88064757D01*
X107612806Y-87907240D01*
X107605273Y-87900215D01*
X107438139Y-87768222D01*
X107429552Y-87762517D01*
X107392116Y-87741851D01*
X107342146Y-87691419D01*
X107327374Y-87621976D01*
X107352490Y-87555571D01*
X107379842Y-87528964D01*
X107555327Y-87403792D01*
X107563200Y-87397139D01*
X107714052Y-87246812D01*
X107720730Y-87238965D01*
X107845003Y-87066020D01*
X107850313Y-87057183D01*
X107944670Y-86866267D01*
X107948469Y-86856672D01*
X108010377Y-86652910D01*
X108012555Y-86642837D01*
X108013986Y-86631962D01*
X108011775Y-86617778D01*
X107998617Y-86614000D01*
X106952115Y-86614000D01*
X106936876Y-86618475D01*
X106935671Y-86619865D01*
X106934000Y-86627548D01*
X106934000Y-88627885D01*
X106426000Y-88627885D01*
X106426000Y-86087885D01*
X106934000Y-86087885D01*
X106938475Y-86103124D01*
X106939865Y-86104329D01*
X106947548Y-86106000D01*
X107998344Y-86106000D01*
X108011875Y-86102027D01*
X108013180Y-86092947D01*
X107971214Y-85925875D01*
X107967894Y-85916124D01*
X107882972Y-85720814D01*
X107878105Y-85711739D01*
X107762426Y-85532926D01*
X107756136Y-85524757D01*
X107612806Y-85367240D01*
X107605273Y-85360215D01*
X107438139Y-85228222D01*
X107429552Y-85222517D01*
X107392116Y-85201851D01*
X107342146Y-85151419D01*
X107327374Y-85081976D01*
X107352490Y-85015571D01*
X107379842Y-84988964D01*
X107555327Y-84863792D01*
X107563200Y-84857139D01*
X107714052Y-84706812D01*
X107720730Y-84698965D01*
X107845003Y-84526020D01*
X107850313Y-84517183D01*
X107944670Y-84326267D01*
X107948469Y-84316672D01*
X107969403Y-84247769D01*
X122433500Y-84247769D01*
X122433800Y-84250825D01*
X122433800Y-84250832D01*
X122434530Y-84258273D01*
X122447920Y-84394833D01*
X122505084Y-84584169D01*
X122597934Y-84758796D01*
X122668291Y-84845062D01*
X122719040Y-84907287D01*
X122719043Y-84907290D01*
X122722935Y-84912062D01*
X122727682Y-84915989D01*
X122727684Y-84915991D01*
X122870575Y-85034201D01*
X122870579Y-85034203D01*
X122875325Y-85038130D01*
X123049299Y-85132198D01*
X123238232Y-85190682D01*
X123244357Y-85191326D01*
X123244358Y-85191326D01*
X123428796Y-85210711D01*
X123428798Y-85210711D01*
X123434925Y-85211355D01*
X123539357Y-85201851D01*
X123625749Y-85193989D01*
X123625752Y-85193988D01*
X123631888Y-85193430D01*
X123637794Y-85191692D01*
X123637798Y-85191691D01*
X123774818Y-85151364D01*
X123821619Y-85137590D01*
X123827077Y-85134737D01*
X123827081Y-85134735D01*
X123928103Y-85081921D01*
X123996890Y-85045960D01*
X124151025Y-84922032D01*
X124278154Y-84770526D01*
X124281121Y-84765128D01*
X124281125Y-84765123D01*
X124370467Y-84602608D01*
X124373433Y-84597213D01*
X124375846Y-84589608D01*
X124431373Y-84414564D01*
X124431373Y-84414563D01*
X124433235Y-84408694D01*
X124450500Y-84254773D01*
X124450500Y-84035138D01*
X124470502Y-83967017D01*
X124524158Y-83920524D01*
X124594432Y-83910420D01*
X124603986Y-83912172D01*
X124608460Y-83913172D01*
X124778543Y-83951190D01*
X124784088Y-83951500D01*
X124917244Y-83951500D01*
X125052037Y-83936857D01*
X125170190Y-83897094D01*
X125217204Y-83881272D01*
X125217206Y-83881271D01*
X125223675Y-83879094D01*
X125378905Y-83785823D01*
X125383862Y-83781135D01*
X125383865Y-83781133D01*
X125505527Y-83666082D01*
X125505529Y-83666080D01*
X125510485Y-83661393D01*
X125514317Y-83655755D01*
X125514320Y-83655751D01*
X125608442Y-83517255D01*
X125612277Y-83511612D01*
X125679530Y-83343466D01*
X125680644Y-83336738D01*
X125680645Y-83336734D01*
X125707993Y-83171539D01*
X125707993Y-83171536D01*
X125709108Y-83164802D01*
X125708405Y-83151375D01*
X125704203Y-83071198D01*
X129814892Y-83071198D01*
X129815249Y-83078015D01*
X129815249Y-83078019D01*
X129819812Y-83165076D01*
X129824370Y-83252047D01*
X129826181Y-83258620D01*
X129826181Y-83258623D01*
X129849551Y-83343466D01*
X129872461Y-83426641D01*
X129956922Y-83586836D01*
X129961327Y-83592049D01*
X129961330Y-83592053D01*
X130069406Y-83719943D01*
X130069410Y-83719947D01*
X130073813Y-83725157D01*
X130079237Y-83729304D01*
X130079238Y-83729305D01*
X130212257Y-83831006D01*
X130212261Y-83831009D01*
X130217678Y-83835150D01*
X130304372Y-83875576D01*
X130375631Y-83908805D01*
X130375634Y-83908806D01*
X130381808Y-83911685D01*
X130388456Y-83913171D01*
X130388459Y-83913172D01*
X130484686Y-83934681D01*
X130558543Y-83951190D01*
X130564088Y-83951500D01*
X130697244Y-83951500D01*
X130832037Y-83936857D01*
X130907312Y-83911524D01*
X130978253Y-83908754D01*
X131039432Y-83944777D01*
X131071423Y-84008158D01*
X131073500Y-84030943D01*
X131073500Y-84247769D01*
X131073800Y-84250825D01*
X131073800Y-84250832D01*
X131074530Y-84258273D01*
X131087920Y-84394833D01*
X131145084Y-84584169D01*
X131237934Y-84758796D01*
X131308291Y-84845062D01*
X131359040Y-84907287D01*
X131359043Y-84907290D01*
X131362935Y-84912062D01*
X131367682Y-84915989D01*
X131367684Y-84915991D01*
X131510575Y-85034201D01*
X131510579Y-85034203D01*
X131515325Y-85038130D01*
X131689299Y-85132198D01*
X131878232Y-85190682D01*
X131884357Y-85191326D01*
X131884358Y-85191326D01*
X132068796Y-85210711D01*
X132068798Y-85210711D01*
X132074925Y-85211355D01*
X132179357Y-85201851D01*
X132265749Y-85193989D01*
X132265752Y-85193988D01*
X132271888Y-85193430D01*
X132277794Y-85191692D01*
X132277798Y-85191691D01*
X132414818Y-85151364D01*
X132461619Y-85137590D01*
X132467077Y-85134737D01*
X132467081Y-85134735D01*
X132568103Y-85081921D01*
X132636890Y-85045960D01*
X132791025Y-84922032D01*
X132918154Y-84770526D01*
X132921121Y-84765128D01*
X132921125Y-84765123D01*
X133010467Y-84602608D01*
X133013433Y-84597213D01*
X133015846Y-84589608D01*
X133071373Y-84414564D01*
X133071373Y-84414563D01*
X133073235Y-84408694D01*
X133090500Y-84254773D01*
X133090500Y-83048231D01*
X133089814Y-83041227D01*
X133076681Y-82907301D01*
X133076080Y-82901167D01*
X133018916Y-82711831D01*
X132926066Y-82537204D01*
X132818238Y-82404994D01*
X132804960Y-82388713D01*
X132804957Y-82388710D01*
X132801065Y-82383938D01*
X132794718Y-82378687D01*
X132653425Y-82261799D01*
X132653421Y-82261797D01*
X132648675Y-82257870D01*
X132474701Y-82163802D01*
X132285768Y-82105318D01*
X132279643Y-82104674D01*
X132279642Y-82104674D01*
X132095204Y-82085289D01*
X132095202Y-82085289D01*
X132089075Y-82084645D01*
X132006576Y-82092153D01*
X131898251Y-82102011D01*
X131898248Y-82102012D01*
X131892112Y-82102570D01*
X131886206Y-82104308D01*
X131886202Y-82104309D01*
X131781076Y-82135249D01*
X131702381Y-82158410D01*
X131696923Y-82161263D01*
X131696919Y-82161265D01*
X131606147Y-82208720D01*
X131527110Y-82250040D01*
X131372975Y-82373968D01*
X131324600Y-82431619D01*
X131265493Y-82470944D01*
X131194506Y-82472070D01*
X131151552Y-82450722D01*
X131091743Y-82404994D01*
X131091739Y-82404991D01*
X131086322Y-82400850D01*
X130981186Y-82351825D01*
X130928369Y-82327195D01*
X130928366Y-82327194D01*
X130922192Y-82324315D01*
X130915544Y-82322829D01*
X130915541Y-82322828D01*
X130750494Y-82285936D01*
X130750495Y-82285936D01*
X130745457Y-82284810D01*
X130739912Y-82284500D01*
X130606756Y-82284500D01*
X130471963Y-82299143D01*
X130388609Y-82327195D01*
X130306796Y-82354728D01*
X130306794Y-82354729D01*
X130300325Y-82356906D01*
X130145095Y-82450177D01*
X130140138Y-82454865D01*
X130140135Y-82454867D01*
X130027985Y-82560923D01*
X130013515Y-82574607D01*
X130009683Y-82580245D01*
X130009680Y-82580249D01*
X129925133Y-82704656D01*
X129911723Y-82724388D01*
X129844470Y-82892534D01*
X129843356Y-82899262D01*
X129843355Y-82899266D01*
X129819270Y-83044751D01*
X129814892Y-83071198D01*
X125704203Y-83071198D01*
X125699987Y-82990766D01*
X125699630Y-82983953D01*
X125676304Y-82899266D01*
X125653352Y-82815941D01*
X125651539Y-82809359D01*
X125567078Y-82649164D01*
X125562673Y-82643951D01*
X125562670Y-82643947D01*
X125454594Y-82516057D01*
X125454590Y-82516053D01*
X125450187Y-82510843D01*
X125424383Y-82491114D01*
X125311743Y-82404994D01*
X125311739Y-82404991D01*
X125306322Y-82400850D01*
X125201186Y-82351825D01*
X125148369Y-82327195D01*
X125148366Y-82327194D01*
X125142192Y-82324315D01*
X125135544Y-82322829D01*
X125135541Y-82322828D01*
X124970494Y-82285936D01*
X124970495Y-82285936D01*
X124965457Y-82284810D01*
X124959912Y-82284500D01*
X124826756Y-82284500D01*
X124691963Y-82299143D01*
X124608609Y-82327195D01*
X124526796Y-82354728D01*
X124526794Y-82354729D01*
X124520325Y-82356906D01*
X124365095Y-82450177D01*
X124364671Y-82449472D01*
X124303480Y-82472762D01*
X124234007Y-82458135D01*
X124196008Y-82426782D01*
X124173211Y-82398831D01*
X124161065Y-82383938D01*
X124154718Y-82378687D01*
X124013425Y-82261799D01*
X124013421Y-82261797D01*
X124008675Y-82257870D01*
X123834701Y-82163802D01*
X123645768Y-82105318D01*
X123639643Y-82104674D01*
X123639642Y-82104674D01*
X123455204Y-82085289D01*
X123455202Y-82085289D01*
X123449075Y-82084645D01*
X123366576Y-82092153D01*
X123258251Y-82102011D01*
X123258248Y-82102012D01*
X123252112Y-82102570D01*
X123246206Y-82104308D01*
X123246202Y-82104309D01*
X123141076Y-82135249D01*
X123062381Y-82158410D01*
X123056923Y-82161263D01*
X123056919Y-82161265D01*
X122966147Y-82208720D01*
X122887110Y-82250040D01*
X122732975Y-82373968D01*
X122605846Y-82525474D01*
X122602879Y-82530872D01*
X122602875Y-82530877D01*
X122550214Y-82626669D01*
X122510567Y-82698787D01*
X122508706Y-82704654D01*
X122508705Y-82704656D01*
X122469819Y-82827240D01*
X122450765Y-82887306D01*
X122433500Y-83041227D01*
X122433500Y-84247769D01*
X107969403Y-84247769D01*
X108010377Y-84112910D01*
X108012555Y-84102837D01*
X108013986Y-84091962D01*
X108011775Y-84077778D01*
X107998617Y-84074000D01*
X106952115Y-84074000D01*
X106936876Y-84078475D01*
X106935671Y-84079865D01*
X106934000Y-84087548D01*
X106934000Y-86087885D01*
X106426000Y-86087885D01*
X106426000Y-83547885D01*
X106934000Y-83547885D01*
X106938475Y-83563124D01*
X106939865Y-83564329D01*
X106947548Y-83566000D01*
X107998344Y-83566000D01*
X108011875Y-83562027D01*
X108013180Y-83552947D01*
X107971214Y-83385875D01*
X107967894Y-83376124D01*
X107882972Y-83180814D01*
X107878105Y-83171739D01*
X107762426Y-82992926D01*
X107756136Y-82984757D01*
X107612806Y-82827240D01*
X107605273Y-82820215D01*
X107438139Y-82688222D01*
X107429552Y-82682517D01*
X107392116Y-82661851D01*
X107342146Y-82611419D01*
X107327374Y-82541976D01*
X107352490Y-82475571D01*
X107379842Y-82448964D01*
X107555327Y-82323792D01*
X107563200Y-82317139D01*
X107714052Y-82166812D01*
X107720730Y-82158965D01*
X107845003Y-81986020D01*
X107850313Y-81977183D01*
X107944670Y-81786267D01*
X107948469Y-81776672D01*
X108010377Y-81572910D01*
X108012555Y-81562837D01*
X108013986Y-81551962D01*
X108011775Y-81537778D01*
X107998617Y-81534000D01*
X106952115Y-81534000D01*
X106936876Y-81538475D01*
X106935671Y-81539865D01*
X106934000Y-81547548D01*
X106934000Y-83547885D01*
X106426000Y-83547885D01*
X106426000Y-81007885D01*
X106934000Y-81007885D01*
X106938475Y-81023124D01*
X106939865Y-81024329D01*
X106947548Y-81026000D01*
X107998344Y-81026000D01*
X108011875Y-81022027D01*
X108013180Y-81012947D01*
X107971214Y-80845875D01*
X107967894Y-80836124D01*
X107882972Y-80640814D01*
X107878105Y-80631739D01*
X107762426Y-80452926D01*
X107756136Y-80444757D01*
X107611931Y-80286279D01*
X107580879Y-80222433D01*
X107589273Y-80151934D01*
X107634450Y-80097166D01*
X107660894Y-80083497D01*
X107768054Y-80043324D01*
X107783649Y-80034786D01*
X107885724Y-79958285D01*
X107898285Y-79945724D01*
X107974786Y-79843649D01*
X107983324Y-79828054D01*
X107987180Y-79817769D01*
X122433500Y-79817769D01*
X122433800Y-79820825D01*
X122433800Y-79820832D01*
X122436061Y-79843891D01*
X122447920Y-79964833D01*
X122505084Y-80154169D01*
X122597934Y-80328796D01*
X122668291Y-80415062D01*
X122719040Y-80477287D01*
X122719043Y-80477290D01*
X122722935Y-80482062D01*
X122727682Y-80485989D01*
X122727684Y-80485991D01*
X122870575Y-80604201D01*
X122870579Y-80604203D01*
X122875325Y-80608130D01*
X123049299Y-80702198D01*
X123238232Y-80760682D01*
X123244357Y-80761326D01*
X123244358Y-80761326D01*
X123428796Y-80780711D01*
X123428798Y-80780711D01*
X123434925Y-80781355D01*
X123517424Y-80773847D01*
X123625749Y-80763989D01*
X123625752Y-80763988D01*
X123631888Y-80763430D01*
X123637794Y-80761692D01*
X123637798Y-80761691D01*
X123742924Y-80730751D01*
X123821619Y-80707590D01*
X123827077Y-80704737D01*
X123827081Y-80704735D01*
X123963823Y-80633247D01*
X123996890Y-80615960D01*
X124151025Y-80492032D01*
X124278154Y-80340526D01*
X124281121Y-80335128D01*
X124281125Y-80335123D01*
X124370467Y-80172608D01*
X124373433Y-80167213D01*
X124375846Y-80159608D01*
X124431373Y-79984564D01*
X124431373Y-79984563D01*
X124433235Y-79978694D01*
X124450500Y-79824773D01*
X124450500Y-79817769D01*
X131073500Y-79817769D01*
X131073800Y-79820825D01*
X131073800Y-79820832D01*
X131076061Y-79843891D01*
X131087920Y-79964833D01*
X131145084Y-80154169D01*
X131237934Y-80328796D01*
X131308291Y-80415062D01*
X131359040Y-80477287D01*
X131359043Y-80477290D01*
X131362935Y-80482062D01*
X131367682Y-80485989D01*
X131367684Y-80485991D01*
X131510575Y-80604201D01*
X131510579Y-80604203D01*
X131515325Y-80608130D01*
X131689299Y-80702198D01*
X131878232Y-80760682D01*
X131884357Y-80761326D01*
X131884358Y-80761326D01*
X132068796Y-80780711D01*
X132068798Y-80780711D01*
X132074925Y-80781355D01*
X132157424Y-80773847D01*
X132265749Y-80763989D01*
X132265752Y-80763988D01*
X132271888Y-80763430D01*
X132277794Y-80761692D01*
X132277798Y-80761691D01*
X132382924Y-80730751D01*
X132461619Y-80707590D01*
X132467077Y-80704737D01*
X132467081Y-80704735D01*
X132603823Y-80633247D01*
X132636890Y-80615960D01*
X132791025Y-80492032D01*
X132918154Y-80340526D01*
X132921121Y-80335128D01*
X132921125Y-80335123D01*
X133010467Y-80172608D01*
X133013433Y-80167213D01*
X133015846Y-80159608D01*
X133071373Y-79984564D01*
X133071373Y-79984563D01*
X133073235Y-79978694D01*
X133090500Y-79824773D01*
X133090500Y-79118231D01*
X133089814Y-79111227D01*
X133078894Y-78999865D01*
X133076080Y-78971167D01*
X133018916Y-78781831D01*
X132926066Y-78607204D01*
X132840454Y-78502233D01*
X132804960Y-78458713D01*
X132804957Y-78458710D01*
X132801065Y-78453938D01*
X132794724Y-78448692D01*
X132653425Y-78331799D01*
X132653421Y-78331797D01*
X132648675Y-78327870D01*
X132474701Y-78233802D01*
X132285768Y-78175318D01*
X132279643Y-78174674D01*
X132279642Y-78174674D01*
X132095204Y-78155289D01*
X132095202Y-78155289D01*
X132089075Y-78154645D01*
X132006576Y-78162153D01*
X131898251Y-78172011D01*
X131898248Y-78172012D01*
X131892112Y-78172570D01*
X131886206Y-78174308D01*
X131886202Y-78174309D01*
X131781076Y-78205249D01*
X131702381Y-78228410D01*
X131696923Y-78231263D01*
X131696919Y-78231265D01*
X131606147Y-78278720D01*
X131527110Y-78320040D01*
X131372975Y-78443968D01*
X131245846Y-78595474D01*
X131242879Y-78600872D01*
X131242875Y-78600877D01*
X131171552Y-78730615D01*
X131150567Y-78768787D01*
X131148706Y-78774654D01*
X131148705Y-78774656D01*
X131092627Y-78951436D01*
X131090765Y-78957306D01*
X131073500Y-79111227D01*
X131073500Y-79817769D01*
X124450500Y-79817769D01*
X124450500Y-79118231D01*
X124449814Y-79111227D01*
X124438894Y-78999865D01*
X124436080Y-78971167D01*
X124378916Y-78781831D01*
X124286066Y-78607204D01*
X124200454Y-78502233D01*
X124164960Y-78458713D01*
X124164957Y-78458710D01*
X124161065Y-78453938D01*
X124154724Y-78448692D01*
X124013425Y-78331799D01*
X124013421Y-78331797D01*
X124008675Y-78327870D01*
X123834701Y-78233802D01*
X123645768Y-78175318D01*
X123639643Y-78174674D01*
X123639642Y-78174674D01*
X123455204Y-78155289D01*
X123455202Y-78155289D01*
X123449075Y-78154645D01*
X123366576Y-78162153D01*
X123258251Y-78172011D01*
X123258248Y-78172012D01*
X123252112Y-78172570D01*
X123246206Y-78174308D01*
X123246202Y-78174309D01*
X123141076Y-78205249D01*
X123062381Y-78228410D01*
X123056923Y-78231263D01*
X123056919Y-78231265D01*
X122966147Y-78278720D01*
X122887110Y-78320040D01*
X122732975Y-78443968D01*
X122605846Y-78595474D01*
X122602879Y-78600872D01*
X122602875Y-78600877D01*
X122531552Y-78730615D01*
X122510567Y-78768787D01*
X122508706Y-78774654D01*
X122508705Y-78774656D01*
X122452627Y-78951436D01*
X122450765Y-78957306D01*
X122433500Y-79111227D01*
X122433500Y-79817769D01*
X107987180Y-79817769D01*
X108028478Y-79707606D01*
X108032105Y-79692351D01*
X108037631Y-79641486D01*
X108038000Y-79634672D01*
X108038000Y-79012115D01*
X108033525Y-78996876D01*
X108032135Y-78995671D01*
X108024452Y-78994000D01*
X106952115Y-78994000D01*
X106936876Y-78998475D01*
X106935671Y-78999865D01*
X106934000Y-79007548D01*
X106934000Y-81007885D01*
X106426000Y-81007885D01*
X106426000Y-78612000D01*
X106446002Y-78543879D01*
X106499658Y-78497386D01*
X106552000Y-78486000D01*
X108019884Y-78486000D01*
X108035123Y-78481525D01*
X108036328Y-78480135D01*
X108037999Y-78472452D01*
X108037999Y-77845331D01*
X108037629Y-77838510D01*
X108032105Y-77787648D01*
X108028479Y-77772396D01*
X107983324Y-77651946D01*
X107974786Y-77636351D01*
X107898285Y-77534276D01*
X107885728Y-77521719D01*
X107781129Y-77443327D01*
X107738614Y-77386467D01*
X107733588Y-77315649D01*
X107767648Y-77253355D01*
X107829979Y-77219365D01*
X107856694Y-77216500D01*
X148022472Y-77216500D01*
X148090593Y-77236502D01*
G37*
%TD.AperFunction*%
%TA.AperFunction,Conductor*%
G36*
X150552338Y-89574678D02*
G01*
X150580166Y-89606511D01*
X150637694Y-89700388D01*
X150643777Y-89708699D01*
X150783213Y-89869667D01*
X150790580Y-89876883D01*
X150954434Y-90012916D01*
X150962881Y-90018831D01*
X151146756Y-90126279D01*
X151156042Y-90130729D01*
X151284522Y-90179790D01*
X151341025Y-90222777D01*
X151365318Y-90289488D01*
X151349688Y-90358743D01*
X151299097Y-90408554D01*
X151239573Y-90423500D01*
X149708127Y-90423500D01*
X149640006Y-90403498D01*
X149593513Y-90349842D01*
X149583409Y-90279568D01*
X149612903Y-90214988D01*
X149671919Y-90176815D01*
X149692418Y-90170665D01*
X149692430Y-90170660D01*
X149697384Y-90169174D01*
X149897994Y-90070896D01*
X150079860Y-89941173D01*
X150238096Y-89783489D01*
X150297594Y-89700689D01*
X150368453Y-89602077D01*
X150369640Y-89602930D01*
X150416960Y-89559362D01*
X150486897Y-89547145D01*
X150552338Y-89574678D01*
G37*
%TD.AperFunction*%
%TD*%
%TA.AperFunction,NonConductor*%
G36*
X150530741Y-79957263D02*
G01*
X150545982Y-79967058D01*
X150636351Y-80034786D01*
X150651946Y-80043324D01*
X150761337Y-80084333D01*
X150818101Y-80126975D01*
X150842801Y-80193536D01*
X150827594Y-80262885D01*
X150808201Y-80289366D01*
X150684590Y-80418717D01*
X150678109Y-80426722D01*
X150573498Y-80580074D01*
X150518587Y-80625076D01*
X150448062Y-80633247D01*
X150384315Y-80601993D01*
X150363618Y-80577509D01*
X150282822Y-80452617D01*
X150282820Y-80452614D01*
X150280014Y-80448277D01*
X150276532Y-80444450D01*
X150132798Y-80286488D01*
X150101746Y-80222642D01*
X150110141Y-80152143D01*
X150155317Y-80097375D01*
X150181761Y-80083706D01*
X150288297Y-80043767D01*
X150296705Y-80040615D01*
X150379326Y-79978694D01*
X150394852Y-79967058D01*
X150461358Y-79942210D01*
X150530741Y-79957263D01*
G37*
%TD.AperFunction*%
%TA.AperFunction,NonConductor*%
G36*
X105470741Y-79957263D02*
G01*
X105485982Y-79967058D01*
X105576351Y-80034786D01*
X105591946Y-80043324D01*
X105701337Y-80084333D01*
X105758101Y-80126975D01*
X105782801Y-80193536D01*
X105767594Y-80262885D01*
X105748201Y-80289366D01*
X105624590Y-80418717D01*
X105618109Y-80426722D01*
X105513498Y-80580074D01*
X105458587Y-80625076D01*
X105388062Y-80633247D01*
X105324315Y-80601993D01*
X105303618Y-80577509D01*
X105222822Y-80452617D01*
X105222820Y-80452614D01*
X105220014Y-80448277D01*
X105216532Y-80444450D01*
X105072798Y-80286488D01*
X105041746Y-80222642D01*
X105050141Y-80152143D01*
X105095317Y-80097375D01*
X105121761Y-80083706D01*
X105228297Y-80043767D01*
X105236705Y-80040615D01*
X105319326Y-79978694D01*
X105334852Y-79967058D01*
X105401358Y-79942210D01*
X105470741Y-79957263D01*
G37*
%TD.AperFunction*%
%TA.AperFunction,NonConductor*%
G36*
X105492338Y-81954678D02*
G01*
X105520166Y-81986511D01*
X105577694Y-82080388D01*
X105583777Y-82088699D01*
X105723213Y-82249667D01*
X105730580Y-82256883D01*
X105894434Y-82392916D01*
X105902881Y-82398831D01*
X105972479Y-82439501D01*
X106021203Y-82491140D01*
X106034274Y-82560923D01*
X106007543Y-82626694D01*
X105967087Y-82660053D01*
X105958462Y-82664542D01*
X105949738Y-82670036D01*
X105779433Y-82797905D01*
X105771726Y-82804748D01*
X105624590Y-82958717D01*
X105618109Y-82966722D01*
X105513498Y-83120074D01*
X105458587Y-83165076D01*
X105388062Y-83173247D01*
X105324315Y-83141993D01*
X105303618Y-83117509D01*
X105222822Y-82992617D01*
X105222820Y-82992614D01*
X105220014Y-82988277D01*
X105069670Y-82823051D01*
X105065619Y-82819852D01*
X105065615Y-82819848D01*
X104898414Y-82687800D01*
X104898410Y-82687798D01*
X104894359Y-82684598D01*
X104853053Y-82661796D01*
X104803084Y-82611364D01*
X104788312Y-82541921D01*
X104813428Y-82475516D01*
X104840780Y-82448909D01*
X104884603Y-82417650D01*
X105019860Y-82321173D01*
X105039783Y-82301320D01*
X105174435Y-82167137D01*
X105178096Y-82163489D01*
X105221871Y-82102570D01*
X105308453Y-81982077D01*
X105309640Y-81982930D01*
X105356960Y-81939362D01*
X105426897Y-81927145D01*
X105492338Y-81954678D01*
G37*
%TD.AperFunction*%
%TA.AperFunction,NonConductor*%
G36*
X150552338Y-81954678D02*
G01*
X150580166Y-81986511D01*
X150637694Y-82080388D01*
X150643777Y-82088699D01*
X150783213Y-82249667D01*
X150790580Y-82256883D01*
X150954434Y-82392916D01*
X150962881Y-82398831D01*
X151032479Y-82439501D01*
X151081203Y-82491140D01*
X151094274Y-82560923D01*
X151067543Y-82626694D01*
X151027087Y-82660053D01*
X151018462Y-82664542D01*
X151009738Y-82670036D01*
X150839433Y-82797905D01*
X150831726Y-82804748D01*
X150684590Y-82958717D01*
X150678109Y-82966722D01*
X150573498Y-83120074D01*
X150518587Y-83165076D01*
X150448062Y-83173247D01*
X150384315Y-83141993D01*
X150363618Y-83117509D01*
X150282822Y-82992617D01*
X150282820Y-82992614D01*
X150280014Y-82988277D01*
X150129670Y-82823051D01*
X150125619Y-82819852D01*
X150125615Y-82819848D01*
X149958414Y-82687800D01*
X149958410Y-82687798D01*
X149954359Y-82684598D01*
X149913053Y-82661796D01*
X149863084Y-82611364D01*
X149848312Y-82541921D01*
X149873428Y-82475516D01*
X149900780Y-82448909D01*
X149944603Y-82417650D01*
X150079860Y-82321173D01*
X150099783Y-82301320D01*
X150234435Y-82167137D01*
X150238096Y-82163489D01*
X150281871Y-82102570D01*
X150368453Y-81982077D01*
X150369640Y-81982930D01*
X150416960Y-81939362D01*
X150486897Y-81927145D01*
X150552338Y-81954678D01*
G37*
%TD.AperFunction*%
%TA.AperFunction,NonConductor*%
G36*
X150552338Y-84494678D02*
G01*
X150580166Y-84526511D01*
X150637694Y-84620388D01*
X150643777Y-84628699D01*
X150783213Y-84789667D01*
X150790580Y-84796883D01*
X150954434Y-84932916D01*
X150962881Y-84938831D01*
X151032479Y-84979501D01*
X151081203Y-85031140D01*
X151094274Y-85100923D01*
X151067543Y-85166694D01*
X151027087Y-85200053D01*
X151018462Y-85204542D01*
X151009738Y-85210036D01*
X150839433Y-85337905D01*
X150831726Y-85344748D01*
X150684590Y-85498717D01*
X150678109Y-85506722D01*
X150573498Y-85660074D01*
X150518587Y-85705076D01*
X150448062Y-85713247D01*
X150384315Y-85681993D01*
X150363618Y-85657509D01*
X150282822Y-85532617D01*
X150282820Y-85532614D01*
X150280014Y-85528277D01*
X150129670Y-85363051D01*
X150125619Y-85359852D01*
X150125615Y-85359848D01*
X149958414Y-85227800D01*
X149958410Y-85227798D01*
X149954359Y-85224598D01*
X149913053Y-85201796D01*
X149863084Y-85151364D01*
X149848312Y-85081921D01*
X149873428Y-85015516D01*
X149900780Y-84988909D01*
X149944603Y-84957650D01*
X150079860Y-84861173D01*
X150238096Y-84703489D01*
X150297594Y-84620689D01*
X150368453Y-84522077D01*
X150369640Y-84522930D01*
X150416960Y-84479362D01*
X150486897Y-84467145D01*
X150552338Y-84494678D01*
G37*
%TD.AperFunction*%
%TA.AperFunction,NonConductor*%
G36*
X105492338Y-84494678D02*
G01*
X105520166Y-84526511D01*
X105577694Y-84620388D01*
X105583777Y-84628699D01*
X105723213Y-84789667D01*
X105730580Y-84796883D01*
X105894434Y-84932916D01*
X105902881Y-84938831D01*
X105972479Y-84979501D01*
X106021203Y-85031140D01*
X106034274Y-85100923D01*
X106007543Y-85166694D01*
X105967087Y-85200053D01*
X105958462Y-85204542D01*
X105949738Y-85210036D01*
X105779433Y-85337905D01*
X105771726Y-85344748D01*
X105624590Y-85498717D01*
X105618109Y-85506722D01*
X105513498Y-85660074D01*
X105458587Y-85705076D01*
X105388062Y-85713247D01*
X105324315Y-85681993D01*
X105303618Y-85657509D01*
X105222822Y-85532617D01*
X105222820Y-85532614D01*
X105220014Y-85528277D01*
X105069670Y-85363051D01*
X105065619Y-85359852D01*
X105065615Y-85359848D01*
X104898414Y-85227800D01*
X104898410Y-85227798D01*
X104894359Y-85224598D01*
X104853053Y-85201796D01*
X104803084Y-85151364D01*
X104788312Y-85081921D01*
X104813428Y-85015516D01*
X104840780Y-84988909D01*
X104884603Y-84957650D01*
X105019860Y-84861173D01*
X105178096Y-84703489D01*
X105237594Y-84620689D01*
X105308453Y-84522077D01*
X105309640Y-84522930D01*
X105356960Y-84479362D01*
X105426897Y-84467145D01*
X105492338Y-84494678D01*
G37*
%TD.AperFunction*%
%TA.AperFunction,NonConductor*%
G36*
X105492338Y-87034678D02*
G01*
X105520166Y-87066511D01*
X105577694Y-87160388D01*
X105583777Y-87168699D01*
X105723213Y-87329667D01*
X105730580Y-87336883D01*
X105894434Y-87472916D01*
X105902881Y-87478831D01*
X105972479Y-87519501D01*
X106021203Y-87571140D01*
X106034274Y-87640923D01*
X106007543Y-87706694D01*
X105967087Y-87740053D01*
X105958462Y-87744542D01*
X105949738Y-87750036D01*
X105779433Y-87877905D01*
X105771726Y-87884748D01*
X105624590Y-88038717D01*
X105618109Y-88046722D01*
X105513498Y-88200074D01*
X105458587Y-88245076D01*
X105388062Y-88253247D01*
X105324315Y-88221993D01*
X105303618Y-88197509D01*
X105222822Y-88072617D01*
X105222820Y-88072614D01*
X105220014Y-88068277D01*
X105069670Y-87903051D01*
X105065619Y-87899852D01*
X105065615Y-87899848D01*
X104898414Y-87767800D01*
X104898410Y-87767798D01*
X104894359Y-87764598D01*
X104853053Y-87741796D01*
X104803084Y-87691364D01*
X104788312Y-87621921D01*
X104813428Y-87555516D01*
X104840780Y-87528909D01*
X104884603Y-87497650D01*
X105019860Y-87401173D01*
X105031425Y-87389649D01*
X105174435Y-87247137D01*
X105178096Y-87243489D01*
X105213900Y-87193663D01*
X105308453Y-87062077D01*
X105309640Y-87062930D01*
X105356960Y-87019362D01*
X105426897Y-87007145D01*
X105492338Y-87034678D01*
G37*
%TD.AperFunction*%
%TA.AperFunction,NonConductor*%
G36*
X150552338Y-87034678D02*
G01*
X150580166Y-87066511D01*
X150637694Y-87160388D01*
X150643777Y-87168699D01*
X150783213Y-87329667D01*
X150790580Y-87336883D01*
X150954434Y-87472916D01*
X150962881Y-87478831D01*
X151032479Y-87519501D01*
X151081203Y-87571140D01*
X151094274Y-87640923D01*
X151067543Y-87706694D01*
X151027087Y-87740053D01*
X151018462Y-87744542D01*
X151009738Y-87750036D01*
X150839433Y-87877905D01*
X150831726Y-87884748D01*
X150684590Y-88038717D01*
X150678109Y-88046722D01*
X150573498Y-88200074D01*
X150518587Y-88245076D01*
X150448062Y-88253247D01*
X150384315Y-88221993D01*
X150363618Y-88197509D01*
X150282822Y-88072617D01*
X150282820Y-88072614D01*
X150280014Y-88068277D01*
X150129670Y-87903051D01*
X150125619Y-87899852D01*
X150125615Y-87899848D01*
X149958414Y-87767800D01*
X149958410Y-87767798D01*
X149954359Y-87764598D01*
X149913053Y-87741796D01*
X149863084Y-87691364D01*
X149848312Y-87621921D01*
X149873428Y-87555516D01*
X149900780Y-87528909D01*
X149944603Y-87497650D01*
X150079860Y-87401173D01*
X150091425Y-87389649D01*
X150234435Y-87247137D01*
X150238096Y-87243489D01*
X150273900Y-87193663D01*
X150368453Y-87062077D01*
X150369640Y-87062930D01*
X150416960Y-87019362D01*
X150486897Y-87007145D01*
X150552338Y-87034678D01*
G37*
%TD.AperFunction*%
%TA.AperFunction,NonConductor*%
G36*
X105492338Y-89574678D02*
G01*
X105520166Y-89606511D01*
X105577694Y-89700388D01*
X105583777Y-89708699D01*
X105723213Y-89869667D01*
X105730580Y-89876883D01*
X105894434Y-90012916D01*
X105902881Y-90018831D01*
X106086756Y-90126279D01*
X106096042Y-90130729D01*
X106224522Y-90179790D01*
X106281025Y-90222777D01*
X106305318Y-90289488D01*
X106289688Y-90358743D01*
X106239097Y-90408554D01*
X106179573Y-90423500D01*
X104648127Y-90423500D01*
X104580006Y-90403498D01*
X104533513Y-90349842D01*
X104523409Y-90279568D01*
X104552903Y-90214988D01*
X104611919Y-90176815D01*
X104632418Y-90170665D01*
X104632430Y-90170660D01*
X104637384Y-90169174D01*
X104837994Y-90070896D01*
X105019860Y-89941173D01*
X105178096Y-89783489D01*
X105237594Y-89700689D01*
X105308453Y-89602077D01*
X105309640Y-89602930D01*
X105356960Y-89559362D01*
X105426897Y-89547145D01*
X105492338Y-89574678D01*
G37*
%TD.AperFunction*%
%TA.AperFunction,NonConductor*%
G36*
X102858936Y-77402435D02*
G01*
X102902706Y-77458334D01*
X102909307Y-77529023D01*
X102886460Y-77580483D01*
X102839385Y-77643295D01*
X102788255Y-77779684D01*
X102781500Y-77841866D01*
X102781500Y-79638134D01*
X102788255Y-79700316D01*
X102839385Y-79836705D01*
X102926739Y-79953261D01*
X103043295Y-80040615D01*
X103051704Y-80043767D01*
X103051705Y-80043768D01*
X103160451Y-80084535D01*
X103217216Y-80127176D01*
X103241916Y-80193738D01*
X103226709Y-80263087D01*
X103207316Y-80289568D01*
X103080629Y-80422138D01*
X103077715Y-80426410D01*
X103077714Y-80426411D01*
X103030315Y-80495896D01*
X102954743Y-80606680D01*
X102938899Y-80640814D01*
X102882790Y-80761691D01*
X102860688Y-80809305D01*
X102800989Y-81024570D01*
X102777251Y-81246695D01*
X102790110Y-81469715D01*
X102791247Y-81474761D01*
X102791248Y-81474767D01*
X102804597Y-81534000D01*
X102839222Y-81687639D01*
X102923266Y-81894616D01*
X103039987Y-82085088D01*
X103186250Y-82253938D01*
X103240700Y-82299143D01*
X103348588Y-82388713D01*
X103358126Y-82396632D01*
X103372436Y-82404994D01*
X103431445Y-82439476D01*
X103480169Y-82491114D01*
X103493240Y-82560897D01*
X103466509Y-82626669D01*
X103426055Y-82660027D01*
X103413607Y-82666507D01*
X103409474Y-82669610D01*
X103409471Y-82669612D01*
X103239100Y-82797530D01*
X103234965Y-82800635D01*
X103231393Y-82804373D01*
X103133033Y-82907301D01*
X103080629Y-82962138D01*
X102954743Y-83146680D01*
X102860688Y-83349305D01*
X102800989Y-83564570D01*
X102777251Y-83786695D01*
X102777548Y-83791848D01*
X102777548Y-83791851D01*
X102786749Y-83951431D01*
X102790110Y-84009715D01*
X102791247Y-84014761D01*
X102791248Y-84014767D01*
X102794894Y-84030943D01*
X102839222Y-84227639D01*
X102900673Y-84378976D01*
X102910256Y-84402575D01*
X102923266Y-84434616D01*
X103039987Y-84625088D01*
X103186250Y-84793938D01*
X103358126Y-84936632D01*
X103428595Y-84977811D01*
X103431445Y-84979476D01*
X103480169Y-85031114D01*
X103493240Y-85100897D01*
X103466509Y-85166669D01*
X103426055Y-85200027D01*
X103413607Y-85206507D01*
X103409474Y-85209610D01*
X103409471Y-85209612D01*
X103385247Y-85227800D01*
X103234965Y-85340635D01*
X103080629Y-85502138D01*
X102954743Y-85686680D01*
X102860688Y-85889305D01*
X102800989Y-86104570D01*
X102777251Y-86326695D01*
X102790110Y-86549715D01*
X102791247Y-86554761D01*
X102791248Y-86554767D01*
X102804597Y-86614000D01*
X102839222Y-86767639D01*
X102923266Y-86974616D01*
X102925965Y-86979020D01*
X103014634Y-87123715D01*
X103039987Y-87165088D01*
X103186250Y-87333938D01*
X103358126Y-87476632D01*
X103428595Y-87517811D01*
X103431445Y-87519476D01*
X103480169Y-87571114D01*
X103493240Y-87640897D01*
X103466509Y-87706669D01*
X103426055Y-87740027D01*
X103413607Y-87746507D01*
X103409474Y-87749610D01*
X103409471Y-87749612D01*
X103385247Y-87767800D01*
X103234965Y-87880635D01*
X103080629Y-88042138D01*
X102954743Y-88226680D01*
X102860688Y-88429305D01*
X102800989Y-88644570D01*
X102777251Y-88866695D01*
X102777548Y-88871848D01*
X102777548Y-88871851D01*
X102779781Y-88910570D01*
X102790110Y-89089715D01*
X102791247Y-89094761D01*
X102791248Y-89094767D01*
X102812275Y-89188069D01*
X102839222Y-89307639D01*
X102923266Y-89514616D01*
X103039987Y-89705088D01*
X103186250Y-89873938D01*
X103358126Y-90016632D01*
X103551000Y-90129338D01*
X103555825Y-90131180D01*
X103555826Y-90131181D01*
X103683120Y-90179790D01*
X103739623Y-90222778D01*
X103763916Y-90289489D01*
X103748286Y-90358744D01*
X103697695Y-90408554D01*
X103638171Y-90423500D01*
X103427562Y-90423500D01*
X103404981Y-90421460D01*
X103398335Y-90420249D01*
X103398331Y-90420249D01*
X103389505Y-90418641D01*
X103378078Y-90419837D01*
X103374208Y-90420242D01*
X103348873Y-90420332D01*
X103182874Y-90404158D01*
X103165151Y-90401143D01*
X102978484Y-90355476D01*
X102961380Y-90349972D01*
X102783108Y-90278203D01*
X102766955Y-90270317D01*
X102600726Y-90173916D01*
X102585857Y-90163811D01*
X102435030Y-90044726D01*
X102421752Y-90032608D01*
X102408667Y-90018831D01*
X102289416Y-89893279D01*
X102277997Y-89879394D01*
X102166831Y-89722642D01*
X102157504Y-89707274D01*
X102069780Y-89536302D01*
X102062735Y-89519762D01*
X102044881Y-89467850D01*
X102000234Y-89338039D01*
X101995616Y-89320668D01*
X101992401Y-89303808D01*
X101971250Y-89192910D01*
X101959616Y-89131909D01*
X101957516Y-89114056D01*
X101950227Y-88954541D01*
X101951437Y-88936580D01*
X101951751Y-88928323D01*
X101953359Y-88919494D01*
X101949184Y-88879603D01*
X101948500Y-88866487D01*
X101948500Y-78774496D01*
X101949609Y-78757818D01*
X101950312Y-78752551D01*
X101953706Y-78727138D01*
X101952350Y-78718270D01*
X101952350Y-78718263D01*
X101951381Y-78711925D01*
X101950089Y-78686633D01*
X101958373Y-78520063D01*
X101960543Y-78502233D01*
X101997301Y-78313636D01*
X102001988Y-78296289D01*
X102065215Y-78114836D01*
X102072322Y-78098337D01*
X102160721Y-77927744D01*
X102170110Y-77912413D01*
X102281893Y-77756129D01*
X102293368Y-77742290D01*
X102426246Y-77603514D01*
X102439574Y-77591449D01*
X102590854Y-77472993D01*
X102605763Y-77462948D01*
X102722863Y-77395667D01*
X102791893Y-77379074D01*
X102858936Y-77402435D01*
G37*
%TD.AperFunction*%
M02*
