M48
; DRILL file {KiCad 6.0.5-a6ca702e91~116~ubuntu22.04.1} date Fri 10 Jun 2022 04:27:19 PM CDT
; FORMAT={-:-/ absolute / inch / decimal}
; #@! TF.CreationDate,2022-06-10T16:27:19-05:00
; #@! TF.GenerationSoftware,Kicad,Pcbnew,6.0.5-a6ca702e91~116~ubuntu22.04.1
; #@! TF.FileFunction,Plated,1,2,PTH
FMAT,2
INCH
; #@! TA.AperFunction,Plated,PTH,ComponentDrill
T1C0.0236
; #@! TA.AperFunction,Plated,PTH,ComponentDrill
T2C0.0354
; #@! TA.AperFunction,Plated,PTH,ComponentDrill
T3C0.0394
%
G90
G05
T2
X5.65Y-3.48
X5.75Y-3.48
T3
X4.1Y-3.1
X4.1Y-3.2
X4.1Y-3.3
X4.1Y-3.4
X4.1Y-3.5
X4.2Y-3.1
X4.2Y-3.2
X4.2Y-3.3
X4.2Y-3.4
X4.2Y-3.5
X5.874Y-3.1
X5.874Y-3.2
X5.874Y-3.3
X5.874Y-3.4
X5.874Y-3.5
X5.974Y-3.1
X5.974Y-3.2
X5.974Y-3.3
X5.974Y-3.4
X5.974Y-3.5
T1
G00X4.8599Y-3.1405
M15
G01X4.8599Y-3.1169
M16
G05
G00X4.8599Y-3.3149
M15
G01X4.8599Y-3.2716
M16
G05
G00X5.2001Y-3.1405
M15
G01X5.2001Y-3.1169
M16
G05
G00X5.2001Y-3.3149
M15
G01X5.2001Y-3.2716
M16
G05
T0
M30
